<?xml version="1.0" encoding="utf-8"?>
<!-- Generator: Adobe Illustrator 25.2.3, SVG Export Plug-In . SVG Version: 6.00 Build 0)  -->
<svg version="1.1" id="レイヤー_1" xmlns="http://www.w3.org/2000/svg" xmlns:xlink="http://www.w3.org/1999/xlink" x="0px"
	 y="0px" viewBox="0 0 2160 2160" style="enable-background:new 0 0 2160 2160;" xml:space="preserve">
<g>
	<path d="M1082.7,684l1.7,0l-0.3,16.4l8.4,0.1l0,1.5l-10-0.2L1082.7,684z"/>
	<path d="M1105.7,684.4c5.5,0.3,9,4.5,8.7,10c-0.3,5.5-4.4,9.2-9.9,8.8c-5.5-0.3-9-4.5-8.7-10C1096.2,687.7,1100.2,684,1105.7,684.4
		z M1104.6,701.6c4.7,0.3,7.8-3,8.1-7.4c0.3-4.5-2.4-8.1-7.1-8.4c-4.7-0.3-7.8,3-8.1,7.4C1097.2,697.7,1099.9,701.3,1104.6,701.6z"
		/>
	<path d="M1126.4,686.7l1.7,0.2l5.4,18.7l-1.9-0.2l-1.4-5l-9.4-1.1l-2.6,4.5l-1.7-0.2L1126.4,686.7z M1127,688.6l-5.3,9.3l8.2,1
		L1127,688.6z"/>
	<path d="M1140.2,688.5l5.5,0.9c9.2,1.6,8.3,9.2,8.1,10.5s-1.9,8.8-11.1,7.2l-5.5-0.9L1140.2,688.5z M1139.1,704.9l3.4,0.6
		c4.7,0.8,8.7-0.8,9.6-5.9s-2.4-8-7.1-8.8l-3.4-0.6L1139.1,704.9z"/>
	<path d="M1160.9,692.3l1.6,0.3l-3.7,17.6l-1.6-0.3L1160.9,692.3z"/>
	<path d="M1169.4,694l2.1,0.5l6.8,17.9l0,0l3.8-15.2l1.6,0.4l-4.4,17.4l-2.1-0.5l-6.8-17.9l0,0l-3.8,15.2l-1.6-0.4L1169.4,694z"/>
	<path d="M1199.9,720c-2.3,0.5-4.6,0.3-6.9-0.4c-5.2-1.6-7.7-6.5-6.1-11.7c1.6-5.2,6.4-7.9,11.7-6.2c2.5,0.8,4.4,2.2,5.4,4.3
		l-1.5,0.8c-0.7-1.6-2.5-3.1-4.3-3.7c-4.5-1.4-8.3,1-9.6,5.3c-1.3,4.3,0.4,8.4,4.9,9.8c1.8,0.6,3.6,0.8,5.1,0.5l1.8-5.8l-4.1-1.3
		l0.5-1.5l5.7,1.8L1199.9,720z"/>
	<path d="M1224.2,729.3l-0.8,1.9l-10.9-4.3l6-15.5c0.6-1.6,0.1-2.6-1.3-3.1l0,0l4.6,1.8l0,0l-6.2,15.8L1224.2,729.3z"/>
	<path d="M1245,730.3c-2.3,5.2-7.3,7.5-12.4,5.3c-1.2-0.6-4-2.5-2.5-6.2c0.5,1.7,1.6,3.1,3.4,3.9c3.5,1.6,7.2-0.3,8.9-4.2
		c1.7-3.9,0.6-7.9-2.9-9.4c-3.5-1.6-7.2,0.3-8.9,4.2c-0.8,1.9-1,3.8-0.5,5.5l-2.5,1c-0.8-2.3-0.7-5,0.5-7.7
		c2.3-5.2,7.3-7.6,12.5-5.3C1245.7,719.8,1247.3,725,1245,730.3z"/>
	<path d="M1258.4,747.7l-2.5-1.3l1-8.5l-6-3l-6.3,5.8l-2.5-1.3l13.2-11.9c1.2-1.2,0.8-2.3-0.4-2.9l0,0l2.4,1.2l0,0l3.3,1.7
		L1258.4,747.7z M1256.8,737.8l1.1-9.4l-0.1,0l-6.9,6.4L1256.8,737.8z"/>
	<path d="M1279.4,748.7c-2.9,5.1-7.6,6.6-12.2,4l-6.2-3.5l8.2-14.3c0.9-1.5,0.5-2.6-0.7-3.4l0,0l8.2,4.7
		C1281.2,738.8,1282.3,743.6,1279.4,748.7z M1277,747.3c2.4-4.3,1.5-7.8-2.4-10l-5-2.9l-7.4,12.9l5,2.9
		C1271,752.5,1274.5,751.6,1277,747.3z"/>
	<path d="M1290,744.1l-10.1,16.2l-2.3-1.4l8.7-14c0.9-1.5,0.6-2.6-0.6-3.4l0,0L1290,744.1z"/>
	<path d="M1309.6,757.1L1309.6,757.1c-1.3-0.8-2.4-0.6-3.4,0.9l0,0l-9.2,13.7l-2.2-1.5l2.2-21.2l-10.5,15.6l-2.2-1.5l9.3-13.8
		c0.9-1.4,0.6-2.4-0.6-3.2l0,0l4.1,2.7l-2.2,21.2l10.5-15.6L1309.6,757.1z"/>
	<path d="M1317.8,781.6c-2.2,2.4-5.9,2.8-6.2-0.4c0-1.2,0.5-1.9,1.2-2.4c-4.4,1.8-6.7-0.1-6.7-0.1c-4-3-3.8-8.1-0.3-12.6
		c3.5-4.6,8.5-6,13-2.6c5.9,4.4,2.3,10.7,2.3,10.7l-2.8-0.9c0,0,3.1-4.8-1-7.9c-3.1-2.3-6.8-1.1-9.3,2.3c-2.3,3-2.7,6.5-0.6,8.8
		c2.3,2,5.5,1.9,6.9,1.7c0.8-0.2,1.6-0.2,2.2-0.3c-0.1-0.1-0.1-0.1-0.2-0.2l-0.6-0.5l-5.2-4c-1.7-1.5-0.2-3.4-0.2-3.4
		c0.7-0.9,1.9-1,3-0.9l0,0.1c-0.9,0.1-1.1,0.4-1.1,0.4c-0.8,1.1,0.5,2.1,0.5,2.1l4.6,3.6l0,0l0,0c1.4,1.1,2,2.2,1.9,3.3
		c0,0,0,0.1,0,0.1c0,0,0,0,0,0c0,0.3-0.1,0.6-0.2,0.8C1318.6,780.7,1317.8,781.6,1317.8,781.6z M1318,780.9c0.2-0.7,0.1-1.7-1.5-2.9
		c-5.5,1-3.7,8.2,0.9,3.8C1317.7,781.5,1317.9,781.2,1318,780.9z"/>
	<path d="M1337,778.5l1.3,1.1l-10.8,12.4l6.3,5.5l-1,1.1l-7.6-6.6L1337,778.5z"/>
	<path d="M1354.4,793.6c4,3.8,4,9.3,0.2,13.2c-3.8,4-9.3,4.2-13.2,0.4c-4-3.8-4-9.3-0.2-13.2C1345,790.1,1350.4,789.8,1354.4,793.6z
		 M1342.4,806.1c3.4,3.2,7.9,2.8,11-0.4c3.1-3.2,3.4-7.7,0-11s-7.9-2.8-11,0.4C1339.3,798.4,1339,802.9,1342.4,806.1z"/>
	<path d="M1368.7,808.7l1.2,1.3l-7.9,17.8l-1.3-1.4l2.1-4.7l-6.5-6.9l-4.9,1.8l-1.2-1.3L1368.7,808.7z M1367.9,810.5l-10,3.7l5.6,6
		L1367.9,810.5z"/>
	<path d="M1378.1,818.9l3.6,4.2c6,7.1,0.4,12.3-0.6,13.2c-1,0.9-7.1,5.5-13.1-1.6l-3.6-4.2L1378.1,818.9z M1366.7,830.8l2.2,2.6
		c3.1,3.6,7.2,5,11.2,1.6c3.9-3.3,3.3-7.6,0.2-11.3l-2.2-2.6L1366.7,830.8z"/>
	<path d="M1391.5,835.2l1,1.3l-14.1,11.1l-1-1.3L1391.5,835.2z"/>
	<path d="M1396.9,842l1.3,1.7l-6.3,18.1l0,0l12.7-9.2l1,1.4l-14.5,10.5l-1.3-1.7l6.3-18.1l0,0l-12.7,9.2l-1-1.4L1396.9,842z"/>
	<path d="M1403.5,881.5c-2.1-1.1-3.7-2.8-5-4.8c-3-4.6-1.7-9.9,2.9-12.9c4.6-3,10-1.9,13,2.7c1.4,2.2,1.9,4.5,1.4,6.8l-1.7-0.3
		c0.5-1.6,0.1-4-1-5.6c-2.5-3.9-7-4.5-10.8-2.1c-3.8,2.4-5.1,6.7-2.5,10.7c1,1.6,2.2,2.9,3.6,3.6l5.1-3.3l-2.3-3.6l1.3-0.8l3.2,5
		L1403.5,881.5z"/>
	<path d="M1416.2,904.2l-1.8,1l-5.6-10.3l14.6-8c1.5-0.8,1.7-1.9,1-3.2l0,0l2.4,4.3h0l-14.9,8.2L1416.2,904.2z"/>
	<path d="M1431.5,918.3c-5.1,2.5-10.4,1.1-12.9-3.9c-0.5-1.2-1.4-4.4,2.1-6.3c-0.7,1.6-0.8,3.5,0.1,5.2c1.7,3.5,5.8,4.4,9.5,2.5
		c3.8-1.9,5.6-5.6,3.9-9.1c-1.7-3.4-5.8-4.4-9.5-2.5c-1.9,0.9-3.2,2.3-3.9,3.9l-2.6-0.8c0.8-2.3,2.7-4.3,5.3-5.5
		c5.2-2.5,10.5-1.1,13,3.9C1438.8,910.7,1436.6,915.8,1431.5,918.3z"/>
	<path d="M1430.5,940.2l-1.1-2.6l6.2-5.9l-2.6-6.2l-8.6,0.4l-1.1-2.6l17.8-0.7c1.7-0.1,2.1-1.2,1.5-2.5l0,0l1,2.4h0l1.5,3.4
		L1430.5,940.2z M1435.7,931.6l6.8-6.5l0-0.1l-9.4,0.4L1435.7,931.6z"/>
	<path d="M1446,954.5c-5.5,2-10.1,0.2-11.9-4.8l-2.5-6.7l15.5-5.7c1.7-0.6,2.1-1.7,1.6-3l0,0l3.3,8.9
		C1453.8,948.1,1451.5,952.4,1446,954.5z M1445,951.9c4.6-1.7,6.1-5,4.6-9.2l-2-5.4l-14,5.2l2,5.4
		C1437.1,952,1440.4,953.6,1445,951.9z"/>
	<path d="M1457.1,957.9l-18.1,6l-0.8-2.5l15.7-5.1c1.7-0.6,2.2-1.6,1.7-3l0,0L1457.1,957.9z"/>
	<path d="M1463.8,980.3L1463.8,980.3c-0.5-1.4-1.4-2-3.1-1.5v0l-15.9,4.5l-0.7-2.5l15.3-14.8l-18.1,5.2l-0.7-2.5l16.1-4.6
		c1.5-0.5,2-1.5,1.6-2.8l0,0l1.4,4.7l-15.3,14.8l18.1-5.2L1463.8,980.3z"/>
	<path d="M1454.2,1004.3c-3.2,0.5-6.3-1.6-4.5-4.3c0.8-0.9,1.6-1.2,2.5-1.1c-4.5-1.4-5.1-4.4-5.1-4.4c-1.1-4.9,2.3-8.6,7.9-9.9
		c5.6-1.3,10.4,0.9,11.6,6.4c1.6,7.2-5.2,9.7-5.2,9.7l-1.6-2.4c0,0,5.5-1.7,4.3-6.7c-0.9-3.7-4.5-5.2-8.6-4.2
		c-3.7,0.8-6.2,3.3-6.1,6.4c0.4,3,3,5,4.2,5.7c0.7,0.4,1.4,0.9,1.9,1.2c0-0.1,0-0.2-0.1-0.3l-0.1-0.8l-1.5-6.4c-0.3-2.3,2-2.8,2-2.8
		c1.1-0.3,2.1,0.5,2.9,1.2l0,0c-0.7-0.5-1.1-0.4-1.1-0.4c-1.4,0.3-1,2-1,2l1.2,5.7l0,0l0,0c0.4,1.7,0.1,3-0.7,3.8c0,0,0,0.1-0.1,0.1
		c0,0,0,0,0,0c-0.2,0.2-0.4,0.4-0.7,0.5C1455.4,1004.2,1454.2,1004.3,1454.2,1004.3z M1454.8,1004c0.6-0.4,1.2-1.3,0.8-3.2
		c-4.8-2.7-8.1,3.9-1.7,3.5C1454.2,1004.2,1454.6,1004.1,1454.8,1004z"/>
	<path d="M1470.9,1014.4l0.3,1.7l-16.2,2.5l1.3,8.3l-1.5,0.2l-1.6-9.9L1470.9,1014.4z"/>
	<path d="M1474.5,1037.1c0.6,5.4-2.9,9.6-8.4,10.2c-5.4,0.6-9.8-2.8-10.4-8.2c-0.6-5.4,2.9-9.6,8.4-10.2
		C1469.6,1028.3,1473.9,1031.7,1474.5,1037.1z M1457.2,1039c0.5,4.7,4.2,7.2,8.7,6.7s7.6-3.7,7.1-8.4s-4.2-7.2-8.7-6.7
		C1459.9,1031,1456.7,1034.3,1457.2,1039z"/>
	<path d="M1475.7,1057.9l0.1,1.7l-17.5,8.5l-0.1-1.9l4.7-2.2l-0.5-9.5l-4.9-1.8l-0.1-1.7L1475.7,1057.9z M1473.9,1058.8l-10-3.6
		l0.4,8.2L1473.9,1058.8z"/>
	<path d="M1476.2,1071.5l0.1,5.5c0.1,9.3-7.5,9.8-8.8,9.8c-1.3,0-9-0.2-9.1-9.6l-0.1-5.5L1476.2,1071.5z M1459.8,1073.4l0.1,3.4
		c0.1,4.8,2.4,8.4,7.6,8.3c5.1-0.1,7.4-3.8,7.3-8.6l-0.1-3.4L1459.8,1073.4z"/>
	<path d="M1476.1,1092.8l-0.1,1.7l-17.9-0.6l0.1-1.7L1476.1,1092.8z"/>
	<path d="M1475.8,1101.4l-0.2,2.1l-16.5,9.8l0,0.1l15.7,1.1l-0.1,1.7l-17.9-1.3l0.2-2.1l16.5-9.8l0-0.1l-15.7-1.1l0.1-1.7
		L1475.8,1101.4z"/>
	<path d="M1455.5,1135.9c-0.9-2.2-1.1-4.5-0.8-6.8c0.7-5.4,5.1-8.7,10.5-8c5.4,0.7,8.9,5,8.2,10.4c-0.3,2.6-1.4,4.7-3.3,6.1
		l-1.1-1.4c1.4-0.9,2.6-3,2.9-4.9c0.6-4.6-2.5-8-6.9-8.5c-4.4-0.6-8.2,1.9-8.8,6.5c-0.2,1.9-0.2,3.6,0.4,5.1l6,0.8l0.5-4.3l1.5,0.2
		l-0.8,5.9L1455.5,1135.9z"/>
	<path d="M1450.6,1161.4l-2-0.4l2.3-11.5l16.3,3.2c1.7,0.3,2.6-0.4,2.8-1.8l0,0l-1,4.9l0,0l-16.7-3.3L1450.6,1161.4z"/>
	<path d="M1453.2,1182.1c-5.5-1.4-8.7-5.9-7.4-11.3c0.4-1.3,1.7-4.3,5.7-3.5c-1.6,0.8-2.8,2.2-3.3,4c-0.9,3.7,1.6,7.1,5.7,8.1
		c4.1,1,7.9-0.7,8.8-4.5c0.9-3.7-1.6-7-5.7-8c-2-0.5-3.9-0.3-5.5,0.4l-1.5-2.3c2.1-1.2,4.8-1.5,7.6-0.8c5.6,1.4,8.7,5.9,7.4,11.3
		C1463.7,1180.9,1458.8,1183.5,1453.2,1182.1z"/>
	<path d="M1438.4,1198.2l0.8-2.7l8.6-0.5l2-6.4l-6.8-5.2l0.8-2.7l14.1,10.9c1.4,1,2.4,0.4,2.8-0.9l0,0l-0.8,2.5l0,0l-1.1,3.6
		L1438.4,1198.2z M1447.9,1195l9.4-0.6l0-0.1l-7.5-5.7L1447.9,1195z"/>
	<path d="M1441,1219.1c-5.5-2-7.8-6.4-6-11.3l2.4-6.7l15.5,5.6c1.7,0.6,2.7,0.1,3.2-1.3l0,0l-3.2,8.9
		C1451.1,1219.2,1446.6,1221.1,1441,1219.1z M1441.9,1216.5c4.6,1.7,7.9,0.1,9.4-4.1l2-5.4l-14-5l-2,5.4
		C1435.8,1211.6,1437.3,1214.8,1441.9,1216.5z"/>
	<path d="M1447.3,1228.8l-17.7-7.1l1-2.5l15.3,6.1c1.7,0.7,2.7,0.2,3.2-1.2l0,0L1447.3,1228.8z"/>
	<path d="M1438,1250.3L1438,1250.3c0.6-1.4,0.2-2.4-1.4-3.2l0,0l-15.1-6.7l1.1-2.4l21.3-1.5l-17.2-7.7l1.1-2.4l15.3,6.8
		c1.5,0.6,2.5,0.1,3.1-1.2l0,0l-2,4.5l-21.3,1.5l17.2,7.7L1438,1250.3z"/>
	<path d="M1415.2,1262.6c-2.8-1.7-3.8-5.3-0.7-6.2c1.2-0.2,2,0.2,2.6,0.8c-2.5-4-1-6.6-1-6.6c2.3-4.5,7.3-5.1,12.4-2.5
		c5.1,2.6,7.3,7.4,4.8,12.4c-3.4,6.5-10.2,4.1-10.2,4.1l0.4-2.9c0,0,5.3,2.2,7.6-2.3c1.8-3.4-0.1-6.8-3.9-8.8
		c-3.4-1.7-6.9-1.5-8.8,0.9c-1.6,2.6-0.9,5.8-0.5,7.1c0.3,0.8,0.5,1.6,0.6,2.2c0-0.1,0.1-0.2,0.1-0.2l0.4-0.7l3-5.8
		c1.2-2,3.3-0.8,3.3-0.8c1,0.5,1.3,1.7,1.4,2.8l-0.1,0c-0.2-0.9-0.6-1-0.6-1c-1.3-0.6-2,0.9-2,0.9l-2.8,5.1l0,0l0,0
		c-0.8,1.6-1.8,2.3-3,2.5c0,0-0.1,0-0.1,0c0,0,0,0,0,0c-0.3,0-0.6,0-0.9,0C1416.2,1263.2,1415.2,1262.6,1415.2,1262.6z
		 M1415.9,1262.7c0.7,0.1,1.7-0.2,2.6-2c-1.9-5.2-8.7-2.2-3.6,1.6C1415.3,1262.5,1415.6,1262.6,1415.9,1262.7z"/>
	<path d="M1421.5,1281l-0.9,1.4l-14.1-8.5l-4.3,7.2l-1.3-0.8l5.2-8.6L1421.5,1281z"/>
	<path d="M1409.6,1300.7c-3.1,4.5-8.5,5.5-13,2.4c-4.5-3.1-5.7-8.4-2.7-12.9c3.1-4.5,8.5-5.5,13-2.4
		C1411.5,1290.8,1412.7,1296.1,1409.6,1300.7z M1395.2,1291c-2.6,3.9-1.4,8.2,2.3,10.7c3.7,2.5,8.2,2,10.8-1.9
		c2.6-3.9,1.4-8.2-2.3-10.7C1402.3,1286.6,1397.8,1287.1,1395.2,1291z"/>
	<path d="M1397.2,1317.4l-1,1.4l-18.9-4.8l1.1-1.5l5,1.3l5.7-7.6l-2.6-4.5l1.1-1.4L1397.2,1317.4z M1395.3,1316.9l-5.3-9.3l-5,6.6
		L1395.3,1316.9z"/>
	<path d="M1388.7,1328.4l-3.6,4.3c-6,7.2-12.1,2.5-13.1,1.7s-6.6-6-0.7-13.2l3.6-4.3L1388.7,1328.4z M1375,1319.1l-2.2,2.6
		c-3.1,3.7-3.7,8,0.3,11.3c3.9,3.3,8.1,1.9,11.2-1.7l2.2-2.6L1375,1319.1z"/>
	<path d="M1375,1344.4l-1.1,1.2l-13.3-12l1.1-1.2L1375,1344.4z"/>
	<path d="M1369.2,1350.8l-1.5,1.5l-18.9-3.1l0,0l11.3,10.9l-1.2,1.2l-12.9-12.5l1.5-1.5l18.9,3.1l0,0l-11.3-10.9l1.2-1.2
		L1369.2,1350.8z"/>
	<path d="M1331.4,1364.1c0.7-2.3,2.1-4.1,3.8-5.7c4-3.7,9.5-3.4,13.2,0.7c3.7,4,3.6,9.5-0.4,13.2c-2,1.8-4.1,2.7-6.4,2.5l0-1.8
		c1.7,0.2,3.9-0.6,5.4-1.9c3.5-3.2,3.3-7.7,0.2-11c-3-3.3-7.5-3.8-11-0.7c-1.4,1.3-2.5,2.7-3,4.2l4.1,4.4l3.2-2.9l1,1.1l-4.4,4
		L1331.4,1364.1z"/>
	<path d="M1311.2,1380.5l-1.3-1.6l9.2-7.3l10.4,13c1.1,1.3,2.2,1.4,3.3,0.5l0,0l-3.9,3.1v0l-10.6-13.3L1311.2,1380.5z"/>
	<path d="M1299.9,1397.9c-3.4-4.6-2.9-10.1,1.6-13.4c1.1-0.7,4.1-2.2,6.6,0.9c-1.7-0.4-3.5-0.2-5.1,1c-3.1,2.3-3.3,6.4-0.9,9.8
		c2.5,3.4,6.5,4.5,9.6,2.2c3.1-2.3,3.3-6.4,0.8-9.8c-1.2-1.7-2.8-2.8-4.5-3.2l0.4-2.7c2.4,0.4,4.7,1.9,6.4,4.3
		c3.4,4.6,2.9,10.1-1.7,13.4C1308.7,1403.8,1303.3,1402.6,1299.9,1397.9z"/>
	<path d="M1278.2,1400.8l2.4-1.5l6.9,5.1l5.6-3.7l-1.9-8.4l2.4-1.5l3.7,17.4c0.4,1.6,1.5,1.9,2.7,1.1l0,0l-2.2,1.4l0,0l-3.1,2
		L1278.2,1400.8z M1287.5,1404.4l7.6,5.6l0.1,0l-2.1-9.2L1287.5,1404.4z"/>
	<path d="M1266.8,1418.5c-3-5.1-1.9-9.9,2.7-12.6l6.2-3.6l8.3,14.2c0.9,1.5,2,1.8,3.3,1l0,0l-8.2,4.8
		C1274.4,1425.1,1269.7,1423.6,1266.8,1418.5z M1269.2,1417.1c2.5,4.2,6,5.2,9.9,2.9l5-2.9l-7.5-12.9l-5,2.9
		C1267.7,1409.4,1266.7,1412.8,1269.2,1417.1z"/>
	<path d="M1265.4,1430l-9-16.8l2.3-1.3l7.8,14.5c0.8,1.6,1.9,1.8,3.2,1.1l0,0L1265.4,1430z"/>
	<path d="M1244.4,1440.4L1244.4,1440.4c1.3-0.7,1.7-1.7,0.9-3.3l0,0l-7.2-14.8l2.4-1.1l17.3,12.5l-8.2-16.9l2.4-1.2l7.3,15
		c0.8,1.4,1.8,1.7,3.1,1.1l0,0l-4.4,2.2l-17.3-12.5l8.2,16.9L1244.4,1440.4z"/>
	<path d="M1219,1435.2c-1-3.1,0.5-6.5,3.5-5.1c1,0.6,1.4,1.4,1.5,2.2c0.6-4.7,3.5-5.7,3.5-5.7c4.6-1.9,8.9,0.8,11.1,6
		c2.2,5.3,0.9,10.4-4.3,12.5c-6.8,2.9-10.4-3.4-10.4-3.4l2.1-2c0,0,2.7,5.1,7.4,3.1c3.5-1.5,4.3-5.3,2.7-9.2
		c-1.5-3.5-4.3-5.6-7.3-4.9c-2.9,1-4.4,3.8-4.9,5.1c-0.3,0.8-0.6,1.5-0.9,2.1c0.1,0,0.2-0.1,0.2-0.1l0.7-0.3l6-2.5
		c2.2-0.7,3.1,1.5,3.1,1.5c0.4,1-0.1,2.1-0.7,3.1l0,0c0.4-0.8,0.2-1.1,0.2-1.1c-0.5-1.3-2.1-0.6-2.1-0.6l-5.4,2.2l0,0l0,0
		c-1.6,0.7-2.9,0.6-3.9,0c0,0-0.1,0-0.1-0.1c0,0,0,0,0,0c-0.2-0.2-0.4-0.4-0.6-0.6C1219.4,1436.4,1219,1435.2,1219,1435.2z
		 M1219.5,1435.8c0.5,0.5,1.5,1,3.3,0.2c1.9-5.2-5.3-7.3-3.8-1.1C1219.1,1435.2,1219.3,1435.5,1219.5,1435.8z"/>
	<path d="M1212,1453.4l-1.6,0.5l-5.3-15.5l-7.9,2.7l-0.5-1.4l9.5-3.2L1212,1453.4z"/>
	<path d="M1190.3,1460.9c-5.3,1.5-10-1.2-11.5-6.5c-1.5-5.3,1-10.1,6.3-11.6c5.3-1.5,10,1.2,11.5,6.5
		C1198.1,1454.5,1195.5,1459.3,1190.3,1460.9z M1185.5,1444.2c-4.5,1.3-6.4,5.4-5.1,9.7c1.2,4.3,5,6.8,9.5,5.5
		c4.5-1.3,6.4-5.4,5.1-9.7C1193.7,1445.4,1190,1442.9,1185.5,1444.2z"/>
	<path d="M1170,1465.7l-1.7,0.4l-11.4-15.8l1.8-0.4l3,4.2l9.3-2.1l0.9-5.1l1.7-0.4L1170,1465.7z M1168.8,1464.1l1.9-10.5l-8,1.8
		L1168.8,1464.1z"/>
	<path d="M1156.4,1468.6l-5.5,1c-9.2,1.6-10.9-5.8-11.1-7.1c-0.2-1.3-1.2-8.9,8-10.5l5.5-1L1156.4,1468.6z M1151.9,1452.7l-3.4,0.6
		c-4.7,0.8-7.9,3.7-7,8.8c0.9,5.1,4.9,6.7,9.6,5.9l3.4-0.6L1151.9,1452.7z"/>
	<path d="M1135.6,1472l-1.7,0.2l-2.5-17.8l1.7-0.2L1135.6,1472z"/>
	<path d="M1127,1473.2l-2.1,0.2l-12.4-14.5l-0.1,0l1.6,15.6l-1.7,0.2l-1.8-17.8l2.1-0.2l12.4,14.5l0.1,0l-1.6-15.6l1.7-0.2
		L1127,1473.2z"/>
	<path d="M1089.6,1459.1c2-1.3,4.3-1.8,6.6-1.9c5.5-0.2,9.4,3.5,9.7,9s-3.4,9.6-8.9,9.8c-2.7,0.1-4.8-0.6-6.6-2.2l1.2-1.3
		c1.1,1.3,3.4,2.1,5.3,2c4.7-0.2,7.4-3.8,7.3-8.2c-0.2-4.5-3.3-7.8-7.9-7.6c-1.9,0.1-3.6,0.4-5,1.3l0.3,6l4.3-0.2l0.1,1.5l-6,0.3
		L1089.6,1459.1z"/>
	<path d="M1063.5,1458.6l0.1-2.1l11.7,0.3l-0.4,16.6c0,1.7,0.8,2.4,2.2,2.5l0,0l-5-0.1l0,0l0.4-17L1063.5,1458.6z"/>
	<path d="M1043.6,1464.7c0.4-5.7,4.3-9.6,9.9-9.2c1.3,0.2,4.6,1,4.4,5c-1-1.4-2.6-2.4-4.6-2.5c-3.8-0.3-6.7,2.8-7,7
		c-0.3,4.2,2.1,7.6,5.9,7.9c3.8,0.3,6.7-2.8,7-7c0.1-2.1-0.4-3.9-1.4-5.3l2-1.8c1.6,1.9,2.3,4.4,2.1,7.4c-0.4,5.7-4.3,9.6-9.9,9.2
		C1046.5,1474.9,1043.2,1470.5,1043.6,1464.7z"/>
	<path d="M1025.1,1453l2.8,0.3l2,8.3l6.7,0.8l4-7.6l2.8,0.3l-8.4,15.7c-0.7,1.5,0,2.4,1.4,2.6l0,0l-2.6-0.3l0,0l-3.7-0.4
		L1025.1,1453z M1030,1461.8l2.2,9.2l0.1,0l4.3-8.4L1030,1461.8z"/>
	<path d="M1005,1459.2c1-5.8,4.9-8.8,10.1-7.9l7,1.2l-2.8,16.2c-0.3,1.8,0.4,2.7,1.8,2.9l0,0l-9.3-1.6
		C1006.7,1469.1,1004,1465,1005,1459.2z M1007.8,1459.6c-0.8,4.8,1.3,7.8,5.7,8.6l5.7,1l2.5-14.7l-5.7-1
		C1011.6,1452.8,1008.6,1454.8,1007.8,1459.6z"/>
	<path d="M996.5,1467.1l3.9-18.7l2.6,0.5l-3.4,16.1c-0.4,1.7,0.3,2.7,1.7,3l0,0L996.5,1467.1z"/>
	<path d="M973.7,1461.6L973.7,1461.6c1.4,0.3,2.4-0.2,2.9-2l0,0l4-16l2.5,0.6l5.2,20.7l4.6-18.2l2.6,0.6l-4.1,16.2
		c-0.3,1.6,0.3,2.5,1.7,2.8l0,0l-4.8-1.2l-5.2-20.7l-4.6,18.3L973.7,1461.6z"/>
	<path d="M957.7,1441.3c1.2-3,4.5-4.7,6-1.7c0.4,1.1,0.2,2-0.3,2.7c3.5-3.2,6.4-2.2,6.4-2.2c4.8,1.5,6.3,6.3,4.6,11.8
		c-1.7,5.5-6,8.5-11.4,6.8c-7-2.2-5.8-9.3-5.8-9.3l2.9-0.1c0,0-1.2,5.6,3.6,7.1c3.7,1.1,6.7-1.3,8-5.3c1.1-3.6,0.3-7-2.5-8.5
		c-2.8-1.1-5.8,0.1-7.1,0.8c-0.7,0.4-1.5,0.8-2,1c0.1,0,0.2,0.1,0.3,0.1l0.7,0.3l6.3,1.9c2.2,0.9,1.4,3.1,1.4,3.1
		c-0.3,1.1-1.5,1.6-2.5,1.9l0-0.1c0.8-0.4,0.9-0.8,0.9-0.8c0.4-1.3-1.2-1.8-1.2-1.8l-5.5-1.8l0,0l0,0c-1.7-0.5-2.6-1.4-3-2.5
		c0,0,0-0.1,0-0.1c0,0,0,0,0,0c-0.1-0.3-0.1-0.6-0.1-0.8C957.2,1442.4,957.7,1441.3,957.7,1441.3z M957.7,1442
		c0.1,0.7,0.5,1.7,2.4,2.3c4.8-2.8,0.7-8.9-2.2-3.2C957.7,1441.4,957.7,1441.7,957.7,1442z"/>
	<path d="M940.6,1450.7l-1.6-0.6l5.9-15.3l-7.8-3l0.5-1.4l9.4,3.6L940.6,1450.7z"/>
	<path d="M919.1,1442.4c-5-2.2-6.9-7.4-4.7-12.4c2.2-5,7.3-7.1,12.3-4.9c5,2.2,6.9,7.4,4.7,12.4
		C929.2,1442.6,924.1,1444.7,919.1,1442.4z M926.2,1426.6c-4.3-1.9-8.4,0.1-10.2,4.1c-1.8,4.1-0.5,8.4,3.7,10.3
		c4.3,1.9,8.4-0.1,10.2-4.1C931.7,1432.8,930.5,1428.5,926.2,1426.6z"/>
	<path d="M900.5,1433.1l-1.5-0.8l1.4-19.4l1.7,0.9l-0.4,5.1l8.5,4.3l4-3.3l1.6,0.8L900.5,1433.1z M900.7,1431.1l8.2-6.9l-7.3-3.7
		L900.7,1431.1z"/>
	<path d="M888.2,1426.6l-4.8-2.8c-8.1-4.7-4.6-11.5-3.9-12.6c0.7-1.1,4.8-7.6,12.9-2.9l4.8,2.8L888.2,1426.6z M895,1411.6l-3-1.7
		c-4.1-2.4-8.5-2.2-11.1,2.2c-2.6,4.5-0.5,8.3,3.6,10.7l3,1.7L895,1411.6z"/>
	<path d="M870.1,1415.9l-1.4-0.9l9.5-15.2l1.4,0.9L870.1,1415.9z"/>
	<path d="M862.8,1411.3l-1.8-1.2l-0.2-19.1l0,0l-8.9,13l-1.4-0.9l10.1-14.8l1.8,1.2l0.2,19.1l0,0l8.9-13l1.4,0.9L862.8,1411.3z"/>
	<path d="M843.2,1376.4c2.4,0.3,4.4,1.4,6.3,2.8c4.3,3.3,5,8.8,1.6,13.1c-3.3,4.3-8.8,5.2-13.1,1.8c-2.1-1.6-3.3-3.6-3.6-5.9
		l1.7-0.3c0.1,1.7,1.3,3.8,2.8,5c3.7,2.9,8.1,1.9,10.9-1.6s2.5-8-1.2-10.9c-1.5-1.2-3.1-2-4.6-2.2l-3.7,4.8l3.4,2.6l-0.9,1.2
		l-4.7-3.6L843.2,1376.4z"/>
	<path d="M823.6,1359.3l1.4-1.6l8.8,7.8l-11,12.4c-1.1,1.3-1,2.4,0.1,3.3l0,0l-3.7-3.3h0l11.3-12.7L823.6,1359.3z"/>
	<path d="M804.4,1351.2c4-4.1,9.4-4.6,13.5-0.7c0.9,1,2.9,3.7,0.2,6.7c0.1-1.8-0.4-3.5-1.9-4.9c-2.8-2.7-6.9-2.2-9.8,0.8
		c-2.9,3-3.3,7.2-0.5,9.9c2.8,2.7,6.9,2.2,9.8-0.9c1.4-1.5,2.3-3.2,2.4-5l2.7-0.1c0,2.4-1.1,4.9-3.1,7c-4,4.1-9.5,4.6-13.5,0.7
		C800.1,1360.8,800.4,1355.3,804.4,1351.2z"/>
	<path d="M797.8,1330.2l1.9,2.1l-3.8,7.7l4.6,4.9l8-3.3l1.9,2.1l-16.5,6.7c-1.5,0.7-1.6,1.8-0.6,2.9l0,0l-1.8-1.9l0,0l-2.5-2.7
		L797.8,1330.2z M795.9,1340.1l-4.2,8.4l0,0l8.7-3.6L795.9,1340.1z"/>
	<path d="M778.4,1322c4.5-3.8,9.4-3.6,12.9,0.5l4.6,5.5l-12.6,10.6c-1.4,1.1-1.4,2.3-0.5,3.4l0,0l-6.1-7.2
		C773.3,1330.7,773.9,1325.9,778.4,1322z M780.2,1324.2c-3.8,3.2-4.1,6.8-1.2,10.2l3.7,4.4l11.4-9.6l-3.7-4.4
		C787.6,1321.4,784,1321,780.2,1324.2z"/>
	<path d="M766.9,1322.7l15-11.8l1.6,2.1l-13,10.2c-1.4,1.1-1.5,2.2-0.6,3.4l0,0L766.9,1322.7z"/>
	<path d="M752.9,1303.8L752.9,1303.8c0.9,1.2,2,1.4,3.5,0.3l0,0l13.4-9.7l1.5,2.1l-9.3,19.2l15.2-11l1.6,2.1l-13.5,9.8
		c-1.3,1-1.4,2.1-0.5,3.2l0,0l-2.9-4l9.4-19.2l-15.3,11L752.9,1303.8z"/>
	<path d="M753.7,1278c2.9-1.5,6.5-0.7,5.7,2.5c-0.4,1.1-1.1,1.6-1.9,1.8c4.7-0.2,6.3,2.4,6.3,2.4c2.7,4.2,0.8,8.9-4,12
		c-4.8,3.1-10.1,2.7-13.1-2.1c-4-6.2,1.5-10.9,1.5-10.9l2.3,1.8c0,0-4.6,3.5-1.8,7.8c2.1,3.2,6,3.3,9.5,1c3.2-2.1,4.8-5.2,3.6-8
		c-1.4-2.7-4.5-3.6-5.9-3.9c-0.8-0.1-1.6-0.4-2.2-0.5c0,0.1,0.1,0.1,0.1,0.2l0.4,0.7l3.5,5.5c1.1,2-1,3.3-1,3.3
		c-1,0.6-2.1,0.3-3.1-0.2l0-0.1c0.8,0.2,1.1,0,1.1,0c1.2-0.8,0.2-2.2,0.2-2.2l-3.1-5l0,0l0,0c-1-1.5-1.1-2.8-0.7-3.8
		c0,0,0-0.1,0-0.1c0,0,0,0,0,0c0.1-0.3,0.3-0.5,0.5-0.7C752.6,1278.5,753.7,1278,753.7,1278z M753.2,1278.5
		c-0.4,0.6-0.7,1.6,0.4,3.3c5.5,0.9,6.3-6.4,0.4-3.9C753.7,1278.1,753.4,1278.3,753.2,1278.5z"/>
	<path d="M734.5,1274.2l-0.8-1.5l14.4-7.9l-4-7.3l1.3-0.7l4.8,8.8L734.5,1274.2z"/>
	<path d="M723.4,1254.1c-2.4-4.9-0.5-10.1,4.4-12.5c4.9-2.4,10.1-0.7,12.6,4.2c2.4,4.9,0.5,10.1-4.4,12.5
		C731.1,1260.7,725.9,1259,723.4,1254.1z M739,1246.5c-2.1-4.2-6.4-5.3-10.5-3.3c-4,2-5.8,6.1-3.8,10.3c2.1,4.2,6.4,5.3,10.5,3.3
		C739.3,1254.8,741.1,1250.7,739,1246.5z"/>
	<path d="M715.2,1235l-0.7-1.6l13.6-13.9l0.7,1.7l-3.6,3.7l3.7,8.7l5.2,0l0.7,1.6L715.2,1235z M716.6,1233.5l10.7,0l-3.2-7.6
		L716.6,1233.5z"/>
	<path d="M709.9,1222.1l-1.9-5.2c-3.2-8.8,3.9-11.7,5.1-12.2c1.2-0.5,8.6-2.7,11.8,6l1.9,5.2L709.9,1222.1z M724.8,1214.9l-1.2-3.2
		c-1.6-4.5-5.1-7.2-9.9-5.4c-4.8,1.8-5.7,6-4.1,10.5l1.2,3.2L724.8,1214.9z"/>
	<path d="M702.9,1202.3l-0.5-1.6l17.1-5.5l0.5,1.6L702.9,1202.3z"/>
	<path d="M700.3,1194l-0.6-2.1l12.2-14.7l0,0l-15.1,4.2l-0.5-1.6l17.3-4.8l0.6,2.1l-12.2,14.7l0,0l15.1-4.2l0.5,1.6L700.3,1194z"/>
	<path d="M707.7,1154.7c1.6,1.8,2.5,3.9,3,6.2c1.2,5.3-1.9,9.9-7.2,11.1s-10-1.7-11.2-7c-0.6-2.6-0.2-4.9,1-6.8l1.5,0.9
		c-1.1,1.3-1.5,3.7-1,5.6c1,4.6,5,6.7,9.4,5.7c4.4-1,7.1-4.5,6.1-9.1c-0.4-1.9-1-3.5-2.1-4.7l-5.9,1.3l0.9,4.2l-1.5,0.3l-1.3-5.8
		L707.7,1154.7z"/>
	<path d="M703.8,1129l2.1-0.3l1.7,11.6l-16.4,2.4c-1.7,0.3-2.3,1.2-2.1,2.6l0,0l-0.7-4.9l0,0l16.8-2.5L703.8,1129z"/>
	<path d="M694.3,1110.4c5.7-0.6,10.2,2.6,10.8,8.2c0.1,1.3-0.2,4.7-4.1,5.2c1.3-1.3,1.9-3,1.7-4.9c-0.4-3.8-3.9-6.1-8.1-5.7
		c-4.2,0.4-7.2,3.4-6.8,7.2c0.4,3.8,3.9,6.1,8.1,5.7c2.1-0.2,3.8-1,5-2.3l2.2,1.7c-1.6,1.9-4,3.1-6.9,3.4
		c-5.7,0.6-10.2-2.6-10.8-8.2C684.9,1115.1,688.6,1111,694.3,1110.4z"/>
	<path d="M702.8,1090.2l0.1,2.8l-7.9,3.4l0.3,6.7l8.2,2.6l0.1,2.8l-16.9-5.6c-1.6-0.5-2.4,0.4-2.3,1.8l0,0l-0.1-2.6l0,0l-0.2-3.7
		L702.8,1090.2z M695,1096.5l-8.7,3.7l0,0.1l9,2.9L695,1096.5z"/>
	<path d="M693.1,1071.7c5.9-0.1,9.6,3.2,9.7,8.5l0.1,7.1l-16.5,0.3c-1.8,0-2.5,0.9-2.5,2.3l0,0l-0.2-9.4
		C683.6,1075.1,687.2,1071.8,693.1,1071.7z M693.2,1074.5c-4.9,0.1-7.4,2.7-7.4,7.2l0.1,5.8l14.9-0.2l-0.1-5.8
		C700.6,1076.9,698.1,1074.4,693.2,1074.5z"/>
	<path d="M684,1064.5l19.1,0.6l-0.1,2.7l-16.5-0.6c-1.8-0.1-2.6,0.7-2.6,2.2l0,0L684,1064.5z"/>
	<path d="M685.5,1041.2L685.5,1041.2c-0.1,1.5,0.6,2.4,2.4,2.5v0l16.4,1.2l-0.2,2.6l-19.5,8.7l18.7,1.4l-0.2,2.6l-16.7-1.2
		c-1.6,0-2.4,0.7-2.5,2.1l0,0l0.4-4.9l19.5-8.7l-18.8-1.4L685.5,1041.2z"/>
	<path d="M702.7,1021.8c3.2,0.7,5.4,3.7,2.7,5.6c-1,0.6-1.9,0.5-2.7,0.2c3.8,2.9,3.2,5.9,3.2,5.9c-0.6,5-5.1,7.3-10.8,6.6
		c-5.7-0.7-9.4-4.4-8.7-10c0.9-7.3,8.2-7.3,8.2-7.3l0.6,2.8c0,0-5.7-0.3-6.4,4.8c-0.5,3.8,2.5,6.4,6.6,6.9c3.8,0.5,7-0.9,7.9-3.9
		c0.6-3-1.1-5.7-2-6.8c-0.6-0.6-1-1.3-1.3-1.8c0,0.1,0,0.2,0,0.3l-0.1,0.8l-0.8,6.5c-0.5,2.3-2.9,1.9-2.9,1.9
		c-1.1-0.1-1.8-1.2-2.3-2.1l0.1,0c0.5,0.7,0.9,0.7,0.9,0.7c1.4,0.2,1.6-1.5,1.6-1.5l0.8-5.8l0,0l0,0c0.2-1.8,0.9-2.8,1.9-3.3
		c0,0,0.1,0,0.1-0.1c0,0,0,0,0,0c0.3-0.1,0.5-0.2,0.8-0.2C701.5,1021.6,702.7,1021.8,702.7,1021.8z M702,1022
		c-0.7,0.2-1.6,0.8-1.8,2.7c3.6,4.2,8.9-0.9,2.8-2.7C702.6,1021.9,702.3,1021.9,702,1022z"/>
	<path d="M690.4,1006.7l0.3-1.6l16.1,3.2l1.6-8.2l1.5,0.3l-1.9,9.8L690.4,1006.7z"/>
	<path d="M694.9,984.1c1.3-5.3,6.1-8,11.4-6.7c5.3,1.3,8.2,6,6.9,11.3c-1.3,5.3-6.1,8-11.4,6.7C696.5,994.1,693.6,989.4,694.9,984.1
		z M711.7,988.3c1.1-4.5-1.5-8.2-5.8-9.3c-4.3-1.1-8.4,0.9-9.5,5.5c-1.1,4.5,1.5,8.2,5.8,9.3C706.5,994.8,710.6,992.9,711.7,988.3z"
		/>
	<path d="M700.9,964.2l0.5-1.6l19.4-1.9l-0.6,1.8l-5.1,0.5l-2.8,9.1l4,3.3l-0.5,1.7L700.9,964.2z M702.9,964l8.2,6.9l2.4-7.9
		L702.9,964z"/>
	<path d="M705.1,951l1.9-5.2c3.2-8.8,10.5-6.5,11.8-6c1.2,0.5,8.3,3.4,5.1,12.2l-1.9,5.2L705.1,951z M721.1,955l1.2-3.2
		c1.6-4.5,0.7-8.7-4.1-10.5c-4.8-1.8-8.3,0.9-9.9,5.4l-1.2,3.2L721.1,955z"/>
	<path d="M712.6,931.3l0.6-1.5l16.6,6.8l-0.6,1.5L712.6,931.3z"/>
	<path d="M715.8,923.2l0.9-2l18.8-3.5l0,0l-14.3-6.5l0.7-1.5l16.3,7.4l-0.9,2l-18.8,3.5l0,0l14.3,6.5l-0.7,1.5L715.8,923.2z"/>
	<path d="M746.9,897.9c0.1,2.4-0.6,4.6-1.7,6.7c-2.5,4.8-7.8,6.4-12.7,3.8c-4.9-2.5-6.6-7.7-4.1-12.6c1.2-2.4,3-3.9,5.2-4.6l0.6,1.7
		c-1.7,0.4-3.5,1.9-4.4,3.6c-2.2,4.2-0.5,8.3,3.5,10.4c4,2.1,8.4,1.1,10.5-3.1c0.9-1.7,1.5-3.3,1.4-4.9l-5.3-2.8l-2,3.8l-1.3-0.7
		l2.8-5.3L746.9,897.9z"/>
	<path d="M760.4,875.7l1.8,1.1l-6.1,10l-14.1-8.7c-1.5-0.9-2.5-0.5-3.3,0.7l0,0l2.6-4.2v0l14.5,8.9L760.4,875.7z"/>
	<path d="M765.1,855.4c4.7,3.2,6.1,8.5,3,13.2c-0.8,1.1-3.1,3.4-6.5,1.3c1.8-0.2,3.4-1,4.5-2.7c2.2-3.2,1-7.2-2.5-9.5
		c-3.5-2.4-7.6-2-9.8,1.2c-2.2,3.2-0.9,7.1,2.6,9.5c1.7,1.2,3.6,1.7,5.3,1.5l0.6,2.7c-2.4,0.4-5-0.2-7.4-1.9
		c-4.8-3.2-6.2-8.5-3-13.2C754.8,852.9,760.3,852.2,765.1,855.4z"/>
	<path d="M784.6,845.4l-1.7,2.3l-8.2-2.5l-4.1,5.3l4.6,7.3l-1.7,2.2l-9.4-15.1c-0.9-1.4-2.1-1.2-2.9-0.1l0,0l1.6-2.1l0,0l2.2-3
		L784.6,845.4z M774.5,845.2l-9-2.7l0,0.1l5.1,8L774.5,845.2z"/>
	<path d="M789.4,824.9c4.5,3.8,5.2,8.7,1.7,12.7l-4.6,5.5l-12.6-10.6c-1.4-1.1-2.5-1-3.4,0.1l0,0l6.1-7.2
		C779.9,821.3,784.8,821.1,789.4,824.9z M787.6,827c-3.8-3.2-7.4-2.8-10.3,0.6l-3.7,4.4l11.4,9.6l3.7-4.4
		C791.6,833.8,791.3,830.2,787.6,827z"/>
	<path d="M786.8,813.6l14.2,12.8l-1.8,2l-12.3-11c-1.3-1.2-2.4-1.1-3.4,0l0,0L786.8,813.6z"/>
	<path d="M802.9,796.7L802.9,796.7c-1,1.1-1,2.2,0.2,3.5h0l11.8,11.5l-1.8,1.9l-20.5-5.9l13.5,13.1l-1.9,1.9l-12-11.6
		c-1.2-1.1-2.3-1-3.3,0l0,0l3.4-3.5l20.5,5.9l-13.5-13.1L802.9,796.7z"/>
	<path d="M828.6,793c2,2.5,1.8,6.3-1.5,6c-1.2-0.2-1.8-0.8-2.1-1.6c1,4.6-1.3,6.6-1.3,6.6c-3.7,3.4-8.6,2.3-12.5-1.9
		c-3.9-4.2-4.3-9.4-0.2-13.3c5.4-5,11-0.4,11-0.4l-1.3,2.6c0,0-4.2-3.9-8-0.4c-2.8,2.6-2.2,6.5,0.6,9.6c2.6,2.8,5.9,3.8,8.5,2.1
		c2.4-1.9,2.8-5.1,2.9-6.5c0-0.8,0.1-1.7,0.1-2.2c-0.1,0.1-0.1,0.1-0.2,0.2l-0.6,0.5l-4.8,4.4c-1.8,1.4-3.4-0.4-3.4-0.4
		c-0.8-0.8-0.6-2-0.4-3.1l0.1,0c-0.1,0.9,0.2,1.1,0.2,1.1c1,1,2.2-0.1,2.2-0.1l4.4-3.9l0,0l0,0c1.3-1.2,2.5-1.6,3.6-1.3
		c0,0,0.1,0,0.1,0c0,0,0,0,0,0c0.3,0.1,0.5,0.2,0.8,0.3C827.8,792,828.6,793,828.6,793z M827.9,792.6c-0.6-0.3-1.7-0.4-3.2,0.9
		c0,5.6,7.4,5.1,3.9-0.3C828.5,793,828.2,792.8,827.9,792.6z"/>
	<path d="M829,773.5l1.3-1l10.3,12.8l6.5-5.2l1,1.2l-7.8,6.3L829,773.5z"/>
	<path d="M846.9,759.1c4.4-3.2,9.8-2.3,13.1,2.2c3.2,4.4,2.5,9.9-2,13.1s-9.8,2.3-13.1-2.2C841.7,767.8,842.5,762.3,846.9,759.1z
		 M857.1,773.1c3.8-2.8,4.1-7.3,1.5-10.9c-2.6-3.6-7-4.7-10.8-1.9c-3.8,2.8-4.1,7.3-1.5,10.9C848.9,774.8,853.3,775.9,857.1,773.1z"
		/>
	<path d="M864.3,747.7l1.4-0.9l16.1,11l-1.6,1l-4.2-2.9l-8,5.2l0.9,5.1l-1.5,0.9L864.3,747.7z M866,748.8l1.8,10.5l6.9-4.5
		L866,748.8z"/>
	<path d="M876.1,740.3l4.8-2.8c8.1-4.7,12.2,1.8,12.9,2.9s4.2,8-3.9,12.6l-4.8,2.8L876.1,740.3z M885.7,753.7l3-1.7
		c4.1-2.4,6.2-6.2,3.6-10.7s-6.9-4.6-11.1-2.2l-3,1.7L885.7,753.7z"/>
	<path d="M894.4,730l1.5-0.8l8.4,15.9l-1.5,0.8L894.4,730z"/>
	<path d="M902.1,726l1.9-0.9l16.7,9.4l0,0l-6.8-14.2l1.5-0.7l7.8,16.2l-1.9,0.9l-16.7-9.4l0,0l6.8,14.2l-1.5,0.7L902.1,726z"/>
	<path d="M942.1,726.5c-1.5,1.9-3.4,3.2-5.6,4c-5.1,2.1-10.1-0.1-12.2-5.2s-0.1-10.2,5-12.2c2.5-1,4.8-1.1,6.9-0.2l-0.6,1.6
		c-1.5-0.8-3.9-0.8-5.7-0.1c-4.3,1.8-5.7,6.1-4,10.2c1.7,4.1,5.7,6.2,10,4.4c1.8-0.7,3.3-1.6,4.2-2.9l-2.3-5.6l-4,1.6l-0.6-1.4
		l5.5-2.3L942.1,726.5z"/>
	<path d="M966.8,718.1l0.7,2l-11.1,3.7l-5.2-15.7c-0.6-1.6-1.6-2-3-1.6l0,0l4.7-1.6l0,0l5.4,16.1L966.8,718.1z"/>
	<path d="M983.5,705.6c1.6,5.5-0.8,10.4-6.2,12c-1.3,0.3-4.6,0.6-5.9-3.2c1.5,1,3.3,1.4,5.1,0.8c3.7-1,5.3-4.9,4.2-8.9
		c-1.1-4.1-4.5-6.5-8.3-5.4c-3.7,1-5.3,4.9-4.2,8.9c0.6,2,1.7,3.6,3.1,4.6l-1.3,2.4c-2.1-1.2-3.7-3.4-4.5-6.2
		c-1.6-5.5,0.8-10.5,6.2-12C977.3,697.1,981.9,700.1,983.5,705.6z"/>
	<path d="M1004.9,710.5l-2.8,0.6l-4.7-7.2l-6.6,1.5l-1.2,8.5l-2.7,0.6l2.6-17.6c0.2-1.7-0.8-2.3-2.2-2l0,0l2.6-0.6v0l3.6-0.8
		L1004.9,710.5z M997.3,703.8l-5.2-7.9l-0.1,0l-1.3,9.3L997.3,703.8z"/>
	<path d="M1021.7,697.8c1,5.8-1.6,10-6.9,10.9l-7,1.2l-2.8-16.2c-0.3-1.8-1.3-2.4-2.7-2.1l0,0l9.3-1.6
		C1016.8,689,1020.7,692,1021.7,697.8z M1018.9,698.3c-0.8-4.8-3.8-6.9-8.2-6.1l-5.7,1l2.6,14.7l5.7-1
		C1017.7,706.1,1019.8,703.2,1018.9,698.3z"/>
	<path d="M1027,687.5l2.6,18.9l-2.6,0.4l-2.3-16.3c-0.2-1.8-1.2-2.4-2.6-2.2l0,0L1027,687.5z"/>
	<path d="M1050.3,685L1050.3,685c-1.5,0.2-2.2,1-2,2.8l0,0l1.6,16.4l-2.6,0.3l-11.9-17.7l1.9,18.7l-2.6,0.3l-1.7-16.6
		c-0.2-1.6-1.1-2.2-2.5-2.1l0,0l4.9-0.5l11.9,17.7l-1.9-18.7L1050.3,685z"/>
	<path d="M1072.3,698.7c-0.1,3.2-2.7,5.9-5,3.6c-0.7-0.9-0.8-1.8-0.6-2.6c-2.2,4.2-5.2,4.2-5.2,4.2c-5,0.2-8.1-3.8-8.3-9.5
		c-0.3-5.7,2.8-10,8.4-10.3c7.4-0.3,8.6,6.8,8.6,6.8l-2.7,1.1c0,0-0.7-5.7-5.8-5.5c-3.8,0.2-5.9,3.5-5.7,7.7
		c0.2,3.8,2.1,6.7,5.2,7.1c3.1,0.1,5.4-2.1,6.4-3.1c0.5-0.7,1.1-1.2,1.6-1.6c-0.1,0-0.2,0-0.3,0l-0.8,0l-6.6,0.3
		c-2.3-0.1-2.4-2.5-2.4-2.5c-0.1-1.1,0.8-2,1.7-2.6l0,0.1c-0.6,0.6-0.6,1-0.6,1c0.1,1.4,1.8,1.3,1.8,1.3l5.8-0.2l0,0l0,0
		c1.8-0.1,2.9,0.4,3.6,1.3c0,0,0.1,0.1,0.1,0.1c0,0,0,0,0,0c0.2,0.2,0.3,0.5,0.4,0.8C1072.3,697.4,1072.3,698.7,1072.3,698.7z
		 M1072,698c-0.3-0.6-1-1.4-3-1.3c-3.6,4.3,2.4,8.6,3.2,2.3C1072.2,698.6,1072.1,698.3,1072,698z"/>
</g>
</svg>
