<?xml version="1.0" encoding="utf-8"?>
<!-- Generator: Adobe Illustrator 25.2.3, SVG Export Plug-In . SVG Version: 6.00 Build 0)  -->
<svg version="1.1" id="レイヤー_1" xmlns="http://www.w3.org/2000/svg" xmlns:xlink="http://www.w3.org/1999/xlink" x="0px"
	 y="0px" viewBox="0 0 2160 2160" style="enable-background:new 0 0 2160 2160;" xml:space="preserve">
<g>
	<g>
		<path d="M1126.9,493.9l0,0.4l-46.6-3.9l0-0.4c7.3-1.4,13.5-2.5,17.1-5.4c2.3-1.8,9-42.8,11.3-58.3l0.8-5.1l0.4,0
			c0.1,16.5-0.8,62.6,1,64.5C1114,489.3,1124.6,492.9,1126.9,493.9z M1090.4,366.3l0-0.4l46.8,3.9l0,0.4c-3.3,0.4-13.5,2.3-17.1,5.2
			c-2.7,2.1-6.2,16.1-9.6,35.2l-0.4,0c-0.2-5.9,0.4-32.4-3.6-36.6C1103.5,370.4,1093.6,367.3,1090.4,366.3z M1180.8,498.8l-38.3-3
			l0-0.4l4.3,0.2c19.4,1.3,24.6-0.6,28.3-6.2c3.5-5.1,5.1-10,7.3-14.8l0.4,0c-0.7,10-1.1,15.8-1.6,23.9
			C1181.1,498.7,1180.9,498.8,1180.8,498.8z"/>
		<path d="M1253.3,388.6l-0.1,0.3c-26-6.3-49.7,20.5-57.2,49.2c-7.5,28.6-0.1,63.6,25.7,70.9l-0.1,0.3
			c-27.4-7.6-44.2-36.9-34.6-73.6C1196.8,398.5,1225.7,381.7,1253.3,388.6z M1240,514.2l0.1-0.3c26,6.3,49.7-20.5,57.2-49.2
			c7.5-28.6,0.1-63.6-25.7-70.9l0.1-0.3c27.4,7.6,44.4,36.4,34.6,73.6C1296.6,503.8,1267.5,521.1,1240,514.2z"/>
		<path d="M1318.5,541.8l-0.2,0.3l-44.5-21.3l0.2-0.3c6.7,1.4,15.5,3.2,17.7,2.3c3.4-1.3,22.8-24.3,39.4-43.4l24.2-27.8l0.3,0.2
			l-21.4,31.1c-14.1,20-30.7,42.9-29.9,45C1306,532.6,1315.3,539.3,1318.5,541.8z M1383.3,503.2l-0.2,0.3
			c-7.1-1.8-16.5-4.5-22.9-7.6c-7.1-3.4-12.2-7.6-18.5-12.2l0.2-0.3c7.1,2,14.6,3.4,21.4,6.7C1370.4,493.4,1377,498.6,1383.3,503.2z
			 M1389.3,509.2l0.3,0.2c-4.3,24.7-8,53.5-6.9,57c0.7,2.3,7.6,8,12.9,12.3l-0.2,0.3l-44.5-21.3l0.2-0.3c3.9,0.9,14.9,4,19.7,2.3
			C1372.8,559,1382.7,531.3,1389.3,509.2z M1405.1,453.6c-5.9,12.4-9.8,34.1-13.7,48.8l-0.3-0.2c0.6-4.2,5.8-50.6,4.6-53.8
			c-1.2-2.5-22.3-16.2-32.2-22.9l0.2-0.3l60.2,28.8l-0.2,0.3c-4.7-0.5-15.1-2.3-17.7-1.5C1405.6,453.1,1405.2,453.3,1405.1,453.6z"
			/>
		<path d="M1423.5,601.8l-0.2,0.3l-37.3-28.2l0.2-0.3c6.9,2.7,12.7,5.1,17.3,4.6c2.9-0.3,30.4-31.4,40.8-43.2l3.4-3.9l0.3,0.2
			c-8.8,14-34.1,52.5-33.6,55.1C1415.1,591,1422.2,599.7,1423.5,601.8z M1441.8,616l0.2-0.3c22.4,16.3,54.9,0.8,72.8-22.8
			c17.9-23.6,23.9-59.1,2.1-76.2l0.2-0.3c23.1,17.9,28.6,51.6,5.3,82.3C1499.6,629,1465.4,633.4,1441.8,616z M1461,474.4l0.2-0.3
			l37.5,28.3l-0.2,0.3c-3-1.4-12.6-5.3-17.2-4.7c-3.4,0.3-13.9,10.3-26.9,24.6l-0.3-0.2c3-5.1,17.6-27.2,16.6-32.9
			C1469.8,484.9,1463.1,476.9,1461,474.4z"/>
		<path d="M1510,677.1l-0.2,0.3l-33.4-32.8l0.2-0.3c6.5,3.6,11.9,6.7,16.6,6.8c2.9,0.1,34.2-27.2,46-37.6l3.9-3.4l0.3,0.2
			c-10.5,12.7-40.6,47.7-40.5,50.3C1503.1,665.3,1509,674.8,1510,677.1z M1563.6,555.6l0.2-0.3l33.5,32.9l-0.3,0.3
			c-2.8-1.7-11.8-6.8-16.5-6.9c-3.4-0.1-15.1,8.5-29.9,21l-0.3-0.2c3.6-4.7,21-24.7,20.7-30.5C1571,567.1,1565.4,558.3,1563.6,555.6
			z"/>
		<path d="M1534.8,705.2l-0.3,0.2l-28.6-37l0.3-0.2c5.9,4.5,10.9,8.3,15.5,9c2.9,0.5,37.6-22.2,50.7-31l4.3-2.9l0.2,0.3
			c-12.1,11.2-46.8,41.7-47,44.3C1529.5,692.6,1534,702.9,1534.8,705.2z M1588.2,774.5l-0.3,0.2l-28.7-37.2l0.3-0.2
			c1.7,1.4,6.7,5.2,11.3,7.9c7.4-17.6,11.3-29.2,18.5-46.5l0.4,0.2c-8.1,33.7-10.5,42.8-8.7,44.8c3.3,4,22.5-11.5,26.4-14l0.2,0.3
			c-4.2,4.2-24.2,21.6-24.7,27.3C1582.4,762,1586.8,771.5,1588.2,774.5z M1604.5,592.3l0.3-0.2l28.7,37.2l-0.3,0.2
			c-1.5-1.3-5.9-4.7-10.2-7.4l-30.7,66.3l-0.4-0.2l18-51.5c2.8-8,4.1-11.7,1.8-14c-4.1-4.1-23.1,12.4-26.3,14.4l-0.2-0.3
			c4.2-4.2,24.2-21.6,24.7-27.3C1610.3,604.7,1605.9,595.2,1604.5,592.3z M1658.4,662l0.3-0.2l28.6,37l-0.3,0.2
			c-5.9-4.5-10.9-8.3-15.5-9c-2.9-0.5-37.6,22.2-50.7,31l-4.3,2.9l-0.2-0.3c12.1-11.2,46.8-41.7,47-44.3
			C1663.6,674.7,1659.1,664.4,1658.4,662z"/>
		<path d="M1718.5,760.6l-0.3,0.2c-13.4-25.4-49.7-26.6-76.2-13.3c-26.5,13.3-47.3,43.1-34.9,69l-0.3,0.2
			c-13.4-27.4-3.3-61,30.7-78.1C1672,721.3,1704.5,733.5,1718.5,760.6z M1670.3,846.9c0.1,0.2,0.1,0.6-0.2,0.7l-38.4,20.2l-0.2-0.3
			l4.4-2.8c7.3-4.6,12.1-8.9,15.4-12.3c-7.3,1.4-17.7-2.5-25.3-8.3c-5.9-4.2-10.2-10.4-13-15.2l0.3-0.2c3.1,4.6,8.6,10.8,14.8,13.9
			c10.5,5.3,26.8,4.3,29.7-0.9c0.2-0.7,0.3-1.4,0.4-2c0.6-5.1-8.5-33.3-8.8-35.7l0.5-0.2L1670.3,846.9z M1701,827.1l-0.2-0.3
			c1.6-1.6,22.7-15.6,25-19.3c2.1-3.4,6.5-11.3-0.1-29.3l-1.5-4.2l0.3-0.2l13.5,34.8c0.1,0.2,0,0.4-0.2,0.5L1701,827.1z"/>
		<path d="M1653.6,943.9l-0.3,0.1l-10.5-45.5l0.3-0.1c3.5,6.5,6.5,12.1,10.3,14.6c2.4,1.6,43.5-4.5,59-7l5.1-0.8l0.1,0.3
			c-15.7,5.1-59.9,18.4-61.2,20.7C1654.1,930.2,1654,941.4,1653.6,943.9z M1665.4,996.6l-8.8-37.3l0.3-0.1l1.1,4.1
			c4.7,18.9,8.1,23.2,14.6,25c5.9,1.8,11.1,1.8,16.3,2.5l0.1,0.3c-9.7,2.4-15.4,3.7-23.2,5.7C1665.7,997,1665.5,996.8,1665.4,996.6z
			 M1764.2,870.3l0.3-0.1l10.6,45.7l-0.3,0.1c-1.4-3-6.3-12.1-10.2-14.7c-2.8-1.9-17.3-1-36.5,1.6l-0.1-0.3c5.6-2,31-9.5,33.8-14.6
			C1764.2,884,1764.2,873.5,1764.2,870.3z"/>
		<path d="M1792.6,1032l-0.4,0c-2-26.7-34.8-41-64.4-39.4c-29.6,1.6-60.7,19.3-59.8,46.1l-0.4,0c-1.2-28.3,21.6-53.3,59.6-55.4
			C1765.9,981.2,1790.7,1003.7,1792.6,1032z M1668.8,1057.7l0.4,0c2,26.7,34.8,41,64.4,39.4c29.6-1.6,60.7-19.3,59.8-46.1l0.4,0
			c1.2,28.3-21.1,53.3-59.6,55.4C1696,1108.4,1670.7,1086,1668.8,1057.7z"/>
		<path d="M1719.6,1198.2l0,0.4c-24.8,3.5-53.4,8.9-56.4,11c-2,1.4-5.3,9.7-7.7,16.1l-0.4,0l6.5-48.8l0.4,0c0.4,4,0.8,15.4,3.9,19.4
			C1667,1197.8,1696.4,1198.7,1719.6,1198.2z M1666.7,1140.9l-0.4,0l6.5-48.8l0.4,0c0.7,6.8,1.7,15.7,3.2,17.5
			c2.3,2.8,30.2,14.1,53.5,24.1l33.9,14.4l0,0.4l-36.2-10.8c-23.4-7.3-50.3-15.9-52.1-14.5
			C1671.5,1126.3,1668.1,1137.1,1666.7,1140.9z M1723.5,1190.6l-0.4,0c-0.5-7.3-0.8-17,0.2-24.1c1-7.8,3.5-13.9,5.9-21.4l0.4,0
			c0.3,7.4,1.2,14.9,0.3,22.4C1728.8,1175.3,1725.9,1183.2,1723.5,1190.6z M1777.3,1196c-13.6-1.8-35.5,1.2-50.7,2.1l0-0.4
			c4.2-0.7,50-10.1,52.6-12.2c2.1-1.9,8.5-26.2,11.9-37.7l0.4,0l-8.8,66.1l-0.4,0c-1-4.6-2.5-15.1-4-17.3
			C1778,1196.3,1777.7,1196,1777.3,1196z"/>
		<path d="M1634,1281l0.3,0.1c-8.6,26.3,16.2,52.5,44.2,62.2s63.6,4.5,73.2-21.4l0.3,0.1c-10,27.5-40.3,43-76.7,30.4
			C1639.4,1339.9,1624.7,1308.7,1634,1281z M1642,1259.2l-0.3-0.1l15.4-44.2l0.3,0.1c-0.5,7.4-1,13.6,1,17.9
			c1.2,2.7,39.2,19.3,53.7,25.5l4.8,2l-0.1,0.3c-16-4-60.5-16.3-62.8-15C1649.7,1247.9,1643.6,1257.3,1642,1259.2z M1774.8,1255.6
			l0.3,0.1l-15.4,44.3l-0.3-0.1c0.4-3.3,1.1-13.6-0.8-17.8c-1.4-3.1-14.1-10-31.7-18l0.1-0.3c5.8,1.3,31.3,8.4,36.4,5.7
			C1767.5,1267.3,1773.1,1258.4,1774.8,1255.6z"/>
		<path d="M1596.8,1364.5l-0.3-0.2l21-41.8l0.3,0.2c-1.4,7.3-2.7,13.4-1.4,17.9c0.8,2.8,36.4,24.2,50,32.2l4.5,2.6l-0.2,0.3
			c-15.3-6.1-57.9-24-60.4-23.1C1605.9,1354.3,1598.7,1362.9,1596.8,1364.5z M1729,1378.3l0.3,0.2l-21.1,41.9l-0.3-0.2
			c0.8-3.2,2.9-13.3,1.5-17.8c-1-3.3-12.7-11.7-29.1-22l0.2-0.3c5.6,2,29.9,12.4,35.4,10.3C1720.3,1388.9,1726.9,1380.8,1729,1378.3
			z"/>
		<path d="M1527.9,1468.7l-0.3-0.2l26.7-38.6l0.3,0.2c-0.8,2.1-2.9,8-4.1,13.2c19,1.6,31.3,1.8,49.9,3.4l-0.1,0.4
			c-34.6,2.6-44,3.1-45.4,5.4c-2.8,4.4,17.8,17.9,21.4,20.8l-0.2,0.3c-5.3-2.8-27.9-16.4-33.6-15.1
			C1538,1459.4,1530.3,1466.4,1527.9,1468.7z M1577.6,1396.7l-0.3-0.2l26.6-38.5l0.3,0.2c-2.4,7-4.6,12.9-3.8,17.5
			c0.4,2.9,32.7,29,45,38.8l4.1,3.2l-0.2,0.3c-14.3-8.1-54-31.8-56.6-31.2C1588,1387.8,1579.6,1395.3,1577.6,1396.7z M1656.5,1501.1
			l0.3,0.2l-26.6,38.5l-0.3-0.2c2.4-7,4.6-12.9,3.8-17.5c-0.4-2.9-32.7-29-45-38.8l-4.1-3.2l0.2-0.3c14.3,8.1,54,31.8,56.6,31.2
			C1646,1509.9,1654.4,1502.5,1656.5,1501.1z M1706.6,1428.5l0.3,0.2l-26.7,38.6l-0.3-0.2c0.8-1.8,2.7-7,4-12l-72.5-9l0.1-0.4
			l54.6,1.4c8.5,0.2,12.4,0.3,13.9-2.6c2.7-5.1-18.9-18.2-21.8-20.6l0.2-0.3c5.3,2.8,27.9,16.4,33.6,15.1
			C1696.5,1437.8,1704.1,1430.7,1706.6,1428.5z"/>
		<path d="M1484.1,1568.9c-0.1,0.1-0.5,0.2-0.8,0l-31-30.3l0.3-0.2l4,3.3c6.6,5.5,12.2,8.8,16.4,10.9c-3.6-6.5-3-17.6,0.1-26.6
			c2.2-6.9,6.8-12.9,10.5-17.1l0.2,0.3c-3.4,4.4-7.7,11.5-8.8,18.3c-1.9,11.6,4.1,26.8,10,28c0.8,0,1.4-0.1,2-0.2
			c5.1-1,29.1-18.3,31.4-19.3l0.4,0.4L1484.1,1568.9z M1581,1588.3l-0.3-0.3c20.1-20.5,10.1-55.4-10.7-76.6
			c-20.8-21.1-55.5-31.8-76.4-12l-0.3-0.3c22-21.1,57.2-21.8,83.8,5.3C1604.3,1532,1602.6,1566.7,1581,1588.3z M1512.3,1592l0.3-0.2
			c2,1,21.8,16.8,26.1,17.9c3.9,0.9,12.7,2.8,27.9-9.1l3.6-2.7l0.3,0.3l-29,23.5c-0.1,0.1-0.4,0.1-0.5,0L1512.3,1592z"/>
		<path d="M1340,1610.5l32.8-19.9l0.2,0.3l-3.6,2.4c-16.5,10.3-19.6,14.9-19.3,21.6c0.2,6.2,1.7,11.1,2.7,16.3l-0.3,0.2
			c-5.3-8.5-8.3-13.5-12.6-20.3C1339.8,1610.8,1339.8,1610.5,1340,1610.5z M1386.5,1582.9l-0.2-0.3l40.1-24.1l0.2,0.3
			c-5.1,5.4-9.5,9.9-10.7,14.4c-0.8,2.8,17.7,39.9,24.9,53.9l2.4,4.6l-0.3,0.2c-9.7-13.3-36-51.2-38.6-51.8
			C1399.7,1579.2,1389,1582.5,1386.5,1582.9z M1490.8,1665.3l0.2,0.3l-40.3,24.1l-0.2-0.3c2.4-2.3,9.6-9.7,10.8-14.2
			c0.9-3.3-4.4-16.7-12.8-34.1l0.3-0.2c3.6,4.7,18.6,26.5,24.3,27.7C1477.7,1669.6,1487.7,1666.3,1490.8,1665.3z"/>
		<path d="M1282.8,1632.5l0.1,0.3c-24.8,10.1-28.4,45.7-17.7,73.3s37.1,51.7,62.3,42.6l0.1,0.3c-26.6,9.8-57.3-3.6-71.1-39.6
			C1242.9,1674,1256.5,1643,1282.8,1632.5z M1345.5,1742.3l-0.1-0.3c24.8-10.1,28.4-45.7,17.7-73.3c-10.6-27.6-37.1-51.7-62.3-42.6
			l-0.1-0.3c26.6-9.8,57.5,4.1,71.1,39.6C1385.6,1701.3,1371.9,1731.8,1345.5,1742.3z"/>
		<path d="M1164.6,1723.7l-0.4,0.1c-10.9-22.5-24.8-48.1-27.7-50.3c-1.9-1.5-10.9-2-17.7-2.5l-0.1-0.4l48.5-8.7l0.1,0.4
			c-3.7,1.6-14.4,5.5-17.3,9.6C1148.9,1673.6,1157,1701.9,1164.6,1723.7z M1184.3,1778c-2.4-13.5-12-33.4-17.4-47.6l0.4-0.1
			c2,3.8,24.8,44.5,27.7,46.3c2.4,1.4,27.6,0.1,39.5-0.2l0.1,0.4l-65.7,11.7l-0.1-0.4c4.1-2.4,13.6-7,15.2-9.1
			C1184.2,1778.8,1184.3,1778.4,1184.3,1778z M1173,1725.1l-0.1-0.4c6.8-2.7,16-5.9,23-7.2c7.7-1.4,14.3-0.9,22.2-0.9l0.1,0.4
			c-7,2.5-13.8,5.7-21.2,7.1C1189.2,1725.5,1180.8,1725.2,1173,1725.1z M1203.1,1655.9l-0.1-0.4l48.5-8.7l0.1,0.4
			c-6.2,2.7-14.5,6.4-15.7,8.4c-2,3.1-4.2,33-6.6,58.3l-3.4,36.7l-0.4,0.1l-0.8-37.7c-0.2-24.4-0.2-52.7-2-54
			C1218.5,1656.1,1207.1,1656.1,1203.1,1655.9z"/>
		<path d="M1059.6,1667.7l0,0.4c-27.7-0.1-45,31.5-45.6,61.1c-0.6,29.6,15.3,61.9,42.9,63l0,0.4c-29.3-1-53.4-25.1-52.6-63.6
			C1005.1,1690.9,1030.3,1667.4,1059.6,1667.7z M1127,1793.7l0,0.4l-47-1l0-0.4c3.2-0.6,13.3-3.1,16.7-6.2
			c2.6-2.3,5.2-16.5,7.4-35.7l0.4,0c0.6,5.9,1.6,32.3,5.8,36.4C1113.7,1790.4,1123.8,1792.9,1127,1793.7z M1082.8,1668.5l0-0.4
			l46.8,1l0,0.4c-7.2,1.8-13.3,3.3-16.8,6.4c-2.2,1.9-6.3,43.2-7.7,58.9l-0.5,5.2l-0.4,0c-1.1-16.4-3.1-62.5-5-64.4
			C1095.9,1672.4,1085.1,1669.5,1082.8,1668.5z"/>
		<path d="M996.2,1787.9l-0.1,0.4l-46.4-7.1l0.1-0.4c3.3-0.2,13.6-1.4,17.4-4c2.8-1.9,7.3-15.7,11.9-34.5l0.4,0.1
			c-0.2,5.9-2.6,32.3,1.1,36.8C983.4,1782.9,993.1,1786.7,996.2,1787.9z M968.4,1658.1l0.1-0.4l46.3,7l-0.1,0.4
			c-7.4,0.9-13.6,1.5-17.4,4.2c-2.4,1.6-11.8,42.1-15.2,57.4l-1.1,5.1l-0.4-0.1c1.1-16.4,5-62.4,3.3-64.5
			C980.9,1663.6,970.6,1659.3,968.4,1658.1z"/>
		<path d="M856.8,1756.9l-0.1,0.3l-44.8-13.4l0.1-0.3c7.4,0.2,13.7,0.4,17.9-1.8c2.6-1.3,17.5-40,23.1-54.8l1.8-4.9l0.3,0.1
			c-3.3,16.1-13.6,61.1-12.2,63.4C845.2,1749.7,854.8,1755.4,856.8,1756.9z M848,1624.7l0.1-0.3l45,13.4l-0.1,0.3
			c-2.2-0.1-8.5-0.3-13.8,0.2c4.3,18.6,7.9,30.3,12.2,48.5l-0.4,0.1c-13.2-32-16.5-40.9-19.1-41.5c-5-1.3-11.6,22.4-13.2,26.8
			l-0.3-0.1c1-5.8,7-31.6,4-36.6C860,1631.4,850.9,1626.3,848,1624.7z M941.3,1782.1l-0.1,0.3l-45-13.4l0.1-0.3
			c2,0.2,7.5,0.4,12.7,0.1l-13.8-71.7l0.4-0.1l15.5,52.3c2.4,8.2,3.5,11.9,6.7,12.4c5.7,0.9,11.5-23.6,12.9-27.1l0.3,0.1
			c-1,5.8-7,31.6-4,36.6C929.4,1775.4,938.5,1780.5,941.3,1782.1z M931.9,1649.7l0.1-0.3l44.8,13.4l-0.1,0.3
			c-7.4-0.2-13.7-0.4-17.9,1.8c-2.6,1.3-17.5,40-23.1,54.8l-1.8,4.9l-0.3-0.1c3.3-16.1,13.6-61.1,12.2-63.4
			C943.5,1656.9,933.9,1651.2,931.9,1649.7z"/>
		<path d="M725.8,1647.6l0.3,0.2c-0.4,2.2-9.4,25.9-9.1,30.3c0.3,4,1.3,13,17.2,23.7l3.7,2.5l-0.2,0.3l-31.2-20.4
			c-0.2-0.1-0.2-0.3-0.2-0.5L725.8,1647.6z M739.1,1613.7c-0.2-0.1-0.4-0.4-0.2-0.7l19.4-38.8l0.3,0.2l-1.9,4.8
			c-3.2,8-4.7,14.3-5.3,19c5.1-5.4,15.8-8.2,25.4-8c7.3,0,14.4,2.5,19.5,4.8l-0.2,0.3c-5.2-1.9-13.3-3.8-20.2-2.7
			c-11.6,1.8-24.3,12.1-23.6,18.1c0.2,0.7,0.5,1.3,0.8,1.9c2.5,4.5,26.3,22.1,28,23.9l-0.2,0.5L739.1,1613.7z M750.3,1711.9l0.2-0.3
			c25.7,12.9,55.9-7.4,69.7-33.6c13.8-26.2,13.3-62.6-11.9-76.4l0.2-0.3c26.9,14.5,38.3,47.7,20.6,81.3
			C811.1,1716.7,777.5,1725.7,750.3,1711.9z"/>
		<path d="M649.4,1649.5l-0.2,0.3l-35.3-30.9l0.2-0.3c2.9,1.6,12.2,6.2,16.8,6c3.4-0.1,14.6-9.3,28.6-22.6l0.3,0.2
			c-3.3,4.9-19.6,25.8-18.9,31.6C641.3,1638.4,647.4,1646.9,649.4,1649.5z M655.5,1489.3l29,25.1l-0.2,0.3l-3.3-2.7
			c-14.9-12.5-20.2-14.1-26.5-11.8c-5.8,2-10,5-14.7,7.5l-0.3-0.2c6.5-7.6,10.3-12.1,15.5-18.2
			C655.1,1489.2,655.4,1489.2,655.5,1489.3z M696,1525.2l0.2-0.3l35.2,30.8l-0.2,0.3c-6.7-3.2-12.3-6-17-5.8
			c-2.9,0.1-32.6,29.1-43.8,40.2l-3.7,3.7l-0.3-0.2c9.8-13.3,37.8-49.9,37.5-52.5C703.6,1536.6,697.1,1527.4,696,1525.2z"/>
		<path d="M616.9,1441.8l-0.3,0.2c-17.2-20.5-52.2-12.9-75.3,5.7c-23.1,18.6-37.8,51.2-21.4,72.3l-0.3,0.2
			c-17.6-22.3-14.1-55.6,15.9-79.8C565.1,1416.6,598.8,1419.9,616.9,1441.8z M531.7,1535.1l0.3-0.2c17.2,20.5,52.2,12.9,75.3-5.7
			c23.1-18.6,37.8-51.2,21.4-72.3l0.3-0.2c17.6,22.3,13.7,55.9-15.9,79.8C583,1560.6,549.8,1556.9,531.7,1535.1z"/>
		<path d="M448,1393c12.1-6.5,28.1-21.7,40-31.3l0.2,0.3c-3,3-34.7,37.3-35.6,40.6c-0.6,2.7,8.4,26.3,12.4,37.5l-0.3,0.2l-31.5-58.8
			l0.3-0.2c3.5,3.2,10.8,10.8,13.3,11.7C447.2,1393.1,447.6,1393.1,448,1393z M570,1373.1l0.3-0.2l23.2,43.4l-0.3,0.2
			c-4.5-5.1-10.5-11.8-12.9-12.3c-3.5-0.9-32.7,6.2-57.5,11.7l-36,8.1l-0.2-0.3l35.7-12.4c23.2-7.7,50.1-16.5,50.8-18.6
			C574.6,1387.8,571,1377,570,1373.1z M493.6,1357.5l-0.2-0.3c18.1-17.3,38.2-38.4,39.4-41.9c0.8-2.3-1.4-11-3.1-17.6l0.3-0.2
			l23.2,43.4l-0.3,0.2c-2.6-3-9.7-12-14.5-13.5C536.4,1327.1,512,1343.5,493.6,1357.5z M494.8,1365.9l0.3-0.2
			c4.6,5.6,10.6,13.4,14,19.7c3.7,6.9,5.3,13.3,7.7,20.8l-0.3,0.2c-4.6-5.9-9.7-11.4-13.3-18
			C499.5,1381.4,497.2,1373.3,494.8,1365.9z"/>
		<path d="M514.6,1240.4l-0.3,0.1c-8.4-26.4-43.8-33.2-72.2-24.7c-28.4,8.4-54.3,33.5-46.9,60.1l-0.3,0.1
			c-8-28.1,7.6-58.5,44.5-69.5C475.8,1195.7,505.9,1212.4,514.6,1240.4z M415.2,1343.1l-0.3,0.1l-13.4-45l0.3-0.1
			c1.6,2.9,7,11.7,11.1,14c2.9,1.7,17.3-0.1,36.3-3.9l0.1,0.3c-5.4,2.4-30.3,11.4-32.9,16.7C414.3,1329.4,414.9,1339.8,415.2,1343.1
			z M520.9,1262.7l0.3-0.1l13.3,44.8l-0.3,0.1c-3.9-6.3-7.2-11.6-11.2-14c-2.5-1.5-43.1,7.2-58.5,10.7l-5.1,1.1l-0.1-0.3
			c15.3-6,58.6-22.1,59.8-24.5C521.3,1276.4,520.7,1265.2,520.9,1262.7z"/>
		<path d="M380.7,1216.8l-0.4,0.1l-7.4-46.3l0.4-0.1c1.2,3.1,5.4,12.5,9.2,15.3c2.7,2.1,17.2,2.1,36.5,0.8l0.1,0.4
			c-5.7,1.6-31.5,7.4-34.8,12.2C381.5,1203.1,380.9,1213.5,380.7,1216.8z M496,1150.8l0.4-0.1l7.4,46.2l-0.4,0.1
			c-3.1-6.7-5.6-12.5-9.3-15.3c-2.3-1.8-43.7,1.6-59.4,3l-5.2,0.5l-0.1-0.4c16-4,61-14.3,62.5-16.5
			C494.5,1164.4,495.5,1153.2,496,1150.8z"/>
		<path d="M367.7,1074.8l-0.4,0l-1-46.7l0.4,0c2.1,7.1,3.8,13.1,7.1,16.4c2,2.1,43.5,4.4,59.2,5.2l5.2,0.2l0,0.4
			c-16.4,1.8-62.4,5.8-64.1,7.8C371,1061.5,368.5,1072.5,367.7,1074.8z M369.5,1162.9l-0.4,0l-1-46.9l0.4,0c0.4,2,1.9,7.3,3.8,12.1
			l64.1-35.1l0.2,0.4l-45.1,30.8c-7,4.8-10.2,7-9.8,10.2c0.8,5.7,26,3.7,29.7,4l0,0.4c-5.9,0.8-32.3,3-36.1,7.4
			C372.3,1149.5,370.2,1159.7,369.5,1162.9z M492.8,1113.4l0.4,0l1,46.7l-0.4,0c-2.1-7.1-3.8-13.1-7.1-16.4
			c-2-2.1-43.5-4.4-59.2-5.2l-5.2-0.2l0-0.4c16.4-1.8,62.4-5.8,64.1-7.8C489.5,1126.7,492,1115.8,492.8,1113.4z M491,1026l0.4,0
			l1,46.9l-0.4,0c-0.6-2.1-2.3-8.2-4.4-13.1c-16.4,9.8-26.4,16.8-42.5,26.4l-0.2-0.4c26.5-22.3,33.9-28.2,33.6-30.9
			c-0.3-5.2-24.9-4.1-29.6-4.4l0-0.4c5.9-0.8,32.3-3,36.1-7.4C488.2,1039.4,490.3,1029.2,491,1026z"/>
		<path d="M377.7,960.1l0.4,0.1c-4.3,28.4,24.3,50.8,53.5,55.8c29.2,5,63.7-6.7,69-34.9l0.4,0.1c-5.5,30-33.6,51.1-71.1,44.7
			C391.9,1019.3,372.9,990.2,377.7,960.1z M431.3,916.9l-0.1,0.4c-2.2,0.3-27.6-0.9-31.7,0.8c-3.7,1.5-11.9,5.2-17.3,23.7L381,946
			l-0.4-0.1l9.8-36c0-0.2,0.2-0.3,0.4-0.3L431.3,916.9z M467.7,919.1c0-0.2,0.3-0.5,0.6-0.4l42.9,6.4l-0.1,0.4l-5.2-0.3
			c-8.6-0.6-15,0-19.7,0.8c6.7,3.1,12.7,12.5,15.5,21.6c2.3,6.9,2.1,14.5,1.5,20l-0.4-0.1c0.2-5.6-0.5-13.8-3.6-20
			c-5.3-10.5-19-19.3-24.5-16.8c-0.6,0.4-1.1,0.9-1.5,1.4c-3.5,3.7-12.9,31.8-14.1,34l-0.5-0.1L467.7,919.1z"/>
		<path d="M406,844.7l-0.3-0.1l18.6-43.1l0.3,0.1c-0.6,3.2-2.1,13.5-0.5,17.9c1.1,3.2,13.3,11,30.3,20.3l-0.1,0.3
			c-5.7-1.7-30.6-10.7-35.9-8.3C414.1,833.6,407.9,842,406,844.7z M538.7,850.8l0.3,0.1l-18.5,42.9l-0.3-0.1c1-7.3,2-13.5,0.4-17.9
			c-1-2.7-37.7-22.1-51.7-29.3l-4.6-2.4l0.1-0.3c15.7,5.2,59.2,20.7,61.6,19.6C530.2,861.5,537,852.6,538.7,850.8z M560.5,801.3
			l-15.1,35.3l-0.3-0.1l1.5-4c7.4-18,7.2-23.5,3.1-28.8c-3.7-4.9-7.8-8-11.7-11.7l0.1-0.3c9.3,3.8,14.7,6.1,22.1,9.1
			C560.5,800.9,560.6,801.2,560.5,801.3z"/>
		<path d="M479,697.6l0.3,0.2c-14.3,22.7,3.6,53.6,28.4,69.9c24.8,16.3,60.3,20.4,75.5-1.7l0.3,0.2c-15.9,23.5-49.1,30.1-80.9,9.3
			C470.4,754.2,463.7,721.5,479,697.6z M594,750.2l-0.3-0.2c14.3-22.7-3.6-53.6-28.4-69.9c-24.8-16.3-60.3-20.4-75.5,1.7l-0.3-0.2
			c15.9-23.5,48.6-30.4,80.9-9.3C602.2,693.2,609.3,726.2,594,750.2z"/>
		<path d="M588.8,574.5c9.9,9.6,29.3,20.1,42,28.4l-0.2,0.3c-3.8-2-46.2-21.6-49.6-21.4c-2.8,0.3-22.5,16-31.9,23.2l-0.3-0.2
			l46.4-48l0.3,0.2c-1.9,4.3-7,13.6-7.1,16.3C588.4,573.9,588.6,574.3,588.8,574.5z M645.1,684.5l0.3,0.2l-34.3,35.4l-0.3-0.2
			c3.4-5.9,8-13.6,7.8-16c-0.2-3.7-15.9-29.3-28.8-51.1L571.2,621l0.2-0.3l22.7,30.2c14.5,19.7,31,42.6,33.3,42.6
			C632.5,693.4,641.7,686.7,645.1,684.5z M629,610.8l0.3,0.2c-3.9,6.1-9.5,14.2-14.5,19.3c-5.5,5.6-11.1,9.1-17.5,13.7l-0.3-0.2
			c4.2-6.1,7.9-12.7,13.1-18.1C615.6,620,622.6,615.4,629,610.8z M636.6,607l0.2-0.3c22,11.9,48.3,24.6,51.9,24.6
			c2.4,0.1,10-4.7,15.8-8.3l0.3,0.2l-34.3,35.4l-0.3-0.2c2.1-3.4,8.5-12.9,8.4-17.9C678.7,638.5,655.5,620.4,636.6,607z"/>
		<path d="M626.2,528.2l-0.2-0.3l38.7-26.6l0.2,0.3c-2.2,2.4-9,10.3-9.9,14.8c-0.7,3.3,5.4,16.4,14.9,33.3l-0.3,0.2
			c-3.9-4.4-20.2-25.3-26-26.1C638.9,523.1,629.2,527,626.2,528.2z M735.3,603.9l0.2,0.3l-38.6,26.5l-0.2-0.3
			c4.8-5.7,8.9-10.4,9.8-15c0.7-2.8-20.2-38.8-28.2-52.3l-2.6-4.5l0.3-0.2c10.5,12.7,39.1,48.9,41.7,49.3
			C722.4,608.5,732.9,604.5,735.3,603.9z M754.6,591.1l-0.2-0.3c22.5-16.1,18.1-51.8,1.3-76.2c-16.8-24.4-48.6-41.3-71.7-26.1
			l-0.2-0.3c24.3-16.3,58-10.8,79.9,20.9C785.2,540.4,778.5,574.2,754.6,591.1z"/>
		<path d="M735.7,456.5l-0.2-0.3l41.8-21.4l0.2,0.3c-2.5,2.1-10.2,9-11.8,13.4c-1.2,3.2,3.3,17,10.5,34.9l-0.3,0.2
			c-3.3-4.9-16.8-27.7-22.4-29.2C749,453.1,738.9,455.7,735.7,456.5z M834.1,545.7l0.2,0.3l-41.7,21.3l-0.2-0.3
			c5.5-5,10.1-9.2,11.7-13.6c1-2.7-15-41-21.2-55.5l-2-4.8l0.3-0.2c8.8,14,32.4,53.6,35,54.3C820.7,548.5,831.6,546,834.1,545.7z"/>
		<path d="M783.6,429.2l-0.1-0.3l44.4-15.4l0.1,0.3c-1.7,1-6.3,4.1-10.3,7.3l53.1,50.2l-0.3,0.3l-43.1-33.4
			c-6.7-5.2-9.8-7.6-12.7-6.2c-5.2,2.5,4.4,25.8,5.3,29.5l-0.3,0.1c-2.6-5.3-12.8-29.8-18.1-32.1
			C797.2,427.7,786.8,428.8,783.6,429.2z M868.7,531.2l0.1,0.3l-44.2,15.3l-0.1-0.3c6.1-4.2,11.3-7.7,13.5-11.8
			c1.4-2.6-9.1-42.7-13.3-57.9l-1.4-5l0.3-0.1c6.7,15,24.7,57.5,27.1,58.6C855,532.1,866.2,531.1,868.7,531.2z M866.9,400.4
			l-0.1-0.3l44.2-15.3l0.1,0.3c-6.1,4.2-11.3,7.7-13.5,11.8c-1.4,2.6,9.1,42.7,13.3,57.9l1.4,5l-0.3,0.1
			c-6.7-15-24.7-57.5-27.1-58.6C880.6,399.4,869.4,400.4,866.9,400.4z M951.3,502.6l0.1,0.3l-44.4,15.4l-0.1-0.3
			c1.8-1.2,7.1-4.7,11.1-8.2c-14.4-12.6-24.1-20-38.2-32.3l0.3-0.3c29.4,18.3,37.3,23.5,39.7,22.5c4.8-1.9-3.7-25-4.9-29.5l0.3-0.1
			c2.6,5.3,12.8,29.8,18.1,32.1C937.7,504.1,948.1,502.9,951.3,502.6z"/>
		<path d="M979.7,374.8l0,0.4c-28.4,4.6-41.1,38.6-36.9,67.9c4.2,29.3,25.8,58.5,54.3,55l0,0.4c-30.3,3.9-59-16.3-64.3-54
			C927.5,406.3,949.5,379.4,979.7,374.8z M1037.2,412.6l-0.4,0c-1-2-7.5-26.5-10.4-29.9c-2.6-3.1-8.6-9.8-27.8-9.2l-4.5,0.1l0-0.4
			l37.3-1.7c0.2,0,0.4,0.1,0.4,0.3L1037.2,412.6z M1046.2,447.9c0.2,0,0.6,0.1,0.6,0.5l7,42.8l-0.4,0.1l-1.3-5
			c-2.1-8.4-4.6-14.3-6.8-18.5c-0.9,7.3-8,15.9-15.9,21.4c-5.9,4.3-13.2,6.4-18.6,7.5l-0.1-0.4c5.4-1.5,13-4.7,17.9-9.6
			c8.4-8.2,12.7-24,8.6-28.4c-0.6-0.5-1.2-0.7-1.8-1c-4.6-2.2-34.3-2.5-36.7-3.1l-0.1-0.5L1046.2,447.9z"/>
	</g>
	<g>
		<path d="M1229,485L1229,485l2-7.4l0.1,0c0,0.3,0,1.2,0,2.1l11.6-2.5l0,0.1l-8.4,2.7c-1.3,0.4-1.9,0.6-2,1.1
			c-0.1,0.9,3.9,1.8,4.4,2l0,0.1c-1-0.1-5.2-1-6-0.5C1230,483.1,1229.2,484.6,1229,485z M1232.8,471.2L1232.8,471.2l2-7.3l0.1,0
			c0,1.2,0,2.2,0.3,2.9c0.2,0.4,6.6,2.7,9,3.6l0.8,0.3l0,0.1c-2.6-0.5-10-2-10.3-1.8C1233.9,469.3,1233,470.9,1232.8,471.2z
			 M1250.4,483.1L1250.4,483.1l-2,7.3l-0.1,0c0-1.2,0-2.2-0.3-2.9c-0.2-0.4-6.6-2.7-9-3.6l-0.8-0.3l0-0.1c2.6,0.5,10,2,10.3,1.8
			C1249.3,485,1250.2,483.4,1250.4,483.1z M1254.2,469.4L1254.2,469.4l-2,7.4l-0.1,0c0-0.4,0-1.4-0.1-2.2c-3,0.8-4.9,1.4-7.8,2.1
			l0-0.1c5.2-2.2,6.6-2.8,6.7-3.2c0.2-0.8-3.7-1.8-4.4-2.1l0-0.1c1,0.1,5.2,1,6,0.5C1253.2,471.3,1254,469.8,1254.2,469.4z"/>
		<path d="M1237.3,454.5L1237.3,454.5c-1,4.2,3.3,8.1,7.9,9.4c4.6,1.3,10.3,0.1,11.6-4l0.1,0c-1.3,4.4-6.1,7.1-12,5.5
			C1238.8,463.7,1236.2,458.9,1237.3,454.5z M1257.7,456.9L1257.7,456.9c1-4.2-3.3-8.1-7.9-9.4c-4.6-1.3-10.3-0.1-11.6,4l-0.1,0
			c1.3-4.4,6-7.1,12-5.5C1256.2,447.7,1258.9,452.4,1257.7,456.9z"/>
		<path d="M1251.4,440.4l8.5,0.6l0,0.1l-8.4,0.1c-4.1,0.1-9.1,0.1-9.6,0.4c-0.3,0.2-1.1,1.5-1.6,2.4l-0.1,0l2.1-7.7l0.1,0
			c0,0.7-0.2,2.5,0.2,3.2C1242.8,439.8,1247.5,440.1,1251.4,440.4z M1254.8,429.4c-2.1,0-4.5-0.1-6.4,0c1.5,1,3.3,2.4,5.1,3.4l0,0.1
			c-3.2-1.4-7.2-3.2-8-3.1c-0.8,0.1-1.6,2-1.9,2.7l-0.1,0l2.2-7.9l0.1,0c0,0.7-0.3,2.7,0.3,3.3c0.5,0.5,5,0.7,8.7,0.9l8.5,0.6l0,0.1
			L1254.8,429.4z M1246.7,420.6L1246.7,420.6l2.1-7.7l0.1,0c0,1.1-0.1,2.6,0.1,2.9c0.3,0.5,4.3,3.1,7.7,5.2l0,0.1
			c-3.4-1.5-7.9-3.3-8.2-3.1C1247.8,418.4,1247,420,1246.7,420.6z M1263.9,434.4L1263.9,434.4l-2.4,8.8l-0.1,0
			c0.2-2.1,0.3-4.3,0.2-4.7c-0.3-0.5-2.1-1.9-7.1-5.2l0-0.1c2.2,1.1,5.3,2.9,7.4,3.5c0.1,0,0.1,0,0.2,0
			C1262.5,436.5,1263.4,435.1,1263.9,434.4z M1267.1,422.7L1267.1,422.7l-2.4,8.8l-0.1,0c0.2-2.1,0.3-4.3,0.2-4.7
			c-0.3-0.5-2.1-1.9-7.1-5.2l0-0.1c2.2,1.1,5.3,2.9,7.4,3.5c0.1,0,0.1,0,0.2,0C1265.8,424.8,1266.7,423.3,1267.1,422.7z"/>
	</g>
	<g>
		<path d="M1695.2,1037.2L1695.2,1037.2l7.6-0.4l0,0.1c-0.3,0.1-1.2,0.3-1.9,0.7l5.9,10.3l-0.1,0l-5.1-7.2c-0.8-1.1-1.2-1.6-1.7-1.6
			c-0.9,0.2-0.5,4.2-0.6,4.8l-0.1,0c-0.2-1-0.6-5.2-1.3-5.8C1697.4,1037.6,1695.7,1037.2,1695.2,1037.2z M1703.6,1057L1703.6,1057
			l-7.6,0.4l0-0.1c1.1-0.4,2.1-0.7,2.6-1.2c0.3-0.3,0.6-7.1,0.7-9.6l0-0.8l0.1,0c0.3,2.7,1.1,10.1,1.5,10.4
			C1701.4,1056.5,1703.2,1056.9,1703.6,1057z M1717.8,1056.4L1717.8,1056.4l-7.6,0.4l0-0.1c0.3-0.1,1.3-0.4,2.1-0.8
			c-1.6-2.6-2.8-4.2-4.4-6.8l0.1,0c3.7,4.2,4.7,5.4,5.1,5.4c0.8-0.1,0.6-4.1,0.6-4.8l0.1,0c0.2,1,0.6,5.2,1.3,5.8
			C1715.6,1056,1717.3,1056.3,1717.8,1056.4z M1709.5,1036.6L1709.5,1036.6l7.6-0.4l0,0.1c-1.1,0.4-2.1,0.7-2.7,1.2
			c-0.3,0.3-0.6,7.1-0.7,9.6l0,0.8l-0.1,0c-0.3-2.7-1.1-10.1-1.5-10.4C1711.7,1037.1,1709.9,1036.7,1709.5,1036.6z"/>
		<path d="M1726.9,1035.8L1726.9,1035.8c-4.3,0.3-6.7,5.6-6.5,10.4c0.2,4.8,3,9.9,7.4,9.8l0,0.1c-4.6,0.1-8.6-3.6-8.9-9.8
			C1718.6,1040,1722.3,1036.1,1726.9,1035.8z M1730.8,1055.9L1730.8,1055.9c4.3-0.3,6.7-5.6,6.5-10.4c-0.2-4.8-3-9.9-7.4-9.8l0-0.1
			c4.6-0.1,8.6,3.5,8.9,9.8C1739.1,1051.6,1735.4,1055.7,1730.8,1055.9z"/>
		<path d="M1744.6,1045l2,8.2l-0.1,0l-2.7-7.9c-1.3-3.9-2.9-8.6-3.3-9.1c-0.3-0.3-1.7-0.6-2.8-0.8l0-0.1l8-0.3l0,0.1
			c-0.6,0.2-2.4,0.6-3,1.2C1742.5,1036.5,1743.6,1041.1,1744.6,1045z M1754,1055L1754,1055l-9.1,0.4l0-0.1c2-0.5,4.2-1,4.5-1.3
			c0.4-0.4,1.2-2.6,2.8-8.3l0.1,0c-0.4,2.5-1.2,5.9-1.1,8.2c0,0.1,0,0.1,0.1,0.2C1751.6,1054.3,1753.3,1054.7,1754,1055z
			 M1756.1,1044.8c-0.7-2-1.3-4.3-1.9-6.1c-0.5,1.7-1.2,3.9-1.7,5.9l-0.1,0c0.4-3.5,0.8-7.8,0.5-8.6c-0.3-0.7-2.4-0.9-3.1-1l0-0.1
			l8.2-0.3l0,0.1c-0.6,0.2-2.6,0.5-3,1.3c-0.3,0.7,0.9,5,1.8,8.6l2,8.2l-0.1,0L1756.1,1044.8z M1766.2,1054.5L1766.2,1054.5
			l-9.1,0.4l0-0.1c2-0.5,4.2-1,4.5-1.3c0.4-0.4,1.2-2.6,2.8-8.3l0.1,0c-0.4,2.4-1.2,5.9-1.1,8.2c0,0.1,0,0.1,0.1,0.2
			C1763.8,1053.8,1765.5,1054.2,1766.2,1054.5z M1762,1034.4L1762,1034.4l8-0.4l0,0.1c-1.1,0.3-2.5,0.7-2.7,1
			c-0.4,0.5-1.7,5-2.6,8.9l-0.1,0c0.4-3.7,0.7-8.5,0.5-8.7C1764.5,1034.8,1762.7,1034.6,1762,1034.4z"/>
	</g>
	<g>
		<path d="M1294.5,1667L1294.5,1667l-3.3-6.8l0.1,0c0.8,0.9,1.4,1.7,2.2,2c0.4,0.2,6.7-2.2,9.1-3.2l0.8-0.3l0,0.1
			c-2.3,1.4-8.9,5-9,5.4C1294.1,1664.8,1294.5,1666.6,1294.5,1667z M1300.6,1679.8L1300.6,1679.8l-3.3-6.9l0.1,0
			c0.2,0.3,0.9,1.1,1.5,1.6c1.8-2.5,2.8-4.2,4.5-6.7l0.1,0c-2.4,5.1-3.1,6.4-2.9,6.8c0.4,0.7,4-1.1,4.7-1.3l0,0.1
			c-0.8,0.5-4.6,2.6-4.9,3.5C1300.1,1677.7,1300.5,1679.3,1300.6,1679.8z M1309.5,1651.5L1309.5,1651.5l3.3,6.9l-0.1,0
			c-0.2-0.3-0.8-0.9-1.4-1.5l-7.2,9.5l-0.1,0l4.6-7.6c0.7-1.2,1-1.7,0.8-2.2c-0.5-0.8-4.1,1.2-4.7,1.4l0-0.1
			c0.8-0.5,4.6-2.6,4.9-3.5C1310,1653.6,1309.6,1652,1309.5,1651.5z M1315.6,1664.4L1315.6,1664.4l3.3,6.8l-0.1,0
			c-0.8-0.9-1.4-1.7-2.2-2c-0.4-0.2-6.7,2.2-9.1,3.2l-0.8,0.3l0-0.1c2.3-1.4,8.9-5,9-5.4C1316,1666.6,1315.7,1664.8,1315.6,1664.4z"
			/>
		<path d="M1323.2,1680.1L1323.2,1680.1c-2-3.9-7.8-4-12.2-1.9s-7.9,6.6-6.1,10.6l-0.1,0c-1.9-4.2,0-9.3,5.5-12
			C1316,1674.1,1321.1,1675.9,1323.2,1680.1z M1306.2,1691.6L1306.2,1691.6c2,3.9,7.8,4,12.2,1.9c4.3-2.1,7.9-6.6,6.1-10.6l0.1,0
			c1.9,4.2,0.1,9.3-5.5,12C1313.4,1697.5,1308.2,1695.7,1306.2,1691.6z"/>
		<path d="M1316.2,1712.5L1316.2,1712.5l-4-8.2l0.1,0c1.2,1.7,2.6,3.5,3,3.7c0.5,0.2,2.8,0.1,8.7-0.7l0,0.1
			c-2.4,0.6-5.9,1.2-7.9,2.2c-0.1,0-0.1,0.1-0.1,0.2C1315.8,1710.1,1316.1,1711.8,1316.2,1712.5z M1321.7,1699.9l-6.8,5.1l0-0.1
			l6.2-5.6c3.1-2.7,6.8-6,7-6.6c0.1-0.4-0.1-1.8-0.4-2.9l0.1,0l3.4,7.2l-0.1,0c-0.4-0.5-1.5-2-2.3-2.3
			C1328.6,1694.7,1324.9,1697.5,1321.7,1699.9z M1321.5,1723.5L1321.5,1723.5l-4-8.2l0.1,0c1.2,1.7,2.6,3.5,3,3.7
			c0.5,0.2,2.8,0.1,8.7-0.7l0,0.1c-2.4,0.6-5.9,1.2-7.9,2.2c-0.1,0-0.1,0.1-0.1,0.2C1321.1,1721.1,1321.4,1722.8,1321.5,1723.5z
			 M1326.4,1710.4c1.6-1.4,3.5-2.9,4.8-4.1c-1.8,0.2-4.1,0.4-6.1,0.7l0-0.1c3.4-1,7.5-2.3,8.1-2.9c0.5-0.5-0.1-2.5-0.3-3.3l0.1,0
			l3.5,7.4l-0.1,0c-0.4-0.5-1.5-2.2-2.4-2.3c-0.8-0.1-4.2,2.8-7.2,5l-6.8,5.1l0-0.1L1326.4,1710.4z M1338.2,1711.8L1338.2,1711.8
			l3.5,7.2l-0.1,0c-0.7-0.9-1.6-2-2-2.1c-0.6-0.2-5.3,0.4-9.3,1.1l0-0.1c3.6-1.1,8.1-2.7,8.2-3
			C1338.9,1714.2,1338.4,1712.5,1338.2,1711.8z"/>
	</g>
	<g>
		<path d="M580.9,1471.3L580.9,1471.3l5.9-4.8l0,0c-0.2,0.3-0.8,1.1-1.3,1.9c2.9,1.1,4.8,1.7,7.6,2.8l0,0.1c-5.5-1.2-7-1.5-7.3-1.3
			c-0.6,0.6,1.9,3.6,2.4,4.2l0,0c-0.7-0.7-3.6-3.8-4.5-3.9C582.9,1470.3,581.4,1471.1,580.9,1471.3z M599.4,1482.3L599.4,1482.3
			l-5.9,4.8l0,0c0.7-1,1.3-1.8,1.4-2.5c0.1-0.5-3.8-6-5.2-8.1l-0.5-0.7l0,0c1.9,1.9,6.9,7.4,7.4,7.5
			C597.4,1483.2,599,1482.4,599.4,1482.3z M591.9,1462.4L591.9,1462.4l5.9-4.8l0,0c-0.7,1-1.3,1.8-1.4,2.5c-0.1,0.5,3.8,6,5.2,8.1
			l0.5,0.7l0,0c-1.9-1.9-6.9-7.4-7.4-7.5C594,1461.5,592.3,1462.3,591.9,1462.4z M610.6,1473.3L610.6,1473.3l-5.9,4.8l0,0
			c0.2-0.2,0.7-1,1.2-1.7l-10.9-4.7l0-0.1l8.4,2.7c1.3,0.4,1.9,0.6,2.3,0.2c0.6-0.7-2.1-3.7-2.4-4.2l0,0c0.7,0.7,3.6,3.8,4.5,3.9
			C608.6,1474.3,610.1,1473.5,610.6,1473.3z"/>
		<path d="M570.8,1479.4L570.8,1479.4c-3.3,2.8-2.1,8.5,1,12.3c3,3.7,8.3,6.1,11.8,3.5l0,0c-3.6,2.9-9,2.3-13-2.6
			C566.7,1487.8,567.2,1482.4,570.8,1479.4z M585.9,1493.3L585.9,1493.3c3.3-2.8,2.1-8.5-1-12.3c-3-3.7-8.3-6.1-11.8-3.5l0,0
			c3.6-2.8,9.1-2.2,13,2.6C590.1,1484.9,589.5,1490.3,585.9,1493.3z"/>
		<path d="M543.2,1501.7L543.2,1501.7l7-5.8l0,0c-1.4,1.6-2.8,3.3-2.9,3.7c-0.1,0.5,0.6,2.8,2.7,8.3l0,0c-1.2-2.2-2.6-5.5-4-7.2
			c0,0-0.1-0.1-0.2-0.1C545.5,1500.8,543.9,1501.5,543.2,1501.7z M557.1,1503.5c1.8,1.2,3.6,2.7,5.1,3.7c-0.6-1.7-1.3-3.8-2.1-5.7
			l0,0c1.7,3,4,6.8,4.7,7.2c0.7,0.4,2.4-0.7,3.1-1l0,0l-6.4,5.1l0,0c0.4-0.5,1.8-2,1.7-2.8c-0.1-0.8-3.7-3.4-6.6-5.8l-6.6-5.4l0,0
			L557.1,1503.5z M558.5,1515.3L558.5,1515.3l-6.2,5.1l0,0c0.7-0.9,1.6-2,1.6-2.4c0-0.6-1.6-5-3.2-8.7l0,0c1.9,3.2,4.5,7.3,4.8,7.3
			C556.3,1516.5,557.9,1515.6,558.5,1515.3z M552.7,1494.1L552.7,1494.1l7-5.8l0,0c-1.4,1.6-2.8,3.3-2.9,3.7
			c-0.1,0.5,0.6,2.8,2.7,8.3l0,0c-1.2-2.2-2.6-5.5-4-7.2c0,0-0.1-0.1-0.2-0.1C555,1493.2,553.4,1493.8,552.7,1494.1z M566.3,1496.5
			l-6.6-5.4l0,0l6.9,4.8c3.4,2.3,7.5,5.2,8.1,5.3c0.4,0.1,1.7-0.6,2.7-1l0,0l-6.2,5l0,0c0.4-0.5,1.6-1.9,1.7-2.7
			C572.9,1502,569.3,1499,566.3,1496.5z"/>
	</g>
	<g>
		<path d="M554,744L554,744l-6.7-3.6l0-0.1c1.2,0.3,2.2,0.5,2.9,0.3c0.5-0.1,4.2-5.7,5.6-7.9l0.5-0.7l0.1,0
			c-1.1,2.4-4.3,9.2-4.1,9.6C552.4,742.4,553.7,743.7,554,744z M557.1,722.7L557.1,722.7l6.7,3.6l0,0.1c-0.3-0.1-1.3-0.3-2.2-0.5
			c0,3.1,0.2,5.1,0.2,8.1l-0.1,0c-1-5.5-1.2-7.1-1.6-7.2c-0.8-0.4-2.6,3.2-3,3.8l-0.1,0c0.4-0.9,2.2-4.8,1.9-5.7
			C558.8,724.2,557.5,723,557.1,722.7z M566.5,750.9L566.5,750.9l-6.7-3.6l0-0.1c0.3,0.1,1.2,0.3,2,0.4l0.3-11.9l0.1,0l0.6,8.8
			c0.1,1.4,0.2,2,0.6,2.2c0.9,0.3,2.6-3.3,3-3.8l0.1,0c-0.4,0.9-2.2,4.8-1.9,5.7C564.8,749.4,566.1,750.5,566.5,750.9z M569.6,729.6
			L569.6,729.6l6.7,3.6l0,0.1c-1.2-0.3-2.2-0.5-2.9-0.3c-0.5,0.1-4.2,5.7-5.6,7.9l-0.5,0.7l-0.1,0c1.1-2.4,4.3-9.2,4.1-9.6
			C571.2,731.1,569.8,729.9,569.6,729.6z"/>
		<path d="M545.8,716.4L545.8,716.4c-3.9-2-8.7,1.3-11,5.5c-2.3,4.2-2.6,10,1.2,12.2l0,0.1c-4-2.3-5.5-7.5-2.5-13
			C536.5,715.7,541.7,714.2,545.8,716.4z M538.7,735.6L538.7,735.6c3.9,2,8.7-1.3,11-5.5c2.3-4.2,2.6-10-1.2-12.2l0-0.1
			c4,2.3,5.5,7.6,2.5,13C548,736.3,542.8,737.8,538.7,735.6z"/>
		<path d="M507.9,718.6L507.9,718.6l-7-3.8l0-0.1c1.1,0.3,2.5,0.7,2.8,0.5c0.6-0.2,4-3.4,6.9-6.3l0.1,0c-2.3,3-5,6.9-4.9,7.2
			C506,717,507.4,718.1,507.9,718.6z M514.7,699.3L514.7,699.3l8,4.3l0,0.1c-2-0.7-4.1-1.3-4.5-1.3c-0.5,0.1-2.3,1.6-6.7,5.7l-0.1,0
			c1.6-1.9,4.1-4.5,5.2-6.4c0-0.1,0-0.1,0-0.2C516.5,701.1,515.2,699.9,514.7,699.3z M518.4,712.8c-0.5,2.1-1.1,4.3-1.5,6.2
			c1.3-1.2,3.1-2.7,4.5-4.1l0.1,0c-2.2,2.8-4.8,6.3-4.9,7.1c-0.1,0.8,1.6,2,2.1,2.5l0,0.1l-7.2-4l0-0.1c0.6,0.2,2.5,0.9,3.3,0.5
			c0.7-0.4,1.8-4.7,2.9-8.3l2.5-8.1l0.1,0L518.4,712.8z M525.4,705.2L525.4,705.2l8,4.3l0,0.1c-2-0.7-4.1-1.3-4.5-1.3
			c-0.5,0.1-2.3,1.6-6.7,5.7l-0.1,0c1.6-1.9,4.1-4.5,5.2-6.4c0-0.1,0-0.1,0-0.2C527.1,707,525.9,705.8,525.4,705.2z M528.3,718.6
			l2.5-8.1l0.1,0l-1.8,8.2c-0.9,4-2,8.9-1.9,9.5c0.1,0.4,1.2,1.4,2,2.1l0,0.1l-7-3.9l0-0.1c0.6,0.2,2.4,0.8,3.2,0.6
			C525.7,726.9,527.1,722.4,528.3,718.6z"/>
	</g>
</g>
</svg>
