<?xml version="1.0" encoding="utf-8"?>
<!-- Generator: Adobe Illustrator 25.2.3, SVG Export Plug-In . SVG Version: 6.00 Build 0)  -->
<svg version="1.1" id="レイヤー_1" xmlns="http://www.w3.org/2000/svg" xmlns:xlink="http://www.w3.org/1999/xlink" x="0px"
	 y="0px" viewBox="0 0 2160 2160" style="enable-background:new 0 0 2160 2160;" xml:space="preserve">
<g>
	<path d="M1079.8,312.9l0.6-35.3l2,0l-0.6,35.3L1079.8,312.9z M1088,313l0.6-35.3l4.1,0.1l-0.6,35.3L1088,313z M1094.2,313.1
		l0.6-35.3l6.1,0.1l-0.6,35.3L1094.2,313.1z"/>
	<path d="M1110.9,313.5l1.9-35.3l2,0.1l-1.9,35.3L1110.9,313.5z M1119.1,314l1.9-35.3l6.1,0.3l-1.9,35.3L1119.1,314z M1127.3,314.4
		l1.9-35.3l4.1,0.2l-1.9,35.3L1127.3,314.4z"/>
	<path d="M1142,315.4l3.3-35.2l2,0.2l-3.3,35.2L1142,315.4z M1146.1,315.8l3.3-35.2l2,0.2l-3.3,35.2L1146.1,315.8z M1154.2,316.5
		l3.3-35.2l4.1,0.4l-3.3,35.2L1154.2,316.5z"/>
	<path d="M1172.9,318.5l4.7-35l2,0.3l-4.7,35L1172.9,318.5z M1177,319l4.7-35l4.1,0.5l-4.7,35L1177,319z M1187.1,320.4l4.7-35l2,0.3
		l-4.7,35L1187.1,320.4z"/>
	<path d="M1203.7,322.8l6.2-34.8l4,0.7l-6.2,34.8L1203.7,322.8z M1213.8,324.6l6.2-34.8l2,0.4l-6.2,34.8L1213.8,324.6z M1221.9,326
		l6.2-34.8l2,0.4l-6.2,34.8L1221.9,326z"/>
	<path d="M1234.3,328.4l7.6-34.5l2,0.4l-7.6,34.5L1234.3,328.4z M1238.3,329.3l7.6-34.5l6,1.3l-7.6,34.5L1238.3,329.3z
		 M1250.3,331.9l7.6-34.5l4,0.9l-7.6,34.5L1250.3,331.9z"/>
	<path d="M1264.6,335.2l9-34.2l4,1l-9,34.2L1264.6,335.2z M1270.6,336.8l9-34.2l2,0.5l-9,34.2L1270.6,336.8z M1278.5,338.9l9-34.2
		l2,0.5l-9,34.2L1278.5,338.9z"/>
	<path d="M1294.7,343.3l10.4-33.8l3.9,1.2l-10.4,33.8L1294.7,343.3z M1300.6,345.1l10.4-33.8l3.9,1.2l-10.4,33.8L1300.6,345.1z
		 M1308.4,347.5l10.4-33.8l3.9,1.2l-10.4,33.8L1308.4,347.5z"/>
	<path d="M1324.4,352.6l11.7-33.3l1.9,0.7l-11.7,33.3L1324.4,352.6z M1332.1,355.3l11.7-33.3l3.9,1.4l-11.7,33.3L1332.1,355.3z
		 M1337.9,357.3l11.7-33.3l5.8,2l-11.7,33.3L1337.9,357.3z"/>
	<path d="M1353.6,363l13.1-32.8l1.9,0.8l-13.1,32.8L1353.6,363z M1361.2,366.1l13.1-32.8l5.7,2.3l-13.1,32.8L1361.2,366.1z
		 M1368.9,369.1l13.1-32.8l3.8,1.5l-13.1,32.8L1368.9,369.1z"/>
	<path d="M1382.5,374.7l14.4-32.2l1.9,0.8l-14.4,32.2L1382.5,374.7z M1386.2,376.4l14.4-32.2l1.9,0.8l-14.4,32.2L1386.2,376.4z
		 M1393.7,379.7l14.4-32.2l3.7,1.7l-14.4,32.2L1393.7,379.7z"/>
	<path d="M1410.8,387.5l15.7-31.6l1.8,0.9l-15.7,31.6L1410.8,387.5z M1414.4,389.4l15.7-31.6l3.7,1.8l-15.7,31.6L1414.4,389.4z
		 M1423.6,393.9l15.7-31.6l1.8,0.9l-15.7,31.6L1423.6,393.9z"/>
	<path d="M1438.6,401.5l17-31l3.6,2l-17,31L1438.6,401.5z M1447.5,406.4l17-31l1.8,1l-17,31L1447.5,406.4z M1454.7,410.3l17-31
		l1.8,1l-17,31L1454.7,410.3z"/>
	<path d="M1465.7,416.6l18.2-30.3l1.8,1.1l-18.2,30.3L1465.7,416.6z M1469.3,418.7l18.2-30.3l5.3,3.2l-18.2,30.3L1469.3,418.7z
		 M1479.8,425l18.2-30.3l3.5,2.1l-18.2,30.3L1479.8,425z"/>
	<path d="M1492.3,432.8l19.4-29.5l3.4,2.3l-19.4,29.5L1492.3,432.8z M1497.4,436.1l19.4-29.5l1.7,1.1l-19.4,29.5L1497.4,436.1z
		 M1504.3,440.6l19.4-29.5l1.7,1.1l-19.4,29.5L1504.3,440.6z"/>
	<path d="M1518.2,450l20.6-28.7l3.3,2.4l-20.6,28.7L1518.2,450z M1523.2,453.6l20.6-28.7l3.3,2.4l-20.6,28.7L1523.2,453.6z
		 M1529.8,458.3l20.6-28.7l3.3,2.4l-20.6,28.7L1529.8,458.3z"/>
	<path d="M1543.3,468.2l21.8-27.8l1.6,1.3l-21.8,27.8L1543.3,468.2z M1549.8,473.3l21.8-27.8l3.2,2.5l-21.8,27.8L1549.8,473.3z
		 M1554.7,477.1l21.8-27.8l4.8,3.8l-21.8,27.8L1554.7,477.1z"/>
	<path d="M1567.8,487.5l22.9-26.9l1.6,1.3l-22.9,26.9L1567.8,487.5z M1574,492.8l22.9-26.9l4.7,4l-22.9,26.9L1574,492.8z
		 M1580.3,498.1l22.9-26.9l3.1,2.6l-22.9,26.9L1580.3,498.1z"/>
	<path d="M1591.4,507.7l23.9-26l1.5,1.4l-23.9,26L1591.4,507.7z M1594.4,510.5l23.9-26l1.5,1.4l-23.9,26L1594.4,510.5z M1600.4,516
		l23.9-26l3,2.8l-23.9,26L1600.4,516z"/>
	<path d="M1614.1,528.9l25-25l1.5,1.4l-25,25L1614.1,528.9z M1619.9,534.7l25-25l1.5,1.4l-25,25L1619.9,534.7z M1625.7,540.5l25-25
		l2.9,2.9l-25,25L1625.7,540.5z"/>
	<path d="M1636,550.9l25.9-24l2.8,3l-25.9,24L1636,550.9z M1643,558.5l25.9-24l1.4,1.5l-25.9,24L1643,558.5z M1648.5,564.5l25.9-24
		l1.4,1.5l-25.9,24L1648.5,564.5z"/>
	<path d="M1657,573.9l26.9-22.9l1.3,1.6l-26.9,22.9L1657,573.9z M1659.7,577l26.9-22.9l4,4.7l-26.9,22.9L1659.7,577z M1667.7,586.3
		l26.9-22.9l2.7,3.1l-26.9,22.9L1667.7,586.3z"/>
	<path d="M1677.1,597.6l27.8-21.8l2.5,3.2l-27.8,21.8L1677.1,597.6z M1680.9,602.5l27.8-21.8l1.3,1.6l-27.8,21.8L1680.9,602.5z
		 M1685.9,608.9l27.8-21.8l1.3,1.6l-27.8,21.8L1685.9,608.9z"/>
	<path d="M1696.2,622.2l28.6-20.7l2.4,3.3l-28.6,20.7L1696.2,622.2z M1699.8,627.1l28.6-20.7l2.4,3.3l-28.6,20.7L1699.8,627.1z
		 M1704.6,633.8l28.6-20.7l2.4,3.3l-28.6,20.7L1704.6,633.8z"/>
	<path d="M1714.2,647.4l29.5-19.5l2.3,3.4l-29.5,19.5L1714.2,647.4z M1717.6,652.6l29.5-19.5l2.3,3.4l-29.5,19.5L1717.6,652.6z
		 M1722.2,659.4l29.5-19.5l2.3,3.4l-29.5,19.5L1722.2,659.4z"/>
	<path d="M1731.3,673.4l30.2-18.3l1.1,1.8l-30.2,18.3L1731.3,673.4z M1735.5,680.4l30.2-18.3l2.1,3.5l-30.2,18.3L1735.5,680.4z
		 M1738.7,685.7l30.2-18.3l3.2,5.3l-30.2,18.3L1738.7,685.7z"/>
	<path d="M1747.2,700.1l30.9-17.1l1,1.8l-30.9,17.1L1747.2,700.1z M1751.2,707.3l30.9-17.1l3,5.4l-30.9,17.1L1751.2,707.3z
		 M1755.2,714.4l30.9-17.1l2,3.6l-30.9,17.1L1755.2,714.4z"/>
	<path d="M1762.1,727.4l31.6-15.8l0.9,1.8l-31.6,15.8L1762.1,727.4z M1763.9,731l31.6-15.8l0.9,1.8l-31.6,15.8L1763.9,731z
		 M1767.6,738.4l31.6-15.8l1.8,3.7l-31.6,15.8L1767.6,738.4z"/>
	<path d="M1775.9,755.2l32.2-14.5l0.8,1.9l-32.2,14.5L1775.9,755.2z M1777.5,759l32.2-14.5l1.7,3.7l-32.2,14.5L1777.5,759z
		 M1781.8,768.3l32.2-14.5l0.8,1.9l-32.2,14.5L1781.8,768.3z"/>
	<path d="M1788.5,783.6l32.8-13.2l1.5,3.8l-32.8,13.2L1788.5,783.6z M1792.3,793.1l32.8-13.2l0.8,1.9l-32.8,13.2L1792.3,793.1z
		 M1795.3,800.7l32.8-13.2l0.8,1.9l-32.8,13.2L1795.3,800.7z"/>
	<path d="M1799.9,812.5l33.3-11.8l0.7,1.9l-33.3,11.8L1799.9,812.5z M1801.3,816.4l33.3-11.8l2.1,5.8l-33.3,11.8L1801.3,816.4z
		 M1805.4,828l33.3-11.8l1.4,3.9l-33.3,11.8L1805.4,828z"/>
	<path d="M1810.2,841.9l33.8-10.5l1.2,3.9l-33.8,10.5L1810.2,841.9z M1812,847.7l33.8-10.5l0.6,2l-33.8,10.5L1812,847.7z
		 M1814.4,855.6l33.8-10.5l0.6,2l-33.8,10.5L1814.4,855.6z"/>
	<path d="M1819.2,871.6l34.2-9.1l1.1,4l-34.2,9.1L1819.2,871.6z M1820.8,877.5l34.2-9.1l1.1,4l-34.2,9.1L1820.8,877.5z
		 M1822.9,885.4l34.2-9.1l1.1,4l-34.2,9.1L1822.9,885.4z"/>
	<path d="M1827,901.7l34.5-7.7l0.4,2l-34.5,7.7L1827,901.7z M1828.8,909.7l34.5-7.7l0.9,4l-34.5,7.7L1828.8,909.7z M1830.1,915.6
		l34.5-7.7l1.3,6l-34.5,7.7L1830.1,915.6z"/>
	<path d="M1833.6,932l34.8-6.3l0.4,2L1834,934L1833.6,932z M1835.1,940.1l34.8-6.3l1.1,6l-34.8,6.3L1835.1,940.1z M1836.5,948.1
		l34.8-6.3l0.7,4l-34.8,6.3L1836.5,948.1z"/>
	<path d="M1838.9,962.6l35-4.8l0.3,2l-35,4.8L1838.9,962.6z M1839.5,966.7l35-4.8l0.3,2l-35,4.8L1839.5,966.7z M1840.6,974.8l35-4.8
		l0.6,4.1l-35,4.8L1840.6,974.8z"/>
	<path d="M1843,993.4l35.2-3.4l0.2,2l-35.2,3.4L1843,993.4z M1843.4,997.5l35.2-3.4l0.4,4.1l-35.2,3.4L1843.4,997.5z M1844.4,1007.7
		l35.2-3.4l0.2,2l-35.2,3.4L1844.4,1007.7z"/>
	<path d="M1845.9,1024.4l35.3-2l0.2,4.1l-35.3,2L1845.9,1024.4z M1846.5,1034.6l35.3-2l0.1,2l-35.3,2L1846.5,1034.6z M1846.9,1042.8
		l35.3-2l0.1,2l-35.3,2L1846.9,1042.8z"/>
	<path d="M1847.5,1055.4l35.3-0.6l0,2l-35.3,0.6L1847.5,1055.4z M1847.6,1059.5l35.3-0.6l0.1,6.1l-35.3,0.6L1847.6,1059.5z
		 M1847.8,1071.8l35.3-0.6l0.1,4.1l-35.3,0.6L1847.8,1071.8z"/>
	<path d="M1847.5,1100.8l35.3,0.8l0,2l-35.3-0.8L1847.5,1100.8z M1847.7,1092.6l35.3,0.8l0,2l-35.3-0.8L1847.7,1092.6z
		 M1847.8,1086.5l35.3,0.8l-0.1,4.1l-35.3-0.8L1847.8,1086.5z"/>
	<path d="M1846.1,1131.9l35.3,2.2l-0.3,4.1l-35.3-2.2L1846.1,1131.9z M1846.6,1123.7l35.3,2.2l-0.3,4.1l-35.3-2.2L1846.6,1123.7z
		 M1847,1117.6l35.3,2.2l-0.3,4.1l-35.3-2.2L1847,1117.6z"/>
	<path d="M1843.4,1162.8l35.2,3.6l-0.6,6.1l-35.2-3.6L1843.4,1162.8z M1844,1156.7l35.2,3.6l-0.4,4.1l-35.2-3.6L1844,1156.7z
		 M1844.9,1148.6l35.2,3.6l-0.2,2l-35.2-3.6L1844.9,1148.6z"/>
	<path d="M1839.1,1195.6l35,5l-0.6,4.1l-35-5L1839.1,1195.6z M1840.3,1187.5l35,5l-0.9,6.1l-35-5L1840.3,1187.5z M1841.5,1179.4
		l35,5l-0.3,2l-35-5L1841.5,1179.4z"/>
	<path d="M1834.6,1222.2l34.7,6.5l-0.7,4l-34.7-6.5L1834.6,1222.2z M1836.1,1214.2l34.7,6.5l-0.4,2l-34.7-6.5L1836.1,1214.2z
		 M1836.9,1210.2l34.7,6.5l-0.4,2l-34.7-6.5L1836.9,1210.2z"/>
	<path d="M1827.4,1256.6l34.5,7.9l-0.9,4l-34.5-7.9L1827.4,1256.6z M1829.2,1248.7l34.5,7.9l-0.5,2l-34.5-7.9L1829.2,1248.7z
		 M1831,1240.7l34.5,7.9l-0.5,2l-34.5-7.9L1831,1240.7z"/>
	<path d="M1819.1,1288.7l34.1,9.3l-0.5,2l-34.1-9.3L1819.1,1288.7z M1821.2,1280.8l34.1,9.3l-0.5,2l-34.1-9.3L1821.2,1280.8z
		 M1823.9,1270.9l34.1,9.3l-1.1,4l-34.1-9.3L1823.9,1270.9z"/>
	<path d="M1810.6,1316.5l33.7,10.6l-1.2,3.9l-33.7-10.6L1810.6,1316.5z M1814.3,1304.8l33.7,10.6l-1.9,5.9l-33.7-10.6L1814.3,1304.8
		z M1815.6,1300.9l33.7,10.6l-0.6,2l-33.7-10.6L1815.6,1300.9z"/>
	<path d="M1801.2,1343.9l33.2,12l-0.7,1.9l-33.2-12L1801.2,1343.9z M1804,1336.2l33.2,12l-0.7,1.9l-33.2-12L1804,1336.2z
		 M1806,1330.4l33.2,12l-1.4,3.8l-33.2-12L1806,1330.4z"/>
	<path d="M1789.9,1372.8l32.7,13.4l-1.6,3.8l-32.7-13.4L1789.9,1372.8z M1793,1365.3l32.7,13.4l-1.6,3.8l-32.7-13.4L1793,1365.3z
		 M1795.3,1359.6l32.7,13.4l-1.6,3.8l-32.7-13.4L1795.3,1359.6z"/>
	<path d="M1777.4,1401.3l32.1,14.7l-1.7,3.7l-32.1-14.7L1777.4,1401.3z M1780.8,1393.8l32.1,14.7l-1.7,3.7l-32.1-14.7L1780.8,1393.8
		z M1783.4,1388.3l32.1,14.7l-1.7,3.7l-32.1-14.7L1783.4,1388.3z"/>
	<path d="M1763.8,1429.2l31.5,16l-2.8,5.5l-31.5-16L1763.8,1429.2z M1766.6,1423.8l31.5,16l-1.9,3.7l-31.5-16L1766.6,1423.8z
		 M1770.3,1416.5l31.5,16l-0.9,1.8l-31.5-16L1770.3,1416.5z"/>
	<path d="M1748.1,1458.4l30.8,17.2l-2,3.6l-30.8-17.2L1748.1,1458.4z M1752.1,1451.2l30.8,17.2l-3,5.4l-30.8-17.2L1752.1,1451.2z
		 M1756.1,1444.1l30.8,17.2l-1,1.8l-30.8-17.2L1756.1,1444.1z"/>
	<path d="M1734.3,1481.6l30.1,18.5l-2.1,3.5l-30.1-18.5L1734.3,1481.6z M1738.6,1474.6l30.1,18.5l-1.1,1.7l-30.1-18.5L1738.6,1474.6
		z M1740.7,1471.1l30.1,18.5l-1.1,1.7l-30.1-18.5L1740.7,1471.1z"/>
	<path d="M1716.3,1509.4l29.3,19.7l-1.1,1.7l-29.3-19.7L1716.3,1509.4z M1722,1500.9l29.3,19.7l-2.3,3.4l-29.3-19.7L1722,1500.9z
		 M1724.3,1497.5l29.3,19.7l-1.1,1.7l-29.3-19.7L1724.3,1497.5z"/>
	<path d="M1696,1538.1l28.5,20.8l-1.2,1.7l-28.5-20.8L1696,1538.1z M1700.8,1531.5l28.5,20.8l-1.2,1.7l-28.5-20.8L1700.8,1531.5z
		 M1706.8,1523.2l28.5,20.8l-2.4,3.3l-28.5-20.8L1706.8,1523.2z"/>
	<path d="M1678.2,1561l27.7,22l-2.5,3.2l-27.7-22L1678.2,1561z M1685.8,1551.4l27.7,22l-3.8,4.8l-27.7-22L1685.8,1551.4z
		 M1688.4,1548.2l27.7,22l-1.3,1.6l-27.7-22L1688.4,1548.2z"/>
	<path d="M1659.5,1583.2l26.8,23.1l-1.3,1.6l-26.8-23.1L1659.5,1583.2z M1664.8,1577.1l26.8,23.1l-1.3,1.6l-26.8-23.1L1664.8,1577.1
		z M1668.9,1572.4l26.8,23.1l-2.7,3.1l-26.8-23.1L1668.9,1572.4z"/>
	<path d="M1638.6,1606.3l25.8,24.1l-2.8,3l-25.8-24.1L1638.6,1606.3z M1644.2,1600.3l25.8,24.1l-2.8,3l-25.8-24.1L1644.2,1600.3z
		 M1648.4,1595.8l25.8,24.1l-2.8,3l-25.8-24.1L1648.4,1595.8z"/>
	<path d="M1616.8,1628.4l24.8,25.1l-4.4,4.3l-24.8-25.1L1616.8,1628.4z M1621.2,1624.1l24.8,25.1l-2.9,2.9l-24.8-25.1L1621.2,1624.1
		z M1627,1618.4l24.8,25.1l-1.5,1.4l-24.8-25.1L1627,1618.4z"/>
	<path d="M1592.6,1651.1l23.8,26.1l-3,2.8l-23.8-26.1L1592.6,1651.1z M1598.7,1645.6l23.8,26.1l-4.5,4.1l-23.8-26.1L1598.7,1645.6z
		 M1604.8,1640.1l23.8,26.1l-1.5,1.4l-23.8-26.1L1604.8,1640.1z"/>
	<path d="M1572.2,1668.7l22.7,27.1l-3.1,2.6l-22.7-27.1L1572.2,1668.7z M1578.5,1663.5l22.7,27.1l-1.6,1.3l-22.7-27.1L1578.5,1663.5
		z M1581.6,1660.8l22.7,27.1l-1.6,1.3l-22.7-27.1L1581.6,1660.8z"/>
	<path d="M1546.4,1689.4l21.6,28l-1.6,1.3l-21.6-28L1546.4,1689.4z M1554.5,1683.2l21.6,28l-3.2,2.5l-21.6-27.9L1554.5,1683.2z
		 M1557.7,1680.7l21.6,28l-1.6,1.3l-21.6-28L1557.7,1680.7z"/>
	<path d="M1517.9,1710.2l20.5,28.8l-1.7,1.2l-20.5-28.8L1517.9,1710.2z M1524.6,1705.4l20.5,28.8l-1.7,1.2l-20.5-28.8L1524.6,1705.4
		z M1533,1699.5l20.5,28.8l-3.3,2.4l-20.5-28.8L1533,1699.5z"/>
	<path d="M1493.8,1726.3l19.3,29.6l-3.4,2.2l-19.3-29.6L1493.8,1726.3z M1504.1,1719.6l19.3,29.6l-5.2,3.3l-19.3-29.6L1504.1,1719.6
		z M1507.5,1717.4l19.3,29.6l-1.7,1.1l-19.3-29.6L1507.5,1717.4z"/>
	<path d="M1469,1741.5l18.1,30.4l-1.8,1l-18.1-30.4L1469,1741.5z M1476.1,1737.3l18.1,30.4l-1.8,1l-18.1-30.4L1476.1,1737.3z
		 M1481.4,1734.1l18.1,30.4l-3.5,2.1l-18.1-30.4L1481.4,1734.1z"/>
	<path d="M1441.9,1756.7l16.8,31.1l-3.6,1.9l-16.8-31.1L1441.9,1756.7z M1449.1,1752.8l16.8,31.1l-3.6,1.9l-16.8-31.1L1449.1,1752.8
		z M1454.5,1749.9l16.8,31.1l-3.6,1.9l-16.8-31.1L1454.5,1749.9z"/>
	<path d="M1414.2,1770.8l15.5,31.7l-5.5,2.7l-15.5-31.7L1414.2,1770.8z M1419.7,1768.1l15.5,31.7l-3.7,1.8l-15.5-31.7L1419.7,1768.1
		z M1427.1,1764.5l15.5,31.7l-1.8,0.9l-15.5-31.7L1427.1,1764.5z"/>
	<path d="M1384.1,1784.6l14.2,32.3l-3.8,1.6l-14.2-32.3L1384.1,1784.6z M1391.6,1781.3l14.2,32.3l-5.6,2.5l-14.2-32.3L1391.6,1781.3
		z M1399.1,1778l14.2,32.3l-1.9,0.8l-14.2-32.3L1399.1,1778z"/>
	<path d="M1359.1,1794.8l12.9,32.9l-3.8,1.5l-12.9-32.9L1359.1,1794.8z M1366.7,1791.8l12.9,32.9l-1.9,0.7l-12.9-32.9L1366.7,1791.8
		z M1370.5,1790.3l12.9,32.9l-1.9,0.7l-12.9-32.9L1370.5,1790.3z"/>
	<path d="M1326,1806.8l11.5,33.4l-3.9,1.3l-11.5-33.4L1326,1806.8z M1333.8,1804.2l11.5,33.4l-1.9,0.7l-11.5-33.4L1333.8,1804.2z
		 M1341.5,1801.5l11.5,33.4l-1.9,0.7l-11.5-33.4L1341.5,1801.5z"/>
	<path d="M1294.4,1816.8l10.2,33.8l-2,0.6l-10.2-33.8L1294.4,1816.8z M1302.3,1814.4l10.2,33.8l-2,0.6l-10.2-33.8L1302.3,1814.4z
		 M1312.1,1811.5l10.2,33.8l-3.9,1.2l-10.2-33.8L1312.1,1811.5z"/>
	<path d="M1266.4,1824.3l8.8,34.2l-4,1l-8.8-34.2L1266.4,1824.3z M1278.3,1821.3l8.8,34.2l-6,1.5l-8.8-34.2L1278.3,1821.3z
		 M1282.2,1820.3l8.8,34.2l-2,0.5l-8.8-34.2L1282.2,1820.3z"/>
	<path d="M1238.1,1830.8l7.4,34.5l-2,0.4l-7.4-34.5L1238.1,1830.8z M1246.1,1829.1l7.4,34.5l-2,0.4l-7.4-34.5L1246.1,1829.1z
		 M1252.1,1827.8l7.4,34.5l-4,0.9l-7.4-34.5L1252.1,1827.8z"/>
	<path d="M1207.5,1836.5l6,34.8l-4,0.7l-6-34.8L1207.5,1836.5z M1215.6,1835.2l6,34.8l-4,0.7l-6-34.8L1215.6,1835.2z M1221.6,1834.1
		l6,34.8l-4,0.7l-6-34.8L1221.6,1834.1z"/>
	<path d="M1176.7,1841l4.5,35l-4.1,0.5l-4.5-35L1176.7,1841z M1184.9,1840l4.5,35l-4.1,0.5l-4.5-35L1184.9,1840z M1191,1839.2
		l4.5,35l-4.1,0.5l-4.5-35L1191,1839.2z"/>
	<path d="M1145.8,1844.3l3.1,35.2l-6.1,0.5l-3.1-35.2L1145.8,1844.3z M1151.9,1843.7l3.1,35.2l-4.1,0.4l-3.1-35.2L1151.9,1843.7z
		 M1160.1,1843l3.1,35.2l-2,0.2l-3.1-35.2L1160.1,1843z"/>
	<path d="M1112.7,1846.4l1.7,35.3l-4.1,0.2l-1.7-35.3L1112.7,1846.4z M1120.9,1846l1.7,35.3l-6.1,0.3l-1.7-35.3L1120.9,1846z
		 M1129.1,1845.6l1.7,35.3l-2,0.1l-1.7-35.3L1129.1,1845.6z"/>
	<path d="M1085.7,1847l0.6,35.3l-4.1,0.1l-0.6-35.3L1085.7,1847z M1093.9,1846.9l0.6,35.3l-2,0l-0.6-35.3L1093.9,1846.9z
		 M1097.9,1846.8l0.6,35.3l-2,0l-0.6-35.3L1097.9,1846.8z"/>
	<path d="M1052.6,1846.6l-1.1,35.3l-2-0.1l1.1-35.3L1052.6,1846.6z M1062.8,1846.9l-1.1,35.3l-4.1-0.1l1.1-35.3L1062.8,1846.9z
		 M1066.9,1847l-1.1,35.3l-2-0.1l1.1-35.3L1066.9,1847z"/>
	<path d="M1017.4,1844.6l-2.5,35.2l-2-0.1l2.5-35.2L1017.4,1844.6z M1025.6,1845.1l-2.5,35.2l-2-0.1l2.5-35.2L1025.6,1845.1z
		 M1035.8,1845.9l-2.5,35.2l-4.1-0.3l2.5-35.2L1035.8,1845.9z"/>
	<path d="M988.5,1841.7l-3.9,35.1l-4.1-0.5l3.9-35.1L988.5,1841.7z M1000.8,1843l-3.9,35.1l-6.1-0.7l3.9-35.1L1000.8,1843z
		 M1004.8,1843.5l-3.9,35.1l-2-0.2l3.9-35.1L1004.8,1843.5z"/>
	<path d="M959.8,1837.7l-5.4,34.9l-2-0.3l5.4-34.9L959.8,1837.7z M967.9,1838.9l-5.4,34.9l-2-0.3l5.4-34.9L967.9,1838.9z
		 M973.9,1839.9l-5.4,34.9l-4-0.6l5.4-34.9L973.9,1839.9z"/>
	<path d="M929.1,1832.2l-6.8,34.7l-4-0.8l6.8-34.7L929.1,1832.2z M937.2,1833.8l-6.8,34.7l-4-0.8l6.8-34.7L937.2,1833.8z
		 M943.2,1835l-6.8,34.7l-4-0.8l6.8-34.7L943.2,1835z"/>
	<path d="M898.8,1825.5l-8.2,34.4l-6-1.4l8.2-34.4L898.8,1825.5z M904.8,1827l-8.2,34.4l-4-0.9l8.2-34.4L904.8,1827z M912.7,1828.9
		l-8.2,34.4l-2-0.5l8.2-34.4L912.7,1828.9z"/>
	<path d="M866.8,1817.1l-9.6,34l-3.9-1.1l9.6-34L866.8,1817.1z M874.6,1819.3l-9.6,34l-5.9-1.7l9.6-34L874.6,1819.3z M882.5,1821.5
		l-9.6,34l-2-0.6l9.6-34L882.5,1821.5z"/>
	<path d="M840.9,1809.1l-11,33.6l-3.9-1.3l11-33.6L840.9,1809.1z M848.7,1811.7l-11,33.6l-1.9-0.6l11-33.6L848.7,1811.7z
		 M852.6,1812.9l-11,33.6l-1.9-0.6l11-33.6L852.6,1812.9z"/>
	<path d="M809.7,1798.1l-12.3,33.1l-1.9-0.7l12.3-33.1L809.7,1798.1z M819.3,1801.7l-12.3,33.1l-3.8-1.4l12.3-33.1L819.3,1801.7z
		 M823.1,1803.1l-12.3,33.1l-1.9-0.7l12.3-33.1L823.1,1803.1z"/>
	<path d="M777,1785l-13.7,32.6l-1.9-0.8l13.7-32.6L777,1785z M784.6,1788.2l-13.7,32.6l-1.9-0.8l13.7-32.6L784.6,1788.2z
		 M794,1792.1l-13.7,32.6l-3.8-1.6l13.7-32.6L794,1792.1z"/>
	<path d="M750.6,1773l-15,32l-3.7-1.7l15-32L750.6,1773z M761.7,1778.2l-15,32l-5.6-2.6l15-32L761.7,1778.2z M765.4,1780l-15,32
		l-1.9-0.9l15-32L765.4,1780z"/>
	<path d="M724.6,1760.1l-16.3,31.4l-1.8-0.9l16.3-31.4L724.6,1760.1z M731.9,1763.8l-16.3,31.4l-1.8-0.9l16.3-31.4L731.9,1763.8z
		 M737.3,1766.7l-16.3,31.4l-3.6-1.9l16.3-31.4L737.3,1766.7z"/>
	<path d="M697.3,1745.1l-17.5,30.7l-3.6-2l17.5-30.7L697.3,1745.1z M704.5,1749.2l-17.5,30.7l-3.6-2l17.5-30.7L704.5,1749.2z
		 M709.8,1752.2l-17.5,30.7l-3.6-2l17.5-30.7L709.8,1752.2z"/>
	<path d="M670.7,1729.1L652,1759l-5.2-3.3l18.7-29.9L670.7,1729.1z M675.9,1732.3l-18.7,29.9l-3.5-2.2l18.7-29.9L675.9,1732.3z
		 M682.9,1736.7l-18.7,29.9l-1.7-1.1l18.7-29.9L682.9,1736.7z"/>
	<path d="M643.1,1710.8l-19.9,29.1l-3.4-2.3l19.9-29.1L643.1,1710.8z M649.8,1715.4l-19.9,29.1l-5.1-3.5l19.9-29.2L649.8,1715.4z
		 M656.6,1720l-19.9,29.1l-1.7-1.2l19.9-29.1L656.6,1720z"/>
	<path d="M621.2,1695l-21.1,28.3l-3.3-2.4l21.1-28.3L621.2,1695z M627.7,1699.9l-21.1,28.3l-1.6-1.2l21.1-28.3L627.7,1699.9z
		 M631,1702.4l-21.1,28.3l-1.6-1.2l21.1-28.3L631,1702.4z"/>
	<path d="M595,1674.7l-22.2,27.4l-1.6-1.3l22.2-27.4L595,1674.7z M603,1681.1l-22.2,27.4l-3.2-2.6l22.2-27.4L603,1681.1z
		 M606.2,1683.7l-22.2,27.4l-1.6-1.3l22.2-27.4L606.2,1683.7z"/>
	<path d="M568.3,1651.8l-23.3,26.5l-1.5-1.3l23.3-26.5L568.3,1651.8z M574.4,1657.2l-23.3,26.5l-1.5-1.4l23.3-26.5L574.4,1657.2z
		 M582.1,1664l-23.3,26.5l-3.1-2.7l23.3-26.5L582.1,1664z"/>
	<path d="M547,1632.1l-24.4,25.6l-3-2.8l24.4-25.6L547,1632.1z M555.9,1640.5l-24.4,25.6l-4.5-4.2l24.4-25.6L555.9,1640.5z
		 M558.9,1643.3l-24.4,25.6l-1.5-1.4l24.4-25.6L558.9,1643.3z"/>
	<path d="M526.5,1611.5l-25.4,24.6l-1.4-1.5l25.4-24.6L526.5,1611.5z M532.2,1617.4l-25.4,24.6l-1.4-1.5l25.4-24.6L532.2,1617.4z
		 M536.5,1621.8l-25.4,24.6l-2.9-2.9l25.4-24.6L536.5,1621.8z"/>
	<path d="M505.4,1588.7l-26.4,23.5l-2.7-3.1l26.4-23.5L505.4,1588.7z M510.9,1594.8l-26.4,23.5l-2.7-3.1l26.4-23.5L510.9,1594.8z
		 M514.9,1599.4l-26.4,23.5l-2.7-3.1l26.4-23.5L514.9,1599.4z"/>
	<path d="M485.2,1565l-27.3,22.5l-3.9-4.7l27.3-22.5L485.2,1565z M489.1,1569.8l-27.3,22.5l-2.6-3.2l27.3-22.5L489.1,1569.8z
		 M494.4,1576.1l-27.3,22.5l-1.3-1.6l27.3-22.5L494.4,1576.1z"/>
	<path d="M464.8,1538.9l-28.2,21.3l-2.5-3.3l28.2-21.3L464.8,1538.9z M469.8,1545.5l-28.2,21.3l-3.7-4.9l28.2-21.3L469.8,1545.5z
		 M474.7,1552l-28.2,21.3l-1.2-1.6l28.2-21.3L474.7,1552z"/>
	<path d="M449,1517l-29,20.2l-2.3-3.4l29-20.2L449,1517z M453.7,1523.8l-29,20.2l-1.2-1.7l29-20.2L453.7,1523.8z M456.1,1527.1
		l-29,20.2l-1.2-1.7l29-20.2L456.1,1527.1z"/>
	<path d="M430.7,1489.5l-29.8,19l-1.1-1.7l29.8-19L430.7,1489.5z M436.2,1498.1l-29.8,19l-2.2-3.5l29.8-19L436.2,1498.1z
		 M438.4,1501.5l-29.8,19l-1.1-1.7l29.8-19L438.4,1501.5z"/>
	<path d="M412.6,1459.3l-30.5,17.8l-1-1.8l30.5-17.8L412.6,1459.3z M416.7,1466.4l-30.5,17.8l-1-1.8l30.5-17.8L416.7,1466.4z
		 M421.8,1475.2l-30.5,17.8l-2.1-3.5l30.5-17.8L421.8,1475.2z"/>
	<path d="M398.7,1433.8l-31.2,16.5l-1.9-3.6l31.2-16.5L398.7,1433.8z M404.4,1444.7l-31.2,16.5l-2.9-5.4l31.2-16.5L404.4,1444.7z
		 M406.3,1448.3l-31.2,16.5l-1-1.8l31.2-16.5L406.3,1448.3z"/>
	<path d="M385.8,1407.9l-31.9,15.2l-0.9-1.8l31.9-15.2L385.8,1407.9z M389.3,1415.2l-31.9,15.2l-0.9-1.8l31.9-15.2L389.3,1415.2z
		 M391.9,1420.8l-31.9,15.2l-1.8-3.7l31.9-15.2L391.9,1420.8z"/>
	<path d="M373,1379.5l-32.5,13.9l-1.6-3.8l32.5-13.9L373,1379.5z M376.3,1387l-32.5,13.9l-1.6-3.8l32.5-13.9L376.3,1387z
		 M378.7,1392.7l-32.5,13.9l-1.6-3.8l32.5-13.9L378.7,1392.7z"/>
	<path d="M361.5,1350.7l-33,12.6l-2.2-5.7l33-12.6L361.5,1350.7z M363.6,1356.4l-33,12.6l-1.5-3.8l33-12.6L363.6,1356.4z
		 M366.6,1364l-33,12.6l-0.7-1.9l33-12.6L366.6,1364z"/>
	<path d="M350.4,1319.4l-33.5,11.2l-1.3-3.9l33.5-11.2L350.4,1319.4z M353,1327.2l-33.5,11.2l-2-5.8l33.5-11.2L353,1327.2z
		 M355.6,1335l-33.5,11.2l-0.7-1.9L355,1333L355.6,1335z"/>
	<path d="M342.5,1293.7l-33.9,9.9l-1.1-3.9l33.9-9.9L342.5,1293.7z M344.8,1301.5l-33.9,9.9l-0.6-2l33.9-9.9L344.8,1301.5z
		 M345.9,1305.5l-33.9,9.9l-0.6-2l33.9-9.9L345.9,1305.5z"/>
	<path d="M334,1261.7l-34.3,8.5l-0.5-2l34.3-8.5L334,1261.7z M336.4,1271.6l-34.3,8.5l-1-4l34.3-8.5L336.4,1271.6z M337.4,1275.6
		l-34.3,8.5l-0.5-2l34.3-8.5L337.4,1275.6z"/>
	<path d="M326.4,1227.3l-34.6,7.1l-0.4-2l34.6-7.1L326.4,1227.3z M328.1,1235.4l-34.6,7.1l-0.4-2l34.6-7.1L328.1,1235.4z
		 M330.1,1245.4l-34.6,7.1l-0.8-4l34.6-7.1L330.1,1245.4z"/>
	<path d="M321.4,1198.7l-34.9,5.7l-0.7-4l34.9-5.7L321.4,1198.7z M323.4,1210.9l-34.9,5.7l-1-6.1l34.9-5.7L323.4,1210.9z
		 M324.1,1214.9l-34.9,5.7l-0.3-2l34.9-5.7L324.1,1214.9z"/>
	<path d="M317.5,1170l-35.1,4.2l-0.2-2l35.1-4.2L317.5,1170z M318.5,1178.1l-35.1,4.2l-0.2-2l35.1-4.2L318.5,1178.1z M319.2,1184.2
		l-35.1,4.2l-0.5-4.1l35.1-4.2L319.2,1184.2z"/>
	<path d="M314.5,1139.1l-35.2,2.8l-0.3-4.1l35.2-2.8L314.5,1139.1z M315.2,1147.2L280,1150l-0.3-4.1l35.2-2.8L315.2,1147.2z
		 M315.7,1153.3l-35.2,2.8l-0.3-4.1l35.2-2.8L315.7,1153.3z"/>
	<path d="M312.8,1108l-35.3,1.4l-0.2-6.1l35.3-1.4L312.8,1108z M313,1114.2l-35.3,1.4l-0.2-4.1l35.3-1.4L313,1114.2z M313.4,1122.4
		l-35.3,1.4l-0.1-2l35.3-1.4L313.4,1122.4z"/>
	<path d="M312.2,1074.9l-35.3,0.6l-0.1-4.1l35.3-0.6L312.2,1074.9z M312.4,1083.1l-35.3,0.6l-0.1-6.1l35.3-0.6L312.4,1083.1z
		 M312.5,1091.3l-35.3,0.6l0-2l35.3-0.6L312.5,1091.3z"/>
	<path d="M312.5,1060.2l-35.3-1.4l0.1-2l35.3,1.4L312.5,1060.2z M312.6,1056.1l-35.3-1.4l0.1-2l35.3,1.4L312.6,1056.1z M313,1048
		l-35.3-1.4l0.2-4.1l35.3,1.4L313,1048z"/>
	<path d="M313.9,1029.2l-35.2-2.8l0.2-2l35.2,2.8L313.9,1029.2z M314.2,1025.1l-35.2-2.8l0.3-4.1l35.2,2.8L314.2,1025.1z
		 M315,1014.9l-35.2-2.8l0.2-2l35.2,2.8L315,1014.9z"/>
	<path d="M316.5,998.2l-35.1-4.2l0.5-4.1l35.1,4.2L316.5,998.2z M317.8,988.1l-35.1-4.2l0.2-2L318,986L317.8,988.1z M318.7,980
		l-35.1-4.2l0.2-2l35.1,4.2L318.7,980z"/>
	<path d="M320.4,967.4l-34.9-5.7l0.3-2l34.9,5.7L320.4,967.4z M321.1,963.4l-34.9-5.7l1-6.1l34.9,5.7L321.1,963.4z M323.1,951.2
		l-34.9-5.7l0.7-4l34.9,5.7L323.1,951.2z"/>
	<path d="M325.6,936.8l-34.6-7.1l0.8-4l34.6,7.1L325.6,936.8z M326.8,930.7l-34.6-7.1l0.4-2l34.6,7.1L326.8,930.7z M328.5,922.7
		l-34.6-7.1l0.4-2l34.6,7.1L328.5,922.7z"/>
	<path d="M332,906.4l-34.3-8.5l1-4l34.3,8.5L332,906.4z M333.5,900.4l-34.3-8.5l1-4l34.3,8.5L333.5,900.4z M335.4,892.5l-34.3-8.5
		l1-4l34.3,8.5L335.4,892.5z"/>
	<path d="M339.6,876.2l-33.9-9.9l0.6-2l33.9,9.9L339.6,876.2z M341.9,868.4l-33.9-9.9l1.1-3.9l33.9,9.9L341.9,868.4z M343.6,862.5
		l-33.9-9.9l1.7-5.9l33.9,9.9L343.6,862.5z"/>
	<path d="M348.5,846.5L315,835.2l0.7-1.9l33.5,11.2L348.5,846.5z M351.1,838.7l-33.5-11.2l2-5.8l33.5,11.2L351.1,838.7z
		 M353.7,830.9l-33.5-11.2l1.3-3.9l33.5,11.2L353.7,830.9z"/>
	<path d="M358.5,817.1l-33-12.6l0.7-1.9l33,12.6L358.5,817.1z M360,813.2l-33-12.6l0.7-1.9l33,12.6L360,813.2z M362.9,805.6
		l-33-12.6l1.5-3.8l33,12.6L362.9,805.6z"/>
	<path d="M369.8,788.1l-32.5-13.9l0.8-1.9l32.5,13.9L369.8,788.1z M373,780.6l-32.5-13.9l0.8-1.9l32.5,13.9L373,780.6z M376.2,773.1
		l-32.5-13.9l1.6-3.8l32.5,13.9L376.2,773.1z"/>
	<path d="M382.2,759.6l-31.9-15.2l1.8-3.7l31.9,15.2L382.2,759.6z M386.6,750.4l-31.9-15.2l0.9-1.8l31.9,15.2L386.6,750.4z
		 M390.2,743l-31.9-15.2l0.9-1.8l31.9,15.2L390.2,743z"/>
	<path d="M395.8,731.7l-31.2-16.5l1-1.8l31.2,16.5L395.8,731.7z M397.7,728.1l-31.2-16.5l2.9-5.4l31.2,16.5L397.7,728.1z
		 M403.4,717.2l-31.2-16.5l1.9-3.6l31.2,16.5L403.4,717.2z"/>
	<path d="M410.5,704.3l-30.5-17.8l2.1-3.5l30.5,17.8L410.5,704.3z M413.6,699L383,681.2l1-1.8l30.5,17.8L413.6,699z M417.7,691.9
		l-30.5-17.8l1-1.8l30.5,17.8L417.7,691.9z"/>
	<path d="M426.3,677.5l-29.8-19l2.2-3.5l29.8,19L426.3,677.5z M429.6,672.4l-29.8-19l2.2-3.5l29.8,19L429.6,672.4z M434,665.4
		l-29.8-19l2.2-3.5l29.8,19L434,665.4z"/>
	<path d="M443.2,651.4l-29-20.2l2.3-3.4l29,20.2L443.2,651.4z M446.7,646.4l-29-20.2l2.3-3.4l29,20.2L446.7,646.4z M451.3,639.7
		l-29-20.2l2.3-3.4l29,20.2L451.3,639.7z"/>
	<path d="M461.1,626l-28.2-21.3l1.2-1.6l28.2,21.3L461.1,626z M466,619.5l-28.2-21.3l2.5-3.3l28.2,21.3L466,619.5z M469.7,614.6
		l-28.2-21.3l3.7-4.9l28.2,21.3L469.7,614.6z"/>
	<path d="M480,601.4l-27.3-22.4l1.3-1.6l27.3,22.4L480,601.4z M485.2,595.1l-27.3-22.4l3.9-4.7l27.3,22.4L485.2,595.1z M490.4,588.7
		l-27.3-22.4l2.6-3.2l27.3,22.4L490.4,588.7z"/>
	<path d="M499.9,577.5L473.6,554l1.4-1.5l26.4,23.5L499.9,577.5z M502.6,574.4l-26.4-23.5l1.4-1.5l26.4,23.5L502.6,574.4z
		 M508.1,568.3l-26.4-23.5l2.7-3.1l26.4,23.5L508.1,568.3z"/>
	<path d="M520.8,554.5l-25.4-24.6l1.4-1.5l25.4,24.6L520.8,554.5z M523.6,551.5l-25.4-24.6l2.9-2.9l25.4,24.6L523.6,551.5z
		 M530.7,544.2l-25.4-24.6l1.4-1.5l25.4,24.6L530.7,544.2z"/>
	<path d="M542.5,532.3l-24.4-25.6l3-2.8l24.4,25.6L542.5,532.3z M549.9,525.2l-24.4-25.6l1.5-1.4l24.4,25.6L549.9,525.2z
		 M555.9,519.6L531.5,494l1.5-1.4l24.4,25.6L555.9,519.6z"/>
	<path d="M565.2,510.9l-23.3-26.5l1.5-1.3l23.3,26.5L565.2,510.9z M568.2,508.2l-23.3-26.5l4.6-4.1l23.3,26.5L568.2,508.2z
		 M577.5,500.1l-23.3-26.5l3.1-2.7l23.3,26.5L577.5,500.1z"/>
	<path d="M588.6,490.6l-22.2-27.4l3.2-2.6l22.2,27.4L588.6,490.6z M593.4,486.7l-22.2-27.4l1.6-1.3l22.2,27.4L593.4,486.7z
		 M599.8,481.6l-22.2-27.4l1.6-1.3l22.2,27.4L599.8,481.6z"/>
	<path d="M612.9,471.2l-21.1-28.3l3.3-2.4l21.1,28.3L612.9,471.2z M617.9,467.5l-21.1-28.3l3.3-2.4l21.1,28.3L617.9,467.5z
		 M624.4,462.6l-21.1-28.3l3.3-2.4l21.1,28.3L624.4,462.6z"/>
	<path d="M638,452.7L618,423.6l1.7-1.2l19.9,29.1L638,452.7z M644.7,448.1L624.8,419l3.4-2.3l19.9,29.1L644.7,448.1z M649.8,444.7
		l-19.9-29.1l5.1-3.5l19.9,29.1L649.8,444.7z"/>
	<path d="M663.7,435.4L645,405.4l1.7-1.1l18.8,29.9L663.7,435.4z M670.7,431l-18.8-29.9l5.2-3.3l18.8,29.9L670.7,431z M677.6,426.7
		l-18.8-29.9l3.5-2.2l18.8,29.9L677.6,426.7z"/>
	<path d="M690.2,419l-17.5-30.7l1.8-1L692,418L690.2,419z M693.7,417l-17.5-30.7l1.8-1l17.5,30.7L693.7,417z M700.9,412.9
		l-17.5-30.7l3.6-2l17.5,30.7L700.9,412.9z"/>
	<path d="M717.3,403.8L701,372.4l1.8-0.9l16.3,31.4L717.3,403.8z M720.9,401.9l-16.3-31.4l3.6-1.9l16.3,31.4L720.9,401.9z
		 M730,397.2l-16.3-31.4l1.8-0.9l16.3,31.4L730,397.2z"/>
	<path d="M745,389.6l-15-32l3.7-1.7l15,32L745,389.6z M754.2,385.3l-15-32l1.9-0.9l15,32L754.2,385.3z M761.7,381.8l-15-32l1.9-0.9
		l15,32L761.7,381.8z"/>
	<path d="M773.2,376.6l-13.7-32.6l1.9-0.8l13.7,32.6L773.2,376.6z M777,375l-13.7-32.6l5.7-2.4l13.7,32.6L777,375z M788.3,370.3
		l-13.7-32.6l3.8-1.6l13.7,32.6L788.3,370.3z"/>
	<path d="M802,364.8l-12.3-33.1l3.8-1.4l12.3,33.1L802,364.8z M807.7,362.6l-12.3-33.1l1.9-0.7l12.3,33.1L807.7,362.6z M815.4,359.8
		l-12.3-33.1l1.9-0.7l12.3,33.1L815.4,359.8z"/>
	<path d="M831.2,354.1l-11-33.6l3.9-1.3l11,33.6L831.2,354.1z M837,352.2l-11-33.6l3.9-1.3l11,33.6L837,352.2z M844.8,349.7
		l-11-33.6l3.9-1.3l11,33.6L844.8,349.7z"/>
	<path d="M860.8,344.7l-9.6-34l2-0.6l9.6,34L860.8,344.7z M868.7,342.4l-9.6-34l3.9-1.1l9.6,34L868.7,342.4z M874.6,340.8l-9.6-34
		l5.9-1.7l9.6,34L874.6,340.8z"/>
	<path d="M890.8,336.4l-8.2-34.4l2-0.5l8.2,34.4L890.8,336.4z M898.7,334.5l-8.2-34.4l6-1.4l8.2,34.4L898.7,334.5z M906.7,332.6
		l-8.2-34.4l4-0.9l8.2,34.4L906.7,332.6z"/>
	<path d="M921.1,329.4l-6.8-34.7l2-0.4l6.8,34.7L921.1,329.4z M925.1,328.6l-6.8-34.7l2-0.4l6.8,34.7L925.1,328.6z M933.1,327
		l-6.8-34.7l4-0.8l6.8,34.7L933.1,327z"/>
	<path d="M951.6,323.6l-5.4-34.9l2-0.3l5.4,34.9L951.6,323.6z M959.7,322.4l-5.4-34.9l2-0.3l5.4,34.9L959.7,322.4z M967.8,321.1
		l-5.4-34.9l4-0.6l5.4,34.9L967.8,321.1z"/>
	<path d="M982.4,319.1l-3.9-35.1l4.1-0.5l3.9,35.1L982.4,319.1z M992.6,317.9l-3.9-35.1l2-0.2l3.9,35.1L992.6,317.9z M1000.7,317
		l-3.9-35.1l2-0.2l3.9,35.1L1000.7,317z"/>
	<path d="M1013.3,315.8l-2.5-35.2l2-0.1l2.5,35.2L1013.3,315.8z M1017.4,315.5l-2.5-35.2l6.1-0.4l2.5,35.2L1017.4,315.5z
		 M1029.7,314.6l-2.5-35.2l4.1-0.3l2.5,35.2L1029.7,314.6z"/>
	<path d="M1044.3,313.7l-1.1-35.3l4.1-0.1l1.1,35.3L1044.3,313.7z M1050.5,313.5l-1.1-35.3l2-0.1l1.1,35.3L1050.5,313.5z
		 M1058.7,313.3l-1.1-35.3l2-0.1l1.1,35.3L1058.7,313.3z"/>
</g>
</svg>
