<?xml version="1.0" encoding="utf-8"?>
<!-- Generator: Adobe Illustrator 25.2.3, SVG Export Plug-In . SVG Version: 6.00 Build 0)  -->
<svg version="1.1" id="レイヤー_1" xmlns="http://www.w3.org/2000/svg" xmlns:xlink="http://www.w3.org/1999/xlink" x="0px"
	 y="0px" viewBox="0 0 2160 2160" style="enable-background:new 0 0 2160 2160;" xml:space="preserve">
<style type="text/css">
	.st0{fill:none;stroke:#000000;stroke-width:1.9085;stroke-miterlimit:10;}
	.st1{fill:none;stroke:#000000;stroke-width:1.2723;stroke-miterlimit:10;}
	.st2{fill:none;stroke:#000000;stroke-width:1.800000e-02;stroke-miterlimit:10;}
</style>
<g>
	<g>
		<ellipse class="st0" cx="1080" cy="1004.2" rx="45.2" ry="45.2"/>
		<ellipse class="st1" cx="1080" cy="1034.8" rx="14.6" ry="14.6"/>
	</g>
	<g>
		<ellipse class="st0" cx="1060.4" cy="1006.8" rx="45.2" ry="45.2"/>
		<ellipse class="st1" cx="1068.3" cy="1036.4" rx="14.6" ry="14.6"/>
	</g>
	<g>
		<ellipse class="st0" cx="1042.1" cy="1014.3" rx="45.2" ry="45.2"/>
		<ellipse class="st1" cx="1057.4" cy="1040.9" rx="14.6" ry="14.6"/>
	</g>
	<g>
		<ellipse class="st0" cx="1026.3" cy="1026.4" rx="45.2" ry="45.2"/>
		<ellipse class="st1" cx="1048" cy="1048.1" rx="14.6" ry="14.6"/>
	</g>
	<g>
		<ellipse class="st0" cx="1014.3" cy="1042.1" rx="45.2" ry="45.2"/>
		<ellipse class="st1" cx="1040.8" cy="1057.4" rx="14.6" ry="14.6"/>
	</g>
	<g>
		<ellipse class="st0" cx="1006.7" cy="1060.4" rx="45.2" ry="45.2"/>
		<ellipse class="st1" cx="1036.3" cy="1068.3" rx="14.6" ry="14.6"/>
	</g>
	<g>
		<ellipse class="st0" cx="1004.1" cy="1080" rx="45.2" ry="45.2"/>
		<ellipse class="st1" cx="1034.8" cy="1080" rx="14.6" ry="14.6"/>
	</g>
	<g>
		<ellipse class="st0" cx="1006.7" cy="1099.6" rx="45.2" ry="45.2"/>
		<ellipse class="st1" cx="1036.3" cy="1091.7" rx="14.6" ry="14.6"/>
	</g>
	<g>
		<ellipse class="st0" cx="1014.3" cy="1117.9" rx="45.2" ry="45.2"/>
		<ellipse class="st1" cx="1040.8" cy="1102.6" rx="14.6" ry="14.6"/>
	</g>
	<g>
		<ellipse class="st0" cx="1026.3" cy="1133.6" rx="45.2" ry="45.2"/>
		<ellipse class="st1" cx="1048" cy="1111.9" rx="14.6" ry="14.6"/>
	</g>
	<g>
		<ellipse class="st0" cx="1042.1" cy="1145.7" rx="45.2" ry="45.2"/>
		<ellipse class="st1" cx="1057.4" cy="1119.1" rx="14.6" ry="14.6"/>
	</g>
	<g>
		<ellipse class="st0" cx="1060.4" cy="1153.2" rx="45.2" ry="45.2"/>
		<ellipse class="st1" cx="1068.3" cy="1123.6" rx="14.6" ry="14.6"/>
	</g>
	<g>
		<ellipse class="st0" cx="1080" cy="1155.8" rx="45.2" ry="45.2"/>
		<ellipse class="st2" cx="1080" cy="1139.2" rx="28.6" ry="28.6"/>
		<ellipse class="st1" cx="1080" cy="1125.2" rx="14.6" ry="14.6"/>
	</g>
	<g>
		<ellipse class="st0" cx="1099.6" cy="1153.2" rx="45.2" ry="45.2"/>
		<ellipse class="st1" cx="1091.7" cy="1123.6" rx="14.6" ry="14.6"/>
	</g>
	<g>
		<ellipse class="st0" cx="1117.9" cy="1145.7" rx="45.2" ry="45.2"/>
		<ellipse class="st1" cx="1102.6" cy="1119.1" rx="14.6" ry="14.6"/>
	</g>
	<g>
		<ellipse class="st0" cx="1133.7" cy="1133.6" rx="45.2" ry="45.2"/>
		<ellipse class="st1" cx="1112" cy="1111.9" rx="14.6" ry="14.6"/>
	</g>
	<g>
		<ellipse class="st0" cx="1145.7" cy="1117.9" rx="45.2" ry="45.2"/>
		<ellipse class="st1" cx="1119.2" cy="1102.6" rx="14.6" ry="14.6"/>
	</g>
	<g>
		<ellipse class="st0" cx="1153.3" cy="1099.6" rx="45.2" ry="45.2"/>
		<ellipse class="st1" cx="1123.7" cy="1091.7" rx="14.6" ry="14.6"/>
	</g>
	<g>
		<ellipse class="st0" cx="1155.9" cy="1080" rx="45.2" ry="45.2"/>
		<ellipse class="st1" cx="1125.2" cy="1080" rx="14.6" ry="14.6"/>
	</g>
	<g>
		<ellipse class="st0" cx="1153.3" cy="1060.4" rx="45.2" ry="45.2"/>
		<ellipse class="st1" cx="1123.7" cy="1068.3" rx="14.6" ry="14.6"/>
	</g>
	<g>
		<ellipse class="st0" cx="1145.7" cy="1042.1" rx="45.2" ry="45.2"/>
		<ellipse class="st1" cx="1119.2" cy="1057.4" rx="14.6" ry="14.6"/>
	</g>
	<g>
		<ellipse class="st0" cx="1133.7" cy="1026.4" rx="45.2" ry="45.2"/>
		<ellipse class="st1" cx="1112" cy="1048.1" rx="14.6" ry="14.6"/>
	</g>
	<g>
		<ellipse class="st0" cx="1117.9" cy="1014.3" rx="45.2" ry="45.2"/>
		<ellipse class="st1" cx="1102.6" cy="1040.9" rx="14.6" ry="14.6"/>
	</g>
	<g>
		<ellipse class="st0" cx="1099.6" cy="1006.8" rx="45.2" ry="45.2"/>
		<ellipse class="st1" cx="1091.7" cy="1036.4" rx="14.6" ry="14.6"/>
	</g>
</g>
</svg>
