<?xml version="1.0" encoding="utf-8"?>
<!-- Generator: Adobe Illustrator 25.2.3, SVG Export Plug-In . SVG Version: 6.00 Build 0)  -->
<svg version="1.1" id="レイヤー_1" xmlns="http://www.w3.org/2000/svg" xmlns:xlink="http://www.w3.org/1999/xlink" x="0px"
	 y="0px" viewBox="0 0 2160 2160" style="enable-background:new 0 0 2160 2160;" xml:space="preserve">
<g>
	<g>
		<path d="M1149.2,231l0,0.5l-67.3-5.7l0-0.5c10.5-2,19.5-3.5,24.7-7.7c3.3-2.6,13-61.8,16.4-84.2l1.1-7.4l0.5,0
			c0.1,23.8-1.2,90.4,1.4,93.2C1130.6,224.2,1146,229.4,1149.2,231z M1096.7,46.5l0-0.5l67.6,5.7l0,0.5c-4.7,0.6-19.4,3.3-24.7,7.5
			c-3.9,3-9,23.3-13.9,50.8l-0.5,0c-0.3-8.6,0.6-46.8-5.1-52.9C1115.6,52.5,1101.3,47.9,1096.7,46.5z M1227,238l-55.3-4.4l0-0.5
			l6.2,0.3c28.1,1.9,35.5-0.9,40.9-9c5-7.3,7.4-14.4,10.6-21.3l0.5,0c-1,14.4-1.7,22.9-2.4,34.5C1227.6,237.8,1227.3,238.1,1227,238
			z"/>
		<path d="M1331.9,78.9l-0.1,0.5c-37.6-9.1-71.8,29.6-82.7,71c-10.9,41.4-0.2,91.9,37,102.5l-0.1,0.5
			c-39.5-10.9-63.9-53.3-49.9-106.4C1250.2,93.1,1292.1,68.9,1331.9,78.9z M1312.6,260.3l0.1-0.5c37.6,9.1,71.8-29.6,82.7-71
			c10.9-41.4,0.2-91.9-37-102.5l0.1-0.5c39.5,10.9,64.1,52.5,49.9,106.4C1394.5,245.3,1352.4,270.3,1312.6,260.3z"/>
		<path d="M1426,300.2l-0.2,0.5l-64.2-30.7l0.2-0.5c9.6,2,22.3,4.7,25.6,3.4c4.9-1.9,32.9-35.1,57-62.8l35-40.1l0.5,0.2l-31,44.9
			c-20.4,28.8-44.3,62-43.2,65.1C1408,287,1421.5,296.5,1426,300.2z M1519.7,244.4l-0.2,0.5c-10.2-2.6-23.8-6.5-33.1-11
			c-10.2-4.9-17.6-11-26.7-17.6l0.2-0.5c10.3,2.9,21.1,4.9,30.9,9.6C1501,230.3,1510.6,237.7,1519.7,244.4z M1528.4,253.1l0.5,0.2
			c-6.2,35.6-11.6,77.3-10,82.4c1,3.3,11,11.6,18.7,17.8l-0.2,0.5l-64.2-30.7l0.2-0.5c5.7,1.3,21.6,5.7,28.4,3.3
			C1504.5,325.1,1518.8,285.1,1528.4,253.1z M1551.1,172.8c-8.6,17.9-14.2,49.2-19.8,70.5l-0.5-0.2c0.9-6.1,8.4-73.1,6.6-77.7
			c-1.7-3.7-32.2-23.4-46.5-33.1l0.2-0.5l87,41.6l-0.2,0.5c-6.8-0.7-21.9-3.3-25.5-2.2C1551.8,172,1551.3,172.4,1551.1,172.8z"/>
		<path d="M1577.8,386.8l-0.3,0.4l-53.9-40.7l0.3-0.4c9.9,3.9,18.3,7.4,25.1,6.6c4.2-0.4,43.9-45.3,58.8-62.5l4.9-5.7l0.4,0.3
			c-12.6,20.2-49.2,75.9-48.5,79.6C1565.6,371.2,1575.9,383.7,1577.8,386.8z M1604.2,407.4l0.3-0.4c32.4,23.4,79.3,1.1,105.1-33.1
			c25.8-34.1,34.5-85.4,3-110.1l0.3-0.4c33.5,25.9,41.4,74.5,7.8,118.9C1687.7,426.1,1638.3,432.4,1604.2,407.4z M1631.8,202.8
			l0.3-0.4l54.2,40.8l-0.3,0.4c-4.3-2-18.2-7.6-24.9-6.8c-4.9,0.5-20,14.9-38.9,35.6l-0.4-0.3c4.3-7.4,25.4-39.3,23.9-47.5
			C1644.6,217.9,1634.8,206.4,1631.8,202.8z"/>
		<path d="M1702.9,495.4l-0.4,0.4l-48.3-47.3l0.4-0.4c9.4,5.2,17.2,9.7,24,9.8c4.2,0.1,49.4-39.3,66.4-54.4l5.6-5l0.4,0.4
			c-15.1,18.4-58.6,68.9-58.4,72.8C1692.9,478.4,1701.4,492.2,1702.9,495.4z M1780.1,319.9l0.4-0.4l48.5,47.4l-0.4,0.4
			c-4-2.5-17.1-9.8-23.8-10c-4.9-0.1-21.8,12.3-43.1,30.3l-0.4-0.4c5.2-6.8,30.3-35.7,29.8-44
			C1790.8,336.5,1782.7,323.9,1780.1,319.9z"/>
		<path d="M1738.7,536.1l-0.4,0.3l-41.4-53.4l0.4-0.3c8.6,6.4,15.8,11.9,22.4,13c4.1,0.7,54.3-32.2,73.2-44.9l6.2-4.2l0.3,0.4
			c-17.5,16.1-67.5,60.3-67.8,64.1C1731.1,517.9,1737.7,532.7,1738.7,536.1z M1816.1,636l-0.4,0.3l-41.5-53.6l0.4-0.3
			c2.5,2,9.7,7.5,16.4,11.5c10.6-25.5,16.2-42.2,26.6-67.2l0.5,0.2c-11.6,48.7-15.1,61.8-12.5,64.7c4.8,5.8,32.5-16.6,38.1-20.3
			l0.3,0.4c-6.1,6-34.9,31.2-35.6,39.6C1807.7,618,1814,631.7,1816.1,636z M1839.2,372.7l0.4-0.3l41.5,53.6l-0.4,0.3
			c-2.1-1.9-8.5-6.8-14.8-10.7l-44.2,95.8l-0.5-0.2l25.9-74.4c4.1-11.6,5.8-16.9,2.6-20.2c-5.9-5.9-33.4,18-38,20.9l-0.3-0.4
			c6.1-6,34.9-31.2,35.6-39.6C1847.6,390.7,1841.2,377,1839.2,372.7z M1917.2,473.4l0.4-0.3l41.4,53.4l-0.4,0.3
			c-8.6-6.4-15.8-11.9-22.4-13c-4.1-0.7-54.3,32.2-73.2,44.9l-6.2,4.2l-0.3-0.4c17.5-16.1,67.5-60.3,67.8-64.1
			C1924.8,491.7,1918.2,476.9,1917.2,473.4z"/>
		<path d="M2004.3,615.6l-0.5,0.2c-19.4-36.7-71.9-38.2-110.1-19c-38.2,19.3-68.2,62.4-50.2,99.8l-0.5,0.2
			c-19.4-39.6-4.9-88.2,44.1-112.9C1936.9,558.9,1983.9,576.4,2004.3,615.6z M1934.9,740.3c0.1,0.2,0.1,0.8-0.3,1l-55.4,29.4
			l-0.2-0.5l6.3-4.1c10.5-6.7,17.5-12.9,22.2-17.8c-10.5,2.1-25.5-3.6-36.6-11.9c-8.6-6.1-14.8-15-18.9-21.9l0.5-0.2
			c4.5,6.7,12.5,15.6,21.4,20.1c15.1,7.7,38.7,6.2,42.9-1.4c0.3-1,0.5-2,0.6-2.9c0.9-7.4-12.4-48-12.8-51.6l0.7-0.3L1934.9,740.3z
			 M1979.1,711.7l-0.2-0.5c2.3-2.3,32.8-22.6,36.1-28c3-5,9.4-16.3-0.3-42.3l-2.2-6.1l0.5-0.2l19.6,50.2c0.1,0.2,0,0.6-0.2,0.7
			L1979.1,711.7z"/>
		<path d="M1911.2,880.5l-0.5,0.1l-15.4-65.8l0.5-0.1c5.1,9.4,9.4,17.4,15,21.1c3.5,2.4,62.8-6.7,85.3-10.4l7.4-1.2l0.1,0.5
			c-22.6,7.4-86.5,26.8-88.3,30.2C1911.9,860.8,1911.7,877,1911.2,880.5z M1928.5,956.7l-12.9-53.9l0.5-0.1l1.7,6
			c6.9,27.2,11.8,33.5,21.2,36.1c8.5,2.5,16,2.6,23.6,3.5l0.1,0.5c-14,3.5-22.3,5.5-33.5,8.4
			C1928.8,957.1,1928.5,956.9,1928.5,956.7z M2070.6,773.7l0.5-0.1l15.4,66l-0.5,0.1c-2.1-4.3-9.1-17.5-14.8-21.2
			c-4.1-2.8-24.9-1.3-52.7,2.5l-0.1-0.5c8.1-2.9,44.7-13.9,48.8-21.2C2070.7,793.5,2070.6,778.5,2070.6,773.7z"/>
		<path d="M2112.4,1007.1l-0.5,0c-3-38.5-50.4-59.1-93.2-56.6c-42.8,2.4-87.5,28.2-86.1,66.9l-0.5,0c-1.8-40.9,31-77.1,85.8-80.3
			C2073.5,934,2109.5,966.2,2112.4,1007.1z M1933.6,1044.9l0.5,0c3,38.6,50.4,59.1,93.2,56.6c42.8-2.4,87.5-28.2,86.1-66.9l0.5,0
			c1.8,40.9-30.2,77.1-85.8,80.3C1973.2,1118.1,1936.5,1085.8,1933.6,1044.9z"/>
		<path d="M2007.8,1247.6l-0.1,0.5c-35.8,5.2-77.1,13.1-81.4,16.2c-2.9,2-7.5,14.1-11.1,23.3l-0.5-0.1l9.1-70.5l0.5,0.1
			c0.6,5.8,1.3,22.3,5.7,28C1931.8,1247.4,1974.3,1248.4,2007.8,1247.6z M1931,1165.1l-0.5-0.1l9.1-70.5l0.5,0.1
			c1.1,9.8,2.5,22.7,4.8,25.3c3.4,4.1,43.7,20.2,77.5,34.5l49.1,20.6l-0.1,0.5l-52.4-15.4c-33.8-10.3-72.8-22.7-75.4-20.7
			C1937.9,1143.9,1933,1159.7,1931,1165.1z M2013.3,1236.6l-0.5-0.1c-0.7-10.5-1.2-24.6,0.1-34.8c1.5-11.2,5-20.1,8.4-30.9l0.5,0.1
			c0.4,10.7,1.9,21.6,0.5,32.3C2020.9,1214.4,2016.8,1225.9,2013.3,1236.6z M2091.2,1244.1c-19.7-2.5-51.2,1.9-73.3,3.3l0.1-0.5
			c6.1-1,72.2-14.8,75.9-18c3-2.7,12.2-37.9,16.9-54.5l0.5,0.1L2099,1270l-0.5-0.1c-1.5-6.7-3.7-21.8-5.9-24.9
			C2092.2,1244.5,2091.7,1244.1,2091.2,1244.1z"/>
		<path d="M1884.7,1367.7l0.5,0.2c-12.2,38,23.7,75.7,64.2,89.5c40.5,13.9,92,6.1,105.7-31.4l0.5,0.2
			c-14.2,39.8-57.9,62.4-110.7,44.4C1892.9,1452.8,1871.5,1407.8,1884.7,1367.7z M1896,1336.2l-0.5-0.2l21.9-63.9l0.5,0.2
			c-0.7,10.7-1.3,19.7,1.5,25.8c1.7,3.8,56.8,27.6,77.8,36.4l6.9,2.9l-0.2,0.5c-23.1-5.7-87.5-23.1-90.9-21.3
			C1907.1,1319.8,1898.4,1333.4,1896,1336.2z M2087.9,1330.1l0.5,0.2l-22,64.1l-0.5-0.2c0.5-4.7,1.5-19.6-1.3-25.8
			c-2-4.5-20.4-14.3-46-25.8l0.2-0.5c8.4,1.8,45.3,11.9,52.6,7.9C2077.5,1347,2085.4,1334.2,2087.9,1330.1z"/>
		<path d="M1831.6,1488.7l-0.5-0.2l30-60.5l0.5,0.2c-2,10.5-3.8,19.4-1.9,25.8c1.2,4,52.7,34.7,72.4,46.2l6.5,3.8l-0.2,0.5
			c-22.2-8.7-83.8-34.3-87.3-32.9C1844.7,1473.9,1834.2,1486.2,1831.6,1488.7z M2022.6,1507.5l0.5,0.2l-30.1,60.7l-0.5-0.2
			c1.1-4.6,4.1-19.3,2.1-25.7c-1.4-4.7-18.4-16.9-42.2-31.5l0.2-0.5c8.1,2.9,43.3,17.7,51.2,14.7
			C2010.1,1522.9,2019.6,1511.2,2022.6,1507.5z"/>
		<path d="M1732.8,1639.6l-0.4-0.3l38.2-56l0.4,0.3c-1.1,3-4.1,11.5-5.8,19.1c27.5,2.2,45.2,2.4,72.1,4.5l-0.1,0.6
			c-49.9,4.1-63.5,4.8-65.5,8.1c-4,6.3,25.9,25.7,31.1,29.9l-0.3,0.4c-7.6-3.9-40.5-23.5-48.7-21.6
			C1747.3,1626.1,1736.3,1636.4,1732.8,1639.6z M1804,1535.3l-0.4-0.3l38.1-55.8l0.4,0.3c-3.5,10.1-6.5,18.7-5.4,25.3
			c0.6,4.2,47.4,41.6,65.3,55.7l5.9,4.6l-0.3,0.4c-20.8-11.6-78.2-45.5-82-44.6C1819,1522.4,1806.9,1533.2,1804,1535.3z
			 M1918.8,1685.4l0.4,0.3l-38.1,55.8l-0.4-0.3c3.5-10.1,6.5-18.7,5.4-25.3c-0.6-4.2-47.4-41.6-65.3-55.7l-5.9-4.6l0.3-0.4
			c20.8,11.6,78.2,45.5,82,44.6C1903.8,1698.3,1915.8,1687.5,1918.8,1685.4z M1990.5,1580.2l0.4,0.3l-38.2,56l-0.4-0.3
			c1.2-2.6,3.8-10.2,5.6-17.4l-104.8-12.4l0.1-0.6l78.8,1.6c12.3,0.3,17.9,0.3,20.1-3.8c3.8-7.4-27.4-26.2-31.6-29.6l0.3-0.4
			c7.6,3.9,40.5,23.5,48.7,21.6C1976,1593.7,1987.1,1583.5,1990.5,1580.2z"/>
		<path d="M1670.4,1784.9c-0.2,0.2-0.7,0.4-1.1,0l-45.1-43.5l0.4-0.4l5.8,4.8c9.6,7.9,17.7,12.6,23.8,15.6
			c-5.3-9.3-4.5-25.3-0.1-38.5c3.1-10,9.7-18.7,15-24.7l0.4,0.4c-4.9,6.4-11,16.7-12.5,26.6c-2.6,16.8,6.1,38.7,14.7,40.3
			c1.1,0,2-0.2,2.9-0.4c7.3-1.4,41.8-26.7,45.1-28.1l0.5,0.5L1670.4,1784.9z M1810.5,1812.1l-0.4-0.4
			c28.9-29.8,14.1-80.1-16.1-110.5c-30.2-30.3-80.5-45.4-110.5-16.7l-0.4-0.4c31.6-30.7,82.4-32,121.1,6.9
			C1843.6,1730.5,1841.5,1780.6,1810.5,1812.1z M1711.3,1818l0.4-0.4c2.9,1.5,31.7,24.1,37.9,25.6c5.7,1.3,18.4,3.9,40.2-13.4l5.1-4
			l0.4,0.4l-41.7,34.1c-0.2,0.2-0.5,0.2-0.7,0L1711.3,1818z"/>
		<path d="M1462.6,1846.2l47.2-29l0.3,0.4l-5.2,3.4c-23.7,15.1-28.2,21.7-27.7,31.3c0.3,8.9,2.5,16,4.1,23.5l-0.4,0.3
			c-7.7-12.2-12.2-19.5-18.4-29.2C1462.3,1846.7,1462.4,1846.4,1462.6,1846.2z M1529.6,1806l-0.3-0.4l57.7-35.1l0.3,0.4
			c-7.3,7.8-13.6,14.3-15.4,20.8c-1.2,4,26,57.5,36.5,77.7l3.5,6.7l-0.4,0.3c-14.1-19.2-52.5-73.7-56.2-74.4
			C1548.6,1800.5,1533.1,1805.4,1529.6,1806z M1680.9,1924l0.3,0.4l-57.9,35.3l-0.3-0.4c3.4-3.3,13.8-14.1,15.5-20.6
			c1.3-4.7-6.5-24.1-18.8-49.2l0.4-0.3c5.3,6.7,27.2,38.1,35.4,39.7C1662.1,1930.3,1676.4,1925.5,1680.9,1924z"/>
		<path d="M1380.3,1878.7l0.2,0.5c-35.7,14.8-40.5,66.3-24.8,106.1c15.6,39.8,54.1,74.3,90.4,60.9l0.2,0.5
			c-38.4,14.5-82.7-4.6-103.1-56.5C1323.1,1939.1,1342.3,1894.1,1380.3,1878.7z M1472,2036.6l-0.2-0.5
			c35.7-14.8,40.5-66.3,24.8-106.1c-15.6-39.8-54.1-74.3-90.4-60.9l-0.2-0.5c38.4-14.5,83,5.4,103.1,56.5
			C1529.4,1976.9,1510,2021.1,1472,2036.6z"/>
		<path d="M1210.4,2011.8l-0.5,0.1c-16-32.4-36.3-69.3-40.6-72.4c-2.8-2.1-15.8-2.8-25.6-3.4l-0.1-0.5l70-13.1l0.1,0.5
			c-5.3,2.3-20.8,8.1-24.9,14.1C1187.2,1939.5,1199.3,1980.3,1210.4,2011.8z M1239.5,2090c-3.7-19.5-17.7-48.1-25.7-68.6l0.5-0.1
			c2.9,5.5,36.4,64,40.5,66.6c3.5,2,39.9-0.1,57.1-0.7l0.1,0.5l-94.8,17.7l-0.1-0.5c5.9-3.5,19.6-10.2,21.9-13.3
			C1239.4,2091,1239.6,2090.5,1239.5,2090z M1222.6,2013.7l-0.1-0.5c9.8-3.9,23-8.8,33.2-10.7c11.2-2.1,20.7-1.5,32-1.5l0.1,0.5
			c-10.1,3.7-19.9,8.4-30.6,10.4C1246,2014,1233.9,2013.7,1222.6,2013.7z M1265.2,1913.4l-0.1-0.5l70-13.1l0.1,0.5
			c-9,4-20.8,9.4-22.6,12.4c-2.8,4.5-5.8,47.7-8.9,84.3l-4.5,53l-0.5,0.1l-1.5-54.5c-0.6-35.3-0.9-76.1-3.6-78
			C1287.6,1913.4,1271.1,1913.6,1265.2,1913.4z"/>
		<path d="M1058.3,1932l0,0.5c-40,0.1-64.7,45.9-65.4,88.6c-0.7,42.8,22.5,89.3,62.5,90.7l0,0.5c-42.3-1.2-77.3-35.8-76.4-91.5
			C979.8,1966,1016,1931.8,1058.3,1932z M1156.8,2113.5l0,0.5l-67.8-1.1l0-0.5c4.7-1,19.2-4.6,24.1-9.1c3.7-3.3,7.4-23.9,10.4-51.6
			l0.5,0c0.9,8.5,2.6,46.7,8.7,52.5C1137.5,2108.8,1152.1,2112.4,1156.8,2113.5z M1091.8,1933l0-0.5l67.6,1.1l0,0.5
			c-10.4,2.7-19.2,4.8-24.1,9.4c-3.1,2.8-8.8,62.5-10.7,85.1l-0.6,7.5l-0.5,0c-1.7-23.7-5-90.3-7.8-92.9
			C1110.8,1938.5,1095.2,1934.4,1091.8,1933z"/>
		<path d="M968,2106.5l-0.1,0.5l-67.2-9.6l0.1-0.5c4.7-0.4,19.6-2.1,25.1-6c4-2.8,10.3-22.7,16.8-49.9l0.5,0.1
			c-0.2,8.6-3.3,46.7,2,53.1C949.5,2099.4,963.6,2104.8,968,2106.5z M926.3,1919.3l0.1-0.5l66.9,9.6l-0.1,0.5
			c-10.6,1.3-19.6,2.4-25.1,6.3c-3.5,2.4-16.5,60.9-21.3,83.1l-1.6,7.3l-0.5-0.1c1.3-23.8,6.4-90.2,4-93.2
			C944.5,1927.1,929.4,1921.1,926.3,1919.3z"/>
		<path d="M766.4,2063.5l-0.1,0.5l-64.9-18.7l0.1-0.5c10.7,0.1,19.8,0.3,25.8-2.8c3.8-1.9,24.8-58,32.6-79.4l2.6-7l0.5,0.1
			c-4.6,23.4-18.8,88.5-16.8,91.7C749.5,2053.3,763.5,2061.4,766.4,2063.5z M752,1872.7l0.1-0.5l65.2,18.8l-0.1,0.5
			c-3.2-0.1-12.3-0.3-20,0.4c6.5,26.8,11.8,43.6,18.2,69.9l-0.6,0.1c-19.4-46.1-24.4-58.8-28.2-59.6c-7.3-1.8-16.4,32.6-18.7,38.9
			l-0.5-0.1c1.4-8.5,9.7-45.7,5.3-52.9C769.3,1882.3,756.1,1875,752,1872.7z M888.8,2098.8l-0.1,0.5l-65.2-18.8l0.1-0.5
			c2.9,0.3,10.9,0.5,18.3-0.1L821,1976.5l0.6-0.1l23.1,75.3c3.6,11.8,5.3,17.1,9.9,17.9c8.2,1.3,16.3-34.2,18.3-39.2l0.5,0.1
			c-1.4,8.5-9.7,45.7-5.3,52.9C871.4,2089.3,884.6,2096.5,888.8,2098.8z M873.4,1907.7l0.1-0.5l64.9,18.7l-0.1,0.5
			c-10.7-0.1-19.8-0.3-25.8,2.8c-3.8,1.9-24.8,58-32.6,79.4l-2.6,7l-0.5-0.1c4.6-23.4,18.8-88.5,16.8-91.7
			C890.3,1917.9,876.3,1909.9,873.4,1907.7z"/>
		<path d="M575.6,1907.5l0.5,0.2c-0.5,3.2-13.2,37.6-12.7,43.9c0.5,5.8,2,18.7,25.2,34l5.4,3.6l-0.2,0.5l-45.4-29
			c-0.2-0.1-0.3-0.5-0.2-0.7L575.6,1907.5z M594.5,1858.4c-0.2-0.1-0.6-0.6-0.3-1l27.4-56.3l0.5,0.2l-2.7,7
			c-4.5,11.6-6.5,20.7-7.4,27.5c7.2-7.9,22.7-12.1,36.6-12c10.5-0.1,20.8,3.4,28.2,6.6l-0.2,0.5c-7.6-2.7-19.3-5.3-29.2-3.6
			c-16.8,2.7-34.9,17.8-33.8,26.4c0.3,1,0.8,1.9,1.2,2.7c3.6,6.5,38.3,31.5,40.7,34.2l-0.4,0.7L594.5,1858.4z M612,2000l0.2-0.5
			c37.3,18.2,80.6-11.4,100.2-49.5c19.5-38.1,18.3-90.5-18.3-110.1l0.2-0.5c39,20.5,56,68.3,30.9,117.2
			C699.9,2006.1,651.5,2019.6,612,2000z"/>
		<path d="M465.3,1911.4l-0.3,0.4l-51.5-44.1l0.3-0.4c4.2,2.2,17.7,8.7,24.4,8.4c4.9-0.2,20.9-13.7,41-33.1l0.4,0.3
			c-4.8,7.1-27.9,37.6-26.9,45.9C453.5,1895.5,462.5,1907.6,465.3,1911.4z M471.8,1679.9l42.3,35.9l-0.3,0.4l-4.9-3.8
			c-21.7-17.9-29.3-20.1-38.4-16.6c-8.4,3-14.4,7.3-21.1,11.1l-0.4-0.3c9.2-11.1,14.8-17.6,22.1-26.5
			C471.2,1679.8,471.6,1679.7,471.8,1679.9z M530.8,1731.1l0.3-0.4l51.3,44l-0.3,0.4c-9.7-4.6-17.8-8.5-24.6-8.2
			c-4.2,0.1-46.7,42.5-62.6,58.7l-5.3,5.3l-0.4-0.3c13.9-19.3,53.9-72.7,53.4-76.5C541.9,1747.5,532.5,1734.3,530.8,1731.1z"/>
		<path d="M415.3,1611.8l-0.4,0.3c-25.2-29.3-75.6-17.8-108.6,9.4c-33,27.2-53.8,74.5-29.8,104.8l-0.4,0.3
			c-25.7-31.9-21.3-80,21.7-115.5C340.1,1576.3,388.8,1580.5,415.3,1611.8z M293.6,1747.9l0.4-0.3c25.2,29.3,75.6,17.8,108.6-9.4
			s53.8-74.5,29.8-104.8l0.4-0.3c25.7,31.9,20.7,80.5-21.7,115.5C368.2,1784,320.1,1779.2,293.6,1747.9z"/>
		<path d="M170.4,1544.1c17.4-9.6,40.2-31.8,57.2-45.8l0.2,0.5c-4.3,4.4-49.5,54.5-50.7,59.3c-0.8,4,12.6,37.8,18.5,54l-0.5,0.2
			l-46.5-84.5l0.5-0.2c5.1,4.5,15.8,15.4,19.5,16.7C169.4,1544.4,170,1544.4,170.4,1544.1z M346.4,1513.4l0.5-0.2l34.3,62.3
			l-0.5,0.2c-6.6-7.2-15.4-16.8-18.8-17.6c-5.1-1.3-47.2,9.4-82.9,17.9l-51.8,12.3l-0.2-0.5l51.3-18.5c33.4-11.6,72.1-24.6,73-27.8
			C353.3,1534.6,348,1519,346.4,1513.4z M235.7,1492.1l-0.2-0.5c25.8-25.3,54.5-56.1,56.2-61.1c1.1-3.3-2.2-15.8-4.8-25.3l0.5-0.2
			l34.3,62.3l-0.5,0.2c-3.9-4.3-14.2-17.2-21.2-19.2C297.1,1447.5,262.2,1471.7,235.7,1492.1z M237.7,1504.2l0.5-0.2
			c6.8,8,15.5,19.1,20.5,28.2c5.5,9.9,7.9,19.2,11.4,29.9l-0.5,0.2c-6.7-8.4-14.3-16.3-19.5-25.8
			C244.7,1526.6,241.2,1514.9,237.7,1504.2z"/>
		<path d="M264.1,1322.5l-0.5,0.2c-12.6-37.9-63.8-47.1-104.7-34.4S81,1337.6,92.2,1376l-0.5,0.2c-12.1-40.5,9.9-84.6,63.1-101.1
			C207.2,1258.7,251,1282.3,264.1,1322.5z M122.3,1472.7l-0.5,0.2l-20.1-64.7l0.5-0.2c2.4,4.1,10.3,16.8,16.2,20.1
			c4.3,2.5,25-0.5,52.3-6.3l0.2,0.5c-7.8,3.5-43.6,17-47.2,24.6C120.7,1452.9,121.9,1467.9,122.3,1472.7z M273.6,1354.7l0.5-0.2
			l20.1,64.5l-0.5,0.2c-5.8-9-10.6-16.7-16.5-20c-3.6-2.1-62.2,11.2-84.3,16.5l-7.3,1.7l-0.2-0.5c22-9,84.3-32.9,85.9-36.4
			C274.3,1374.4,273.3,1358.3,273.6,1354.7z"/>
		<path d="M70.2,1290.9l-0.5,0.1l-11.6-66.8l0.5-0.1c1.8,4.4,8.1,18,13.5,22c3.9,3,24.8,2.8,52.7,0.6l0.1,0.5
			c-8.2,2.5-45.4,11.3-50,18.3C71.2,1271.1,70.4,1286.2,70.2,1290.9z M235.5,1193.5l0.5-0.1l11.5,66.5l-0.5,0.1
			c-4.6-9.7-8.3-17.9-13.8-21.9c-3.3-2.6-63.1,3.1-85.7,5.4l-7.5,0.8l-0.1-0.5c23-6.1,87.9-21.7,89.9-25
			C233.7,1213.2,234.8,1197.1,235.5,1193.5z"/>
		<path d="M48.8,1086.3l-0.5,0l-2.3-67.5l0.5,0c3.2,10.2,5.8,18.9,10.6,23.6c2.9,3,62.9,5.6,85.6,6.4l7.5,0.3l0,0.5
			c-23.6,2.9-90,9.5-92.5,12.4C53.3,1067,50,1082.9,48.8,1086.3z M53.1,1213.5l-0.5,0l-2.3-67.7l0.5,0c0.6,2.8,2.9,10.5,5.8,17.3
			l91.9-51.9l0.3,0.5L84.3,1157c-10.1,7-14.6,10.3-13.9,14.9c1.3,8.2,37.6,4.9,43,5.2l0,0.5c-8.5,1.3-46.5,4.9-52,11.3
			C56.9,1194,54,1208.8,53.1,1213.5z M230.3,1139.7l0.5,0l2.3,67.5l-0.5,0c-3.2-10.2-5.8-18.9-10.6-23.6c-2.9-3-62.9-5.6-85.6-6.4
			l-7.5-0.3l0-0.5c23.6-2.9,90-9.5,92.5-12.4C225.8,1158.9,229.1,1143.1,230.3,1139.7z M226,1013.5l0.5,0l2.3,67.7l-0.5,0
			c-0.9-3.1-3.5-11.7-6.6-18.9c-23.5,14.5-37.9,24.8-60.9,38.9l-0.3-0.5c37.9-32.7,48.4-41.4,48-45.2c-0.5-7.5-36.1-5.5-42.8-5.8
			l0-0.5c8.5-1.3,46.5-4.9,52-11.3C222.3,1032.9,225.1,1018.1,226,1013.5z"/>
		<path d="M61.1,920.3l0.5,0.1c-5.7,41.1,36.1,73,78.4,79.6c42.3,6.6,91.8-10.9,99-51.8l0.5,0.1c-7.3,43.5-47.5,74.5-101.7,66
			C82.7,1005.6,54.8,963.9,61.1,920.3z M137.6,856.9l-0.1,0.5c-3.2,0.5-39.8-0.8-45.7,1.7c-5.3,2.3-17.1,7.7-24.5,34.5l-1.8,6.2
			l-0.5-0.1l13.4-52.2c0-0.3,0.3-0.5,0.6-0.4L137.6,856.9z M190.3,859.4c0-0.3,0.4-0.7,0.9-0.6l62.1,8.4l-0.1,0.5l-7.5-0.4
			c-12.4-0.6-21.7,0.3-28.4,1.5c9.8,4.4,18.6,17.8,22.8,31c3.4,9.9,3.3,20.9,2.5,28.8l-0.5-0.1c0.2-8.1-1-20-5.7-28.8
			c-7.8-15.1-27.8-27.6-35.7-23.9c-0.9,0.6-1.5,1.3-2.1,2c-5,5.5-18,46.2-19.8,49.3l-0.8-0.1L190.3,859.4z"/>
		<path d="M99.6,753.2l-0.5-0.2l26-62.6l0.5,0.2c-0.8,4.7-2.8,19.5-0.4,25.8c1.7,4.6,19.5,15.6,44.2,28.7l-0.2,0.5
			c-8.3-2.3-44.4-14.8-52-11.2C111.1,737,102.3,749.3,99.6,753.2z M291.4,759.3l0.5,0.2L266,821.9l-0.5-0.2
			c1.3-10.6,2.5-19.6,0.1-25.9c-1.4-3.9-54.9-31.1-75.3-41.2l-6.7-3.3l0.2-0.5c22.7,7.2,85.9,28.6,89.3,27
			C279.4,774.9,289,761.9,291.4,759.3z M321.9,687.4l-21,51.3l-0.5-0.2l2.1-5.8c10.3-26.1,10-34.1,3.9-41.6
			c-5.5-7-11.4-11.4-17.1-16.6l0.2-0.5c13.4,5.3,21.3,8.5,32.1,12.8C321.8,686.8,322,687.1,321.9,687.4z"/>
		<path d="M202,539.2l0.4,0.3c-20.1,33,6.4,77.4,42.6,100.3c36.1,22.9,87.6,28.1,109-4.1l0.4,0.3c-22.4,34.3-70.2,44.6-116.6,15.1
			C190.7,621.2,180.4,574.1,202,539.2z M369.2,612.7l-0.4-0.3c20.1-33-6.4-77.4-42.6-100.3c-36.1-22.9-87.6-28.1-109,4.1l-0.4-0.3
			c22.4-34.3,69.6-45,116.6-15.1C379.8,530.2,390.8,577.8,369.2,612.7z"/>
		<path d="M357.9,359.2c14.5,13.6,42.7,28.4,61.3,40.2l-0.4,0.4c-5.6-2.7-67.2-30.1-72.1-29.8c-4,0.5-32.1,23.6-45.6,34.3l-0.4-0.4
			l66-70.3l0.4,0.4c-2.7,6.3-9.8,19.8-9.8,23.7C357.3,358.3,357.5,358.8,357.9,359.2z M441.6,516.8l0.4,0.4L393.2,569l-0.4-0.4
			c4.8-8.5,11.2-19.9,10.9-23.3c-0.4-5.3-23.6-41.9-42.7-73.2l-27.7-45.4l0.4-0.4l33.5,43.1c21.3,28.1,45.8,60.9,49,60.8
			C423.6,529.9,436.8,520,441.6,516.8z M416.6,410.7l0.4,0.4c-5.6,8.9-13.4,20.7-20.4,28.2c-7.8,8.3-15.8,13.5-24.9,20.1l-0.4-0.4
			c5.9-8.9,11.1-18.6,18.5-26.5C397.5,424.3,407.5,417.4,416.6,410.7z M427.6,405.1l0.4-0.4c32.1,16.7,70.3,34.4,75.6,34.4
			c3.5,0.1,14.4-7,22.6-12.4l0.4,0.4l-48.7,51.9l-0.4-0.4c2.9-5,12-18.8,11.8-26.1C489.1,449.6,455.2,423.9,427.6,405.1z"/>
		<path d="M410.7,291.5l-0.3-0.4l55.3-39.3l0.3,0.4c-3.2,3.5-12.7,15-14,21.7c-1,4.8,8.2,23.6,22.3,47.7l-0.4,0.3
			c-5.8-6.3-29.8-36.1-38.1-37.1C429,283.8,415.1,289.6,410.7,291.5z M570.1,398.3l0.3,0.4l-55.1,39.1l-0.3-0.4
			c6.8-8.3,12.6-15.3,13.9-21.9c0.9-4.1-30-55.5-41.9-74.9l-3.9-6.4l0.4-0.3c15.4,18.1,57.6,69.8,61.4,70.2
			C551.5,405.2,566.6,399.2,570.1,398.3z M597.7,379.3l-0.3-0.4c32.1-23.8,24.9-75.3,0.1-110.1c-24.8-34.9-71.1-58.6-104.2-36
			l-0.3-0.4c34.8-24.1,83.5-17,115.8,28.4C640.7,305.4,631.9,354.4,597.7,379.3z"/>
		<path d="M567.2,185.4l-0.2-0.5l59.9-31.9l0.2,0.5c-3.6,3.1-14.5,13.3-16.7,19.7c-1.6,4.7,5.1,24.4,15.9,50.2l-0.5,0.2
			c-4.9-7-24.9-39.6-33-41.7C586.3,180.2,571.8,184.1,567.2,185.4z M711.4,311.9l0.2,0.5L652,344.1l-0.2-0.5
			c7.8-7.3,14.4-13.5,16.6-19.9c1.4-4-22.6-58.9-31.9-79.7l-3.1-6.8l0.5-0.2c13,20,48.1,76.6,51.8,77.5
			C692.2,316.3,707.9,312.3,711.4,311.9z"/>
		<path d="M635.7,144.9l-0.2-0.5l63.7-23.3l0.2,0.5c-2.5,1.5-9,6-14.7,10.9l77.9,71.1l-0.4,0.4l-63.1-47.2
			c-9.8-7.4-14.3-10.7-18.5-8.6c-7.4,3.8,7,37.2,8.4,42.5l-0.5,0.2c-3.9-7.6-19.2-42.7-26.9-45.9
			C655.3,142.4,640.4,144.3,635.7,144.9z M761,290.1l0.2,0.5l-63.5,23.2l-0.2-0.5c8.7-6.2,16.2-11.4,19.2-17.4
			c1.9-3.7-14.3-61.5-20.6-83.3l-2.1-7.2l0.5-0.2c10.1,21.6,37.1,82.5,40.6,84C741.3,291.8,757.4,290,761,290.1z M755.3,101.2
			l-0.2-0.5l63.5-23.2l0.2,0.5c-8.7,6.2-16.2,11.4-19.2,17.4c-1.9,3.7,14.3,61.5,20.6,83.3l2.1,7.2l-0.5,0.2
			c-10.1-21.6-37.1-82.5-40.6-84C775,99.5,758.9,101.2,755.3,101.2z M879.7,246.7l0.2,0.5l-63.7,23.3L816,270
			c2.6-1.8,10.1-7,15.9-12.1c-21.1-17.8-35.3-28.3-56-45.7l0.4-0.4c42.9,25.8,54.4,33.1,58,31.5c6.9-2.8-6-35.9-7.8-42.4l0.5-0.2
			c3.9,7.6,19.2,42.7,26.9,45.9C860.1,249.2,875,247.4,879.7,246.7z"/>
		<path d="M917.5,61.5l0.1,0.5c-40.9,7.3-58.3,56.8-51.6,99c6.7,42.2,38.7,83.9,79.9,78.1l0.1,0.5c-43.6,6.4-85.6-22.1-94.2-76.3
			C843,108.3,874,68.9,917.5,61.5z M1001.5,114.6l-0.5,0.1c-1.5-2.9-11.6-38.1-15.7-42.9c-3.8-4.3-12.7-13.9-40.4-12.6l-6.5,0.3
			l-0.1-0.5l53.8-3.3c0.3,0,0.6,0.2,0.6,0.4L1001.5,114.6z M1015.3,165.4c0.3,0,0.8,0.1,0.9,0.6l11.1,61.6l-0.5,0.1l-1.9-7.3
			c-3.2-12-6.9-20.6-10.2-26.6c-1.2,10.6-11.2,23.2-22.4,31.2c-8.4,6.3-18.9,9.5-26.7,11.3l-0.1-0.5c7.7-2.3,18.7-7.2,25.7-14.3
			c11.9-12.1,17.7-34.9,11.7-41.3c-0.9-0.6-1.7-1-2.6-1.4c-6.8-3.1-49.6-2.8-53.1-3.6l-0.1-0.8L1015.3,165.4z"/>
	</g>
	<g>
		<path d="M1291.4,223.8L1291.4,223.8l3.2-12l0.1,0c0,0.5-0.1,2,0.1,3.3l18.9-4.1l0,0.1l-13.8,4.4c-2.2,0.7-3.1,1-3.3,1.8
			c-0.2,1.5,6.3,2.9,7.2,3.3l0,0.1c-1.6-0.2-8.4-1.7-9.7-0.9C1293.1,220.6,1291.8,223,1291.4,223.8z M1297.6,201.3L1297.6,201.3
			l3.2-12l0.1,0c0,2,0,3.6,0.6,4.7c0.4,0.7,10.7,4.4,14.6,5.8l1.3,0.5l0,0.1c-4.3-0.8-16.3-3.3-16.9-2.9
			C1299.4,198.2,1298,200.8,1297.6,201.3z M1326.4,220.6L1326.4,220.6l-3.2,12l-0.1,0c0-2,0-3.6-0.6-4.7c-0.4-0.7-10.7-4.4-14.6-5.8
			l-1.3-0.5l0-0.1c4.3,0.8,16.3,3.3,16.9,2.9C1324.6,223.7,1326,221.1,1326.4,220.6z M1332.6,198.2L1332.6,198.2l-3.2,12l-0.1,0
			c0-0.6,0-2.2-0.1-3.7c-4.9,1.2-8,2.3-12.8,3.5l0-0.1c8.4-3.7,10.7-4.6,10.9-5.3c0.3-1.3-6-2.9-7.2-3.3l0-0.1
			c1.6,0.2,8.4,1.7,9.7,0.9C1330.9,201.4,1332.2,199,1332.6,198.2z"/>
		<path d="M1305,173.9L1305,173.9c-1.7,6.9,5.4,13.2,12.9,15.3c7.6,2.1,16.9,0.2,18.9-6.6l0.1,0c-2.1,7.2-9.9,11.6-19.6,8.9
			C1307.5,188.9,1303.1,181.2,1305,173.9z M1338.3,177.8L1338.3,177.8c1.7-6.9-5.4-13.2-12.9-15.3c-7.6-2.1-16.9-0.2-18.9,6.6
			l-0.1,0c2.1-7.2,9.8-11.6,19.6-8.9C1335.7,162.8,1340.2,170.6,1338.3,177.8z"/>
		<path d="M1328.1,151l13.8,0.9l0,0.1l-13.7,0.2c-6.7,0.1-14.9,0.2-15.7,0.6c-0.6,0.3-1.7,2.4-2.6,3.9l-0.1,0l3.5-12.6l0.1,0
			c0,1.1-0.3,4.1,0.3,5.2C1314,149.9,1321.5,150.6,1328.1,151z M1333.5,133c-3.5,0.1-7.3-0.2-10.4-0.1c2.4,1.6,5.4,3.8,8.3,5.6
			l0,0.1c-5.2-2.4-11.8-5.2-13.1-5.1c-1.3,0.1-2.6,3.2-3.2,4.3l-0.1,0l3.5-12.9l0.1,0c0,1.1-0.5,4.4,0.5,5.3
			c0.9,0.9,8.1,1.1,14.2,1.5l13.8,0.9l0,0.1L1333.5,133z M1320.4,118.7L1320.4,118.7l3.4-12.6l0.1,0c-0.1,1.8-0.1,4.2,0.2,4.7
			c0.5,0.8,6.9,5.1,12.6,8.5l0,0.1c-5.6-2.5-12.9-5.4-13.3-5.1C1322.2,115,1320.9,117.7,1320.4,118.7z M1348.3,141.3L1348.3,141.3
			l-3.9,14.3l-0.1,0c0.3-3.4,0.6-7,0.3-7.7c-0.4-0.8-3.4-3.1-11.6-8.4l0-0.1c3.6,1.8,8.6,4.8,12.2,5.8c0.1,0,0.2,0,0.3-0.1
			C1346.1,144.7,1347.6,142.3,1348.3,141.3z M1353.6,122.1L1353.6,122.1l-3.9,14.3l-0.1,0c0.3-3.4,0.6-7,0.3-7.7
			c-0.4-0.8-3.4-3.1-11.6-8.4l0-0.1c3.6,1.8,8.6,4.8,12.2,5.7c0.1,0,0.2,0,0.3-0.1C1351.4,125.5,1352.9,123.1,1353.6,122.1z"/>
	</g>
	<g>
		<path d="M1965.4,1012.2L1965.4,1012.2l12.4-0.6l0,0.1c-0.5,0.1-1.9,0.6-3.2,1.1l9.6,16.8l-0.1,0.1l-8.4-11.8
			c-1.3-1.8-1.9-2.7-2.8-2.5c-1.5,0.2-0.9,6.9-0.9,7.9l-0.1,0c-0.3-1.6-1-8.5-2.1-9.5C1969,1012.8,1966.2,1012.3,1965.4,1012.2z
			 M1979.1,1044.5L1979.1,1044.5l-12.4,0.6l0-0.1c1.9-0.6,3.5-1.1,4.3-2c0.5-0.5,1-11.5,1.1-15.7l0-1.4l0.1,0
			c0.6,4.3,1.9,16.5,2.4,16.9C1975.6,1043.7,1978.5,1044.3,1979.1,1044.5z M2002.3,1043.6L2002.3,1043.6l-12.4,0.6l0-0.1
			c0.6-0.2,2.2-0.7,3.5-1.2c-2.7-4.3-4.6-6.9-7.2-11.1l0.1-0.1c6.1,6.9,7.7,8.8,8.4,8.7c1.4-0.1,1-6.6,1-7.8l0.1,0
			c0.3,1.6,1,8.5,2.1,9.5C1998.7,1042.9,2001.4,1043.4,2002.3,1043.6z M1988.7,1011.2L1988.7,1011.2l12.4-0.6l0,0.1
			c-1.9,0.6-3.5,1.1-4.3,2c-0.5,0.5-1,11.5-1.1,15.7l0,1.4l-0.1,0c-0.6-4.3-1.9-16.5-2.4-16.9
			C1992.3,1012,1989.4,1011.4,1988.7,1011.2z"/>
		<path d="M2017.1,1010L2017.1,1010c-7.1,0.5-11,9.1-10.7,17c0.3,7.8,4.9,16.1,12,16l0,0.1c-7.5,0.2-14.1-5.9-14.5-16
			C2003.5,1016.9,2009.6,1010.4,2017.1,1010z M2023.5,1042.8L2023.5,1042.8c7.1-0.5,11-9.2,10.7-17c-0.3-7.8-4.9-16.1-12-16l0-0.1
			c7.5-0.2,14.1,5.8,14.5,16C2037,1035.8,2031,1042.4,2023.5,1042.8z"/>
		<path d="M2046,1024.9l3.3,13.4l-0.1,0l-4.4-12.9c-2.2-6.3-4.7-14.1-5.4-14.8c-0.4-0.5-2.8-0.9-4.6-1.3l0-0.1l13-0.5l0,0.1
			c-1,0.3-4,0.9-4.9,1.9C2042.7,1011.2,2044.4,1018.6,2046,1024.9z M2061.4,1041.2L2061.4,1041.2l-14.8,0.7l0-0.1
			c3.3-0.7,6.8-1.6,7.4-2.1c0.6-0.6,1.9-4.2,4.5-13.6l0.1,0c-0.6,4-1.9,9.7-1.8,13.3c0,0.1,0.1,0.2,0.2,0.3
			C2057.5,1040.2,2060.2,1040.8,2061.4,1041.2z M2064.8,1024.6c-1.1-3.3-2.1-7-3.1-9.9c-0.8,2.8-2,6.3-2.8,9.6l-0.1,0
			c0.7-5.7,1.3-12.8,0.9-14c-0.5-1.2-3.8-1.5-5.1-1.7l0-0.1l13.3-0.5l0,0.1c-1,0.3-4.3,0.9-4.9,2.1c-0.6,1.1,1.5,8.1,2.9,14
			l3.3,13.4l-0.1,0L2064.8,1024.6z M2081.3,1040.4L2081.3,1040.4l-14.8,0.7l0-0.1c3.3-0.8,6.8-1.6,7.4-2.1c0.6-0.6,1.9-4.2,4.5-13.6
			l0.1,0c-0.6,4-1.9,9.7-1.8,13.3c0,0.1,0.1,0.2,0.2,0.3C2077.4,1039.4,2080.1,1040,2081.3,1040.4z M2074.4,1007.7L2074.4,1007.7
			l13-0.6l0,0.1c-1.7,0.5-4,1.2-4.4,1.6c-0.6,0.7-2.7,8.2-4.3,14.6l-0.1,0c0.7-6.1,1.2-13.9,0.8-14.2
			C2078.5,1008.3,2075.5,1007.9,2074.4,1007.7z"/>
	</g>
	<g>
		<path d="M1392.9,1923.2L1392.9,1923.2l-5.4-11.1l0.1,0c1.3,1.5,2.4,2.8,3.5,3.2c0.7,0.3,11-3.7,14.9-5.2l1.3-0.5l0,0.1
			c-3.8,2.2-14.4,8.2-14.7,8.8C1392.3,1919.6,1392.9,1922.5,1392.9,1923.2z M1402.9,1944.1L1402.9,1944.1l-5.4-11.2l0.1,0
			c0.4,0.5,1.4,1.7,2.5,2.7c2.9-4.2,4.6-6.9,7.4-11l0.1,0.1c-4,8.3-5.1,10.5-4.8,11.1c0.6,1.2,6.5-1.7,7.6-2.2l0,0.1
			c-1.3,0.8-7.5,4.2-7.9,5.7C1402.1,1940.6,1402.7,1943.3,1402.9,1944.1z M1417.3,1897.8L1417.3,1897.8l5.4,11.2l-0.1,0
			c-0.3-0.4-1.3-1.5-2.2-2.5l-11.7,15.4l-0.1-0.1l7.5-12.3c1.2-1.9,1.7-2.8,1.3-3.5c-0.8-1.3-6.7,1.9-7.6,2.3l0-0.1
			c1.3-0.8,7.5-4.2,7.9-5.7C1418.1,1901.4,1417.5,1898.7,1417.3,1897.8z M1427.4,1918.9L1427.4,1918.9l5.4,11.1l-0.1,0
			c-1.3-1.5-2.4-2.8-3.5-3.2c-0.7-0.3-11,3.7-14.9,5.2l-1.3,0.5l0-0.1c3.8-2.2,14.4-8.2,14.7-8.8
			C1428,1922.5,1427.4,1919.6,1427.4,1918.9z"/>
		<path d="M1439.7,1944.5L1439.7,1944.5c-3.3-6.3-12.7-6.5-19.8-3.1c-7.1,3.4-12.9,10.8-10,17.3l-0.1,0c-3.1-6.8-0.1-15.2,9-19.6
			C1428,1934.7,1436.3,1937.7,1439.7,1944.5z M1411.9,1963.3L1411.9,1963.3c3.3,6.3,12.7,6.5,19.8,3.1c7.1-3.4,12.9-10.8,10-17.3
			l0.1,0c3.1,6.8,0.2,15.2-9,19.6C1423.7,1973,1415.2,1970,1411.9,1963.3z"/>
		<path d="M1428.3,1997.5L1428.3,1997.5l-6.5-13.4l0.1,0c2,2.8,4.2,5.7,4.8,6c0.8,0.3,4.6,0.1,14.3-1.2l0,0.1c-3.9,1-9.7,2-13,3.6
			c-0.1,0-0.2,0.1-0.2,0.2C1427.7,1993.5,1428.2,1996.2,1428.3,1997.5z M1437.3,1976.9l-11.1,8.3l0-0.1l10.2-9.1
			c5-4.5,11.1-9.8,11.5-10.7c0.2-0.6-0.2-2.9-0.6-4.7l0.1,0l5.6,11.8l-0.1,0c-0.7-0.8-2.4-3.3-3.7-3.8
			C1448.6,1968.5,1442.5,1972.9,1437.3,1976.9z M1436.9,2015.4L1436.9,2015.4l-6.5-13.4l0.1,0c2,2.8,4.2,5.7,4.8,6
			c0.8,0.3,4.6,0.1,14.3-1.2l0,0.1c-3.9,1-9.7,2-13,3.6c-0.1,0-0.2,0.1-0.2,0.2C1436.3,2011.4,1436.7,2014.2,1436.9,2015.4z
			 M1444.9,1994c2.6-2.3,5.6-4.7,7.9-6.7c-2.9,0.4-6.6,0.6-9.9,1.2l0-0.1c5.5-1.6,12.3-3.8,13.3-4.7c0.9-0.9-0.2-4.1-0.4-5.3l0.1,0
			l5.7,12l-0.1,0c-0.7-0.8-2.5-3.6-3.9-3.7c-1.2-0.1-6.9,4.5-11.7,8.2l-11.1,8.3l0-0.1L1444.9,1994z M1464.2,1996.3L1464.2,1996.3
			l5.7,11.7l-0.1,0c-1.1-1.4-2.6-3.2-3.3-3.4c-0.9-0.3-8.6,0.7-15.1,1.8l0-0.1c5.9-1.7,13.2-4.4,13.4-4.9
			C1465.3,2000.3,1464.5,1997.4,1464.2,1996.3z"/>
	</g>
	<g>
		<path d="M363.7,1651.2L363.7,1651.2l9.6-7.9l0.1,0.1c-0.4,0.5-1.3,1.8-2,3c4.7,1.8,7.8,2.8,12.4,4.6l0,0.1c-9-1.9-11.4-2.5-11.9-2
			c-1,0.9,3.2,5.9,3.9,6.9l-0.1,0.1c-1.1-1.1-5.9-6.3-7.4-6.4C367,1649.6,364.5,1650.8,363.7,1651.2z M394,1669.1L394,1669.1
			l-9.6,7.9l-0.1-0.1c1.1-1.6,2.1-2.9,2.3-4.2c0.1-0.8-6.1-9.8-8.5-13.2l-0.8-1.1l0.1-0.1c3,3.1,11.3,12.1,12,12.2
			C390.6,1670.6,393.3,1669.3,394,1669.1z M381.8,1636.7L381.8,1636.7l9.6-7.9l0.1,0.1c-1.1,1.6-2.1,2.9-2.3,4.2
			c-0.1,0.8,6.1,9.8,8.5,13.2l0.8,1.1l-0.1,0.1c-3-3.1-11.3-12.1-12-12.2C385.1,1635.2,382.4,1636.5,381.8,1636.7z M412.1,1654.4
			L412.1,1654.4l-9.6,7.9l-0.1-0.1c0.3-0.4,1.2-1.6,1.9-2.8l-17.7-7.7l0-0.1l13.8,4.5c2.1,0.7,3.1,1,3.7,0.4c1.1-1.1-3.4-6-4-6.9
			l0.1-0.1c1.1,1.1,5.9,6.3,7.4,6.4C408.9,1656,411.4,1654.8,412.1,1654.4z"/>
		<path d="M347.2,1664.5L347.2,1664.5c-5.4,4.6-3.4,13.9,1.6,20c4.9,6.1,13.6,10,19.2,5.7l0.1,0.1c-5.9,4.6-14.7,3.7-21.2-4.2
			C340.5,1678.2,341.4,1669.3,347.2,1664.5z M371.9,1687L371.9,1687c5.4-4.6,3.4-13.9-1.6-20c-4.9-6.1-13.6-10-19.2-5.7l-0.1-0.1
			c5.9-4.6,14.8-3.6,21.2,4.2C378.7,1673.4,377.7,1682.2,371.9,1687z"/>
		<path d="M302.2,1700.9L302.2,1700.9l11.5-9.4l0.1,0.1c-2.2,2.6-4.5,5.4-4.7,6.1c-0.1,0.9,1,4.5,4.5,13.6l-0.1,0.1
			c-1.9-3.6-4.2-8.9-6.5-11.8c-0.1-0.1-0.2-0.1-0.3-0.1C306,1699.3,303.4,1700.4,302.2,1700.9z M324.9,1703.7c2.9,2,5.9,4.4,8.4,6.1
			c-1-2.7-2.2-6.3-3.5-9.3l0.1-0.1c2.8,4.9,6.6,11.1,7.7,11.8c1.1,0.7,4-1.1,5.1-1.7l0.1,0.1l-10.4,8.4l-0.1-0.1
			c0.7-0.8,2.9-3.3,2.7-4.6c-0.2-1.2-6-5.6-10.7-9.5l-10.7-8.8l0.1-0.1L324.9,1703.7z M327.2,1723L327.2,1723l-10.1,8.3l-0.1-0.1
			c1.1-1.4,2.5-3.3,2.6-4c0.1-1-2.7-8.2-5.3-14.3l0.1-0.1c3.1,5.3,7.3,11.8,7.9,11.9C323.6,1724.9,326.3,1723.4,327.2,1723z
			 M317.7,1688.4L317.7,1688.4l11.5-9.4l0.1,0.1c-2.2,2.6-4.5,5.4-4.7,6.1c-0.1,0.9,1,4.5,4.5,13.6l-0.1,0.1
			c-1.9-3.6-4.2-8.9-6.5-11.8c-0.1-0.1-0.2-0.1-0.3-0.1C321.5,1686.8,318.9,1687.9,317.7,1688.4z M339.8,1692.2l-10.7-8.8l0.1-0.1
			l11.2,7.8c5.5,3.8,12.2,8.5,13.1,8.7c0.6,0.1,2.8-0.9,4.4-1.7l0.1,0.1l-10.2,8.2l-0.1-0.1c0.7-0.8,2.7-3.1,2.8-4.4
			C350.7,1701.3,344.9,1696.4,339.8,1692.2z"/>
	</g>
	<g>
		<path d="M310.2,607.3L310.2,607.3l-10.9-5.9l0-0.1c1.9,0.5,3.5,0.9,4.7,0.6c0.7-0.2,6.8-9.4,9.1-12.9l0.7-1.2l0.1,0
			c-1.8,4-7,15.1-6.7,15.7C307.6,604.8,309.8,606.8,310.2,607.3z M315.4,572.6L315.4,572.6l10.9,5.9l0,0.1c-0.6-0.2-2.2-0.6-3.6-0.7
			c0.1,5.1,0.3,8.3,0.4,13.2l-0.1,0c-1.6-9-2-11.5-2.6-11.8c-1.2-0.6-4.3,5.2-4.9,6.2l-0.1,0c0.6-1.5,3.6-7.8,3.1-9.2
			C318.1,575,316.1,573.1,315.4,572.6z M330.7,618.6L330.7,618.6l-10.9-5.9l0-0.1c0.5,0.2,1.9,0.5,3.3,0.7l0.5-19.3l0.1,0l1.1,14.4
			c0.2,2.2,0.2,3.3,1,3.6c1.4,0.6,4.3-5.5,4.9-6.3l0.1,0c-0.6,1.5-3.6,7.8-3.1,9.2C328,616.1,330,618,330.7,618.6z M335.7,583.8
			L335.7,583.8l10.9,5.9l0,0.1c-1.9-0.5-3.5-0.9-4.7-0.6c-0.7,0.2-6.8,9.4-9.1,12.9l-0.7,1.2l-0.1,0c1.8-4,7-15.1,6.7-15.7
			C338.3,586.3,336.1,584.3,335.7,583.8z"/>
		<path d="M296.9,562.2L296.9,562.2c-6.3-3.2-14.1,2.1-17.9,9c-3.8,6.9-4.2,16.3,2,19.9l0,0.1c-6.5-3.7-9-12.2-4.1-21.2
			C281.7,561.2,290.3,558.7,296.9,562.2z M285.3,593.6L285.3,593.6c6.3,3.2,14.1-2.1,17.9-9c3.8-6.9,4.2-16.3-2-19.9l0-0.1
			c6.5,3.7,9,12.3,4.1,21.2C300.5,594.8,292,597.2,285.3,593.6z"/>
		<path d="M235.1,565.8L235.1,565.8l-11.5-6.2l0-0.1c1.7,0.5,4,1.1,4.6,0.9c0.9-0.3,6.6-5.5,11.2-10.3l0.1,0
			c-3.8,4.8-8.2,11.2-8.1,11.7C232,563.2,234.3,565.1,235.1,565.8z M246.2,534.4L246.2,534.4l13.1,7.1l0,0.1c-3.2-1.1-6.7-2.2-7.4-2
			c-0.9,0.2-3.8,2.6-10.9,9.3l-0.1,0c2.6-3.1,6.7-7.3,8.4-10.5c0-0.1,0-0.2,0-0.3C249,537.3,247,535.3,246.2,534.4z M252.2,556.4
			c-0.8,3.4-1.9,7.1-2.5,10.1c2.1-2,5-4.4,7.4-6.7l0.1,0c-3.5,4.5-7.8,10.2-8,11.6c-0.2,1.2,2.5,3.2,3.5,4.1l0,0.1l-11.7-6.4l0-0.1
			c1,0.3,4.2,1.5,5.3,0.8c1.1-0.7,2.9-7.7,4.7-13.5l4.1-13.2l0.1,0L252.2,556.4z M263.6,544L263.6,544l13,7.1l0,0.1
			c-3.2-1.1-6.7-2.2-7.4-2c-0.9,0.2-3.8,2.6-10.9,9.3l-0.1,0c2.6-3.1,6.7-7.3,8.4-10.5c0-0.1,0.1-0.2,0-0.3
			C266.5,546.9,264.5,544.9,263.6,544z M268.4,565.9l4.1-13.2l0.1,0l-3,13.3c-1.5,6.5-3.3,14.5-3.1,15.4c0.1,0.6,1.9,2.2,3.2,3.5
			l0,0.1l-11.4-6.3l0-0.1c1,0.3,3.9,1.3,5.2,0.9C264.1,579.4,266.4,572.1,268.4,565.9z"/>
	</g>
</g>
</svg>
